<svg width="33" height="29" viewBox="0 0 33 29" fill="none" xmlns="http://www.w3.org/2000/svg">
<path d="M26.2453 18.5835C26.7051 18.9399 27.5902 20.4649 26.6298 21.0394C25.6695 21.6139 25.9608 23.4235 26.4955 24.0546" stroke="#3A4254" stroke-linejoin="round"/>
<path d="M8.54543 10.4298C8.05474 10.1173 7.03285 8.68038 7.93612 8.01979C8.83939 7.35919 8.38249 5.58413 7.79192 5.00502" stroke="#3A4254" stroke-linejoin="round"/>
<path d="M16.4535 27.3153C16.5377 26.4925 15.7546 24.8352 14.6377 24.9044C13.913 24.9493 13.6028 24.2248 13.5229 23.5592" stroke="#3A4254" stroke-linejoin="round"/>
<path d="M21.0709 22.9231C21.3448 23.4326 22.7092 24.5627 23.4532 23.7329C24.1972 22.9031 25.9529 23.5096 26.4859 24.1386" stroke="#3A4254" stroke-linejoin="round"/>
<path d="M13.2974 5.6316C12.9777 5.14943 11.515 4.14994 10.8506 5.0448C10.1863 5.93966 8.38217 5.49759 7.79351 4.92035" stroke="#3A4254" stroke-linejoin="round"/>
<path d="M20.2876 23.3147C20.3499 23.8899 19.8636 25.5934 18.7807 25.3297C17.6979 25.0661 16.5928 26.5591 16.5089 27.3793" stroke="#3A4254" stroke-linejoin="round"/>
<path d="M26.7645 12.6471C27.2937 12.4054 28.8954 10.9727 28.092 10.1937C27.2886 9.41473 27.9861 7.71974 28.651 7.22769" stroke="#3A4254" stroke-linejoin="round"/>
<path d="M18.1209 1.42549C18.1685 2.33555 17.2165 4.1165 15.9912 3.97945C15.1962 3.89052 14.8153 4.67083 14.691 5.39896" stroke="#3A4254" stroke-linejoin="round"/>
<path d="M23.1115 7.08832C23.4947 6.6549 25.0814 5.8669 25.6158 6.84491C26.1503 7.82292 27.9982 7.63413 28.6609 7.14368" stroke="#3A4254" stroke-linejoin="round"/>
<path d="M22.1216 6.03715C22.2215 5.40764 21.7793 3.5065 20.5733 3.73759C19.3673 3.96868 18.2327 2.26548 18.1852 1.35837" stroke="#3A4254" stroke-linejoin="round"/>
<path d="M8.47683 23.9054C9.00518 23.2233 10.7887 22.5348 11.5826 23.3904C12.0977 23.9457 12.8531 23.6216 13.3923 23.1763" stroke="#3A4254" stroke-linejoin="round"/>
<path d="M8.45842 18.1256C7.99766 18.5153 7.13956 20.1518 8.14718 20.7316C9.1548 21.3113 8.91558 23.234 8.38894 23.9138" stroke="#3A4254" stroke-linejoin="round"/>
<circle cx="17.3235" cy="14.4118" r="9.38235" fill="#FCFCFF" stroke="#3A4254"/>
</svg>
