<svg width="20" height="24" viewBox="0 0 20 24" fill="none" xmlns="http://www.w3.org/2000/svg">
<path d="M9.61578 5.80664C10.8634 5.80664 11.9579 5.28904 12.8992 4.25384C13.8406 3.21863 14.3112 2.01486 14.3112 0.642543C14.3112 0.491823 14.3 0.277642 14.2776 0C14.1133 0.0237979 13.99 0.0436295 13.9078 0.0594947C12.7573 0.234013 11.745 0.832926 10.8709 1.85621C9.9968 2.87952 9.55976 3.97422 9.55976 5.14032C9.55976 5.27515 9.57843 5.49729 9.61578 5.80664ZM14.0871 24C14.9761 24 15.9586 23.3535 17.0344 22.0605C18.1102 20.7675 18.932 19.2484 19.4998 17.5032C17.3855 16.3451 16.3284 14.6832 16.3284 12.5176C16.3284 10.709 17.1838 9.16214 18.8946 7.87705C17.7068 6.29846 16.1379 5.50916 14.188 5.50916C13.3662 5.50916 12.6154 5.64005 11.9355 5.90183L11.5097 6.06841L10.9381 6.30639C10.5646 6.45711 10.2247 6.5325 9.91835 6.5325C9.67928 6.5325 9.36548 6.44521 8.97702 6.27069L8.53996 6.08031L8.12534 5.90183C7.52018 5.63212 6.87022 5.49726 6.17544 5.49726C4.31518 5.49726 2.82101 6.1636 1.69289 7.49629C0.564778 8.82894 0.000732422 10.586 0.000732422 12.7675C0.000732422 15.8374 0.904703 18.6733 2.71267 21.2752C3.96779 23.0917 5.11457 24 6.15302 24C6.59381 24 7.03085 23.9088 7.46416 23.7263L8.01327 23.4883L8.45034 23.3218C9.06294 23.0917 9.62698 22.9767 10.1425 22.9767C10.6879 22.9767 11.3154 23.1235 12.0252 23.417L12.3725 23.5597C13.0972 23.8532 13.6688 24 14.0871 24Z" fill="#3A4254"/>
</svg>
