<svg width="16" height="16" viewBox="0 0 16 16" fill="none" xmlns="http://www.w3.org/2000/svg">
<g clip-path="url(#clip0_1342_1643)">
<path d="M1.66675 7.99996C1.66675 5.0144 1.66675 3.52162 2.59424 2.59412C3.52174 1.66663 5.01452 1.66663 8.00008 1.66663C10.9856 1.66663 12.4784 1.66663 13.4059 2.59412C14.3334 3.52162 14.3334 5.0144 14.3334 7.99996C14.3334 10.9855 14.3334 12.4783 13.4059 13.4058C12.4784 14.3333 10.9856 14.3333 8.00008 14.3333C5.01452 14.3333 3.52174 14.3333 2.59424 13.4058C1.66675 12.4783 1.66675 10.9855 1.66675 7.99996Z" stroke="#AAB0BE" stroke-width="1.5" stroke-linecap="round" stroke-linejoin="round"/>
<path d="M8 5.33337V10.6667" stroke="#AAB0BE" stroke-width="1.5" stroke-linecap="round" stroke-linejoin="round"/>
<path d="M6 6.66663V9.33329" stroke="#AAB0BE" stroke-width="1.5" stroke-linecap="round" stroke-linejoin="round"/>
<path d="M4 7.33337V8.66671" stroke="#AAB0BE" stroke-width="1.5" stroke-linecap="round" stroke-linejoin="round"/>
<path d="M10 6.66663V9.33329" stroke="#AAB0BE" stroke-width="1.5" stroke-linecap="round" stroke-linejoin="round"/>
<path d="M12 7.33337V8.66671" stroke="#AAB0BE" stroke-width="1.5" stroke-linecap="round" stroke-linejoin="round"/>
</g>
<defs>
<clipPath id="clip0_1342_1643">
<rect width="16" height="16" fill="white"/>
</clipPath>
</defs>
</svg>
