<svg width="46" height="46" viewBox="0 0 46 46" fill="none" xmlns="http://www.w3.org/2000/svg">
<g filter="url(#filter0_bi_1518_1547)">
<circle cx="23" cy="23" r="22" fill="black" fill-opacity="0.25"/>
<circle cx="23" cy="23" r="22.5" stroke="url(#paint0_linear_1518_1547)" stroke-opacity="0.2"/>
</g>
<path d="M20 30V20L18 21.875" stroke="white" stroke-opacity="0.7" stroke-width="1.5" stroke-linecap="round" stroke-linejoin="round"/>
<path d="M24 29.3752C24.5223 29.7675 25.1715 30 25.875 30C27.6009 30 29 28.6009 29 26.875C29 25.1491 27.6009 23.75 25.875 23.75C25.1715 23.75 24.5223 23.9825 24 24.3748L24.625 20H29" stroke="white" stroke-opacity="0.7" stroke-width="1.5" stroke-linecap="round" stroke-linejoin="round"/>
<path d="M13.4521 14.4203C7.79726 19.6588 7.4879 28.4595 12.7611 34.0771C18.0343 39.6948 26.8931 40.0021 32.5479 34.7636C38.2027 29.525 38.5121 20.7244 33.2389 15.1067C30.2395 11.9114 26.08 10.4341 22.0099 10.7183M24 7.5L20.4342 10.8777L24 14.5" stroke="white" stroke-opacity="0.7" stroke-width="2.5" stroke-linecap="round" stroke-linejoin="round"/>
<defs>
<filter id="filter0_bi_1518_1547" x="-20" y="-20" width="86" height="86" filterUnits="userSpaceOnUse" color-interpolation-filters="sRGB">
<feFlood flood-opacity="0" result="BackgroundImageFix"/>
<feGaussianBlur in="BackgroundImageFix" stdDeviation="10"/>
<feComposite in2="SourceAlpha" operator="in" result="effect1_backgroundBlur_1518_1547"/>
<feBlend mode="normal" in="SourceGraphic" in2="effect1_backgroundBlur_1518_1547" result="shape"/>
<feColorMatrix in="SourceAlpha" type="matrix" values="0 0 0 0 0 0 0 0 0 0 0 0 0 0 0 0 0 0 127 0" result="hardAlpha"/>
<feMorphology radius="1.46045" operator="dilate" in="SourceAlpha" result="effect2_innerShadow_1518_1547"/>
<feOffset dx="-0.730227" dy="0.730227"/>
<feGaussianBlur stdDeviation="0.365113"/>
<feComposite in2="hardAlpha" operator="arithmetic" k2="-1" k3="1"/>
<feColorMatrix type="matrix" values="0 0 0 0 1 0 0 0 0 1 0 0 0 0 1 0 0 0 0.35 0"/>
<feBlend mode="normal" in2="shape" result="effect2_innerShadow_1518_1547"/>
</filter>
<linearGradient id="paint0_linear_1518_1547" x1="39.8548" y1="4.01613" x2="23" y2="45" gradientUnits="userSpaceOnUse">
<stop stop-color="white"/>
<stop offset="1" stop-color="white" stop-opacity="0"/>
</linearGradient>
</defs>
</svg>
