<svg width="32" height="32" viewBox="0 0 32 32" fill="none" xmlns="http://www.w3.org/2000/svg">
<path d="M24 2.6665V5.33317M8 2.6665V5.33317" stroke="#3A4254" stroke-width="2.5" stroke-linecap="round" stroke-linejoin="round"/>
<path d="M15.9941 17.3335H16.0061M15.9941 22.6668H16.0061M21.3214 17.3335H21.3334M10.6667 17.3335H10.6787M10.6667 22.6668H10.6787" stroke="#3A4254" stroke-width="2.5" stroke-linecap="round" stroke-linejoin="round"/>
<path d="M4.66675 10.6665H27.3334" stroke="#3A4254" stroke-width="2.5" stroke-linecap="round" stroke-linejoin="round"/>
<path d="M3.33325 16.3243C3.33325 10.5146 3.33325 7.60971 5.00275 5.80485C6.67224 4 9.35924 4 14.7333 4H17.2666C22.6406 4 25.3277 4 26.9971 5.80485C28.6666 7.60971 28.6666 10.5146 28.6666 16.3243V17.0091C28.6666 22.8188 28.6666 25.7236 26.9971 27.5285C25.3277 29.3333 22.6406 29.3333 17.2666 29.3333H14.7333C9.35924 29.3333 6.67224 29.3333 5.00275 27.5285C3.33325 25.7236 3.33325 22.8188 3.33325 17.0091V16.3243Z" stroke="#3A4254" stroke-width="2.5" stroke-linecap="round" stroke-linejoin="round"/>
<path d="M4 10.6665H28" stroke="#3A4254" stroke-width="2.5" stroke-linecap="round" stroke-linejoin="round"/>
</svg>
