<svg width="21" height="21" viewBox="0 0 21 21" fill="none" xmlns="http://www.w3.org/2000/svg">
<mask id="mask0_38_1150" style="mask-type:alpha" maskUnits="userSpaceOnUse" x="0" y="0" width="21" height="21">
<rect x="0.883057" y="0.140991" width="20" height="20" fill="#D9D9D9"/>
</mask>
<g mask="url(#mask0_38_1150)">
<path d="M5.89589 15.3077C5.55811 15.3077 5.27707 15.1955 5.05277 14.971C4.82846 14.7466 4.71631 14.4653 4.71631 14.1273V6.14791C4.71631 5.80999 4.82846 5.52992 5.05277 5.3077C5.27707 5.08548 5.55811 4.97437 5.89589 4.97437H15.8701C16.2078 4.97437 16.4889 5.08659 16.7132 5.31103C16.9375 5.53548 17.0496 5.81673 17.0496 6.15478V14.1342C17.0496 14.4721 16.9375 14.7521 16.7132 14.9744C16.4889 15.1966 16.2078 15.3077 15.8701 15.3077H5.89589ZM5.89589 14.641H15.8701C15.9984 14.641 16.116 14.5876 16.2228 14.4808C16.3296 14.374 16.383 14.2564 16.383 14.1281V6.15395C16.383 6.02562 16.3296 5.90805 16.2228 5.80124C16.116 5.69443 15.9984 5.64103 15.8701 5.64103H5.89589C5.76756 5.64103 5.64999 5.69443 5.54318 5.80124C5.43638 5.90805 5.38298 6.02562 5.38298 6.15395V14.1281C5.38298 14.2564 5.43638 14.374 5.54318 14.4808C5.64999 14.5876 5.76756 14.641 5.89589 14.641ZM7.63423 12.2179H9.3236C9.55443 12.2179 9.75423 12.1351 9.92298 11.9694C10.0919 11.8035 10.1763 11.6046 10.1763 11.3727V11.1042H9.51943V11.3077C9.51943 11.3719 9.4927 11.4306 9.43923 11.4839C9.38589 11.5374 9.32714 11.5642 9.26298 11.5642H7.70339C7.63936 11.5642 7.58061 11.5374 7.52714 11.4839C7.47381 11.4306 7.44714 11.3719 7.44714 11.3077V8.97437C7.44714 8.9102 7.47381 8.85145 7.52714 8.79811C7.58061 8.74464 7.63936 8.71791 7.70339 8.71791H9.26589C9.33006 8.71791 9.38888 8.74464 9.44235 8.79811C9.49568 8.85145 9.52235 8.9102 9.52235 8.97437V9.20999H10.1763V8.90124C10.1763 8.66693 10.0944 8.46881 9.93068 8.30687C9.7668 8.14506 9.57034 8.06416 9.34131 8.06416H7.62839C7.39534 8.06416 7.19791 8.14652 7.0361 8.31124C6.87416 8.47596 6.79318 8.67353 6.79318 8.90395V11.3658C6.79318 11.5962 6.87568 11.7959 7.04068 11.9648C7.20554 12.1335 7.40339 12.2179 7.63423 12.2179ZM12.4353 12.2179H14.139C14.3711 12.2179 14.568 12.1351 14.7299 11.9694C14.8918 11.8035 14.9728 11.6046 14.9728 11.3727V11.1042H14.3159V11.3077C14.3159 11.3719 14.2892 11.4306 14.2357 11.4839C14.1824 11.5374 14.1236 11.5642 14.0594 11.5642H12.5001C12.4359 11.5642 12.3771 11.5374 12.3236 11.4839C12.2703 11.4306 12.2436 11.3719 12.2436 11.3077V8.97437C12.2436 8.9102 12.2703 8.85145 12.3236 8.79811C12.3771 8.74464 12.4359 8.71791 12.5001 8.71791H14.0626C14.1266 8.71791 14.1853 8.74464 14.2388 8.79811C14.2921 8.85145 14.3188 8.9102 14.3188 8.97437V9.20999H14.9728V8.90124C14.9728 8.66693 14.8903 8.46881 14.7253 8.30687C14.5604 8.14506 14.3626 8.06416 14.1317 8.06416H12.4423C12.2115 8.06416 12.0117 8.14652 11.843 8.31124C11.6741 8.47596 11.5896 8.67353 11.5896 8.90395V11.3658C11.5896 11.5962 11.6726 11.7959 11.8384 11.9648C12.0042 12.1335 12.2032 12.2179 12.4353 12.2179Z" fill="#1C1B1F"/>
</g>
</svg>
