<svg width="46" height="46" viewBox="0 0 46 46" fill="none" xmlns="http://www.w3.org/2000/svg">
<g clip-path="url(#clip0_971_13392)">
<path d="M5.25308 28.7781C4.81565 28.7971 4.56841 28.2075 4.89173 27.9032L6.13745 26.6575C6.61291 26.182 7.33562 26.9048 6.86016 27.3802L5.61444 28.6259C5.50983 28.7305 5.3767 28.7781 5.25308 28.7781Z" fill="#FFC887"/>
<path d="M2.3527 17.5286H0.593478C-0.0721749 17.5286 -0.0721749 16.5111 0.593478 16.5016H2.36221C3.02787 16.5111 3.02787 17.5286 2.3527 17.5286Z" fill="#FFC887"/>
<path d="M32.4022 17.5286H30.6335C29.9679 17.5286 29.9679 16.5111 30.6335 16.5016H32.4022C33.0679 16.5111 33.0679 17.5286 32.4022 17.5286Z" fill="#FFC887"/>
<path d="M6.49879 7.53426C6.36566 7.53426 6.23253 7.48671 6.13744 7.38211L4.89172 6.13639C4.69202 5.93669 4.69202 5.61337 4.89172 5.41368C5.09141 5.21398 5.41473 5.21398 5.61442 5.41368L6.86015 6.6594C7.18346 6.9637 6.93622 7.54377 6.49879 7.53426Z" fill="#FFC887"/>
<path d="M27.7424 28.7781C27.6093 28.7781 27.4762 28.7305 27.3811 28.6259L26.1354 27.3802C25.9357 27.1805 25.9357 26.8572 26.1354 26.6575C26.3351 26.4578 26.6584 26.4578 26.8581 26.6575L28.1038 27.9032C28.4271 28.2075 28.1799 28.7876 27.7424 28.7781Z" fill="#FFC887"/>
<path d="M16.493 3.3882C16.2077 3.3882 15.9795 3.15998 15.9795 2.8747V1.11547C15.9795 0.83019 16.2077 0.601967 16.493 0.601967C16.7783 0.601967 17.0065 0.83019 17.0065 1.11547V2.8842C17.0065 3.15998 16.7783 3.3882 16.493 3.3882Z" fill="#FFC887"/>
<path d="M24.5855 17.3669C24.4999 20.3909 20.1161 20.3814 20.0305 17.3669H16.417V23.4529C19.479 23.5099 19.4695 27.9603 16.417 28.0078V34.0843H20.6772C20.7723 34.0843 20.8674 34.0938 20.9625 34.1128V31.5453C20.9625 29.7956 21.8183 28.16 23.2542 27.1615C26.3352 24.9934 28.3512 21.4084 28.3322 17.3574H24.5855V17.3669Z" fill="#FFC887"/>
<path d="M22.3032 38.896C22.3032 39.7994 21.571 40.5316 20.6771 40.5316H14.2203C12.2899 40.5031 11.9951 37.7549 13.8684 37.3175C12.1662 36.9561 12.1948 34.4266 13.9255 34.1223C14.0206 34.1033 14.1157 34.0938 14.2203 34.0938H20.6771C22.5885 34.1224 22.9118 36.8705 21.0289 37.308C21.7516 37.4696 22.3032 38.1258 22.3032 38.896Z" fill="#2C9CBD"/>
<path d="M19.9641 40.5316V41.3685C19.9641 42.405 19.1272 43.2418 18.1002 43.2418H14.7339C13.6974 43.2418 12.8606 42.405 12.8606 41.3685V40.5316H19.9641Z" fill="#046C95"/>
<path d="M18.718 25.7256C18.718 26.9999 17.6815 28.0269 16.4073 28.0078V34.0843H12.1471C12.052 34.0843 11.9569 34.0938 11.8618 34.1128V31.5453C11.8618 29.8146 11.0345 28.179 9.61761 27.19C6.50806 25.0314 4.48258 21.4274 4.5016 17.3574H8.24827C8.34337 14.3429 12.7177 14.3525 12.8127 17.3574H16.4168V23.4434C17.6815 23.4339 18.7275 24.4609 18.718 25.7256Z" fill="#FFF2DF"/>
<path d="M18.7181 11.2144C18.7181 12.4886 17.6816 13.5156 16.4073 13.4966V17.3574H12.8033C12.7082 14.343 8.33391 14.3525 8.23881 17.3574H4.49214C4.4541 10.8911 9.95049 5.43272 16.4073 5.48977V8.93215C17.6816 8.92264 18.7276 9.94965 18.7181 11.2144Z" fill="#FFC887"/>
<path d="M41.6435 9.3156L38.0918 10.5199C38.9937 13.4 34.8064 14.8081 33.7721 11.9812L30.3595 13.144L29.1155 9.48315C31.9791 8.45872 30.5441 4.22489 27.645 5.16107L26.5396 1.9016C32.6419 -0.223999 39.5945 3.18459 41.6435 9.3156Z" fill="#43586D"/>
<path d="M15.6656 37.308C15.6656 37.5932 15.4374 37.8215 15.1521 37.8215H12.9935C12.0615 38.8009 12.8413 40.5792 14.2107 40.5316H12.1471C10.2072 40.5031 9.92195 37.7454 11.7858 37.3175C10.0836 36.9656 10.1216 34.4266 11.8428 34.1223C11.976 34.0748 14.011 34.1033 14.2011 34.0938C12.8413 34.0368 12.052 35.8245 12.984 36.804H15.1426C15.4374 36.7945 15.6656 37.0227 15.6656 37.308Z" fill="#046C95"/>
</g>
<defs>
<clipPath id="clip0_971_13392">
<rect width="46" height="46" fill="white"/>
</clipPath>
</defs>
</svg>
