<svg width="40" height="40" viewBox="0 0 40 40" fill="none" xmlns="http://www.w3.org/2000/svg">
<path d="M20.0002 20C12.4426 20 6.04929 24.9403 3.92928 31.74C3.32759 33.6698 3.02674 34.6348 3.78296 35.6507C4.53916 36.6667 5.76869 36.6667 8.22774 36.6667H31.7725C34.2317 36.6667 35.4612 36.6667 36.2173 35.6507C36.9735 34.6348 36.6727 33.6698 36.071 31.74C33.951 24.9403 27.5578 20 20.0002 20Z" stroke="#FD838F" stroke-width="1.5" stroke-linecap="round"/>
<path d="M24.9995 28.3333H25.0145" stroke="#FD838F" stroke-width="2" stroke-linecap="round" stroke-linejoin="round"/>
<path d="M20 36.6667C20 33.9052 17.7615 31.6667 15 31.6667C12.2386 31.6667 10 33.9052 10 36.6667" stroke="#FD838F" stroke-width="1.5" stroke-linecap="round"/>
<path d="M20 20V12.5M20 12.5V8.33334C20 5.97632 20 4.7978 20.7322 4.06557C21.4645 3.33334 22.643 3.33334 25 3.33334H28.75C30.7047 3.33334 31.682 3.33334 32.3552 3.84995C32.5285 3.98295 32.6837 4.1381 32.8167 4.31144C33.3333 4.9847 33.3333 5.96202 33.3333 7.91667C33.3333 9.87132 33.3333 10.8486 32.8167 11.5219C32.6837 11.6952 32.5285 11.8504 32.3552 11.9834C31.682 12.5 30.7047 12.5 28.75 12.5H20Z" stroke="#FD838F" stroke-width="1.5" stroke-linecap="round"/>
</svg>
