<svg width="32" height="32" viewBox="0 0 32 32" fill="none" xmlns="http://www.w3.org/2000/svg">
<path d="M26.6667 11.9998C25.6065 6.6859 20.6838 2.6665 14.7725 2.6665C8.0874 2.6665 2.66675 7.80678 2.66675 14.1465C2.66675 17.1926 3.91767 19.9604 5.95815 22.0142C6.4074 22.4665 6.70735 23.0844 6.58629 23.7202C6.38651 24.76 5.93376 25.7298 5.27081 26.5381C7.01505 26.8597 8.82871 26.5701 10.3841 25.7501C10.9339 25.4604 11.2088 25.3154 11.4028 25.286C11.5386 25.2654 11.7155 25.2846 12.0001 25.3334" stroke="white" stroke-width="1.5" stroke-linecap="round" stroke-linejoin="round"/>
<path d="M14.6667 21.6821C14.6667 25.5564 17.9505 28.6977 22.0001 28.6977C22.4762 28.6982 22.951 28.6542 23.4187 28.5665C23.7554 28.5032 23.9238 28.4716 24.0413 28.4896C24.1587 28.5074 24.3254 28.5961 24.6585 28.7732C25.6006 29.2742 26.6993 29.4512 27.7559 29.2546C27.3543 28.7608 27.0801 28.1681 26.959 27.5326C26.8857 27.1441 27.0674 26.7665 27.3395 26.4901C28.5757 25.2349 29.3334 23.5436 29.3334 21.6821C29.3334 17.8078 26.0497 14.6665 22.0001 14.6665C17.9505 14.6665 14.6667 17.8078 14.6667 21.6821Z" stroke="white" stroke-width="1.5" stroke-linejoin="round"/>
</svg>
