<svg width="42" height="42" viewBox="0 0 42 42" fill="none" xmlns="http://www.w3.org/2000/svg">
<path d="M36.032 0C36.3718 0 36.6472 0.275461 36.6472 0.615234V3.1112C36.6472 3.45097 36.3718 3.72643 36.032 3.72643C35.6921 3.72643 35.4167 3.45097 35.4167 3.1112V0.615234C35.4167 0.275461 35.6921 0 36.032 0Z" fill="#FDAD12"/>
<path d="M32.0044 9.67337C31.8611 9.13672 31.7595 8.5858 31.7595 8.10271C31.7595 5.11243 34.458 3.43522 35.5657 2.87273C35.8594 2.7236 36.2042 2.7236 36.4979 2.87273C37.6057 3.43514 40.3044 5.11235 40.3044 8.10271C40.3044 8.58588 40.2026 9.13672 40.0593 9.67337H32.0044Z" fill="#2C9CBD"/>
<path d="M35.5656 2.87265C35.8593 2.72352 36.204 2.72352 36.4977 2.87265C36.7145 2.98274 36.9927 3.13622 37.2993 3.33318C36.0397 4.14266 34.2945 5.69764 34.2945 8.10264C34.2945 8.5858 34.3961 9.13664 34.5395 9.67329H32.0043C31.861 9.13664 31.7593 8.58572 31.7593 8.10264C31.7593 5.11235 34.4578 3.43522 35.5656 2.87265Z" fill="#046C95"/>
<path d="M39.8347 11.4781H32.2291V29.7292H39.8347V11.4781Z" fill="#FFF2DF"/>
<path d="M34.7644 11.4781H32.2292V29.7292H34.7644V11.4781Z" fill="#EBD3B0"/>
<path d="M31.7385 12.0687H40.325C40.6142 12.0687 40.8486 11.8342 40.8486 11.5451V10.0571C40.8486 9.76795 40.6142 9.53351 40.325 9.53351H31.7385C31.4493 9.53351 31.2149 9.76795 31.2149 10.0571V11.5451C31.2148 11.8342 31.4492 12.0687 31.7385 12.0687Z" fill="#03618F"/>
<path d="M31.7387 9.53343H34.2739C33.9848 9.53343 33.7502 9.76788 33.7502 10.057V11.545C33.7502 11.8342 33.9847 12.0686 34.2739 12.0686H31.7387C31.4496 12.0686 31.2151 11.8342 31.2151 11.545V10.057C31.2151 9.76788 31.4495 9.53343 31.7387 9.53343Z" fill="#032950"/>
<path d="M13.1469 7.91977H16.3582L15.9056 4.53459C15.8283 3.95684 15.3354 3.52536 14.7525 3.52536C14.1696 3.52536 13.6766 3.95676 13.5994 4.53459L13.1469 7.91977Z" fill="#FDAD12"/>
<path d="M3.759 24.9133C3.36787 23.4782 3.09036 22.0049 3.09036 20.7129C3.09036 12.7159 10.4561 8.23061 13.4798 6.72632C14.2814 6.32749 15.2225 6.32749 16.0241 6.72624C19.0479 8.23053 26.4143 12.7158 26.4143 20.7129C26.4143 22.005 26.1363 23.4781 25.7452 24.9133H3.759Z" fill="#2C9CBD"/>
<path d="M13.4799 6.72623C14.2801 6.32813 15.2191 6.32755 16.0198 6.72409C16.0183 6.72483 16.0167 6.72549 16.0152 6.72623C12.9915 8.2306 5.62576 12.7158 5.62576 20.7129C5.62576 22.0049 5.90327 23.4782 6.2944 24.9133H3.75922C3.36809 23.4782 3.09058 22.0049 3.09058 20.7129C3.0905 12.7158 10.4563 8.2306 13.4799 6.72623Z" fill="#046C95"/>
<path d="M1.82896 30.2503H27.6763V26.1928C27.6763 25.4861 27.1034 24.9133 26.3967 24.9133H3.10848C2.40178 24.9133 1.82896 25.4861 1.82896 26.1928V30.2503Z" fill="#FFF2DF"/>
<path d="M3.10813 24.9133H5.64331C4.93661 24.9133 4.36379 25.4861 4.36379 26.1928V30.2503H1.82861V26.1928C1.82861 25.4861 2.40152 24.9133 3.10813 24.9133Z" fill="#EBD3B0"/>
<path d="M36.0322 18.6124C36.7322 18.6124 37.2998 18.0449 37.2998 17.3448V15.9926C37.2998 15.2926 36.7323 14.725 36.0322 14.725C35.3321 14.725 34.7645 15.2925 34.7645 15.9926V17.3448C34.7645 18.0449 35.332 18.6124 36.0322 18.6124Z" fill="#001937"/>
<path d="M36.0322 25.9704C36.7322 25.9704 37.2998 25.4029 37.2998 24.7027V23.3506C37.2998 22.6506 36.7323 22.083 36.0322 22.083C35.3321 22.083 34.7645 22.6505 34.7645 23.3506V24.7027C34.7645 25.4028 35.332 25.9704 36.0322 25.9704Z" fill="#001937"/>
<path d="M0.328125 42H41.6719C41.8531 42 42 41.8531 42 41.6719V29.7293H0V41.6719C0 41.8531 0.146919 42 0.328125 42Z" fill="#FFF2DF"/>
<path d="M2.53516 29.7293V42H0.328106C0.146899 42 -1.93119e-05 41.8531 -1.93119e-05 41.6719V29.7293H2.53516Z" fill="#EBD3B0"/>
<path d="M0 31.6739H42V29.4767C42 29.29 41.8487 29.1386 41.6619 29.1386H0.337967C0.151264 29.1386 -8.01086e-05 29.29 -8.01086e-05 29.4767L0 31.6739Z" fill="#FBC254"/>
<path d="M2.53516 29.1386V31.6738H-1.93119e-05V29.4766C-1.93119e-05 29.2899 0.151329 29.1386 0.338032 29.1386L2.53516 29.1386Z" fill="#FDAD12"/>
<path d="M28.5438 37.1333V42H34.6133V37.1333C34.6133 35.4573 33.2546 34.0986 31.5785 34.0986C29.9025 34.0986 28.5438 35.4573 28.5438 37.1333Z" fill="#001937"/>
<path d="M17.9653 37.1333V42H24.0349V37.1333C24.0349 35.4573 22.6762 34.0986 21.0002 34.0986C19.324 34.0986 17.9653 35.4573 17.9653 37.1333Z" fill="#001937"/>
<path d="M7.38705 37.1333V42H13.4565V37.1333C13.4565 35.4573 12.0979 34.0986 10.4218 34.0986C8.74573 34.0986 7.38705 35.4573 7.38705 37.1333Z" fill="#001937"/>
</svg>
