<svg width="72" height="72" viewBox="0 0 72 72" fill="none" xmlns="http://www.w3.org/2000/svg">
<g opacity="0.5" clip-path="url(#clip0_1645_1972)">
<path d="M35.999 1.05957C35.999 1.05957 36.8753 3.4684 43.3374 3.4684C49.7995 3.4684 60.3067 -1.89135 60.5289 11.4673C73.8891 11.6894 68.5275 22.2663 68.5275 28.6592C68.5275 35.0522 70.9363 35.9978 70.9363 35.9978C70.9363 35.9978 68.5275 36.8741 68.5275 43.3364C68.5275 49.7987 73.8891 60.3062 60.5289 60.5284C60.3067 73.889 49.7302 68.5272 43.3374 68.5272C36.9446 68.5272 35.999 70.9361 35.999 70.9361C35.999 70.9361 35.1227 68.5272 28.6606 68.5272C22.1986 68.5272 11.6913 73.889 11.4692 60.5284C-1.89111 60.3062 3.47053 49.7294 3.47053 43.3364C3.47053 36.9434 1.06177 35.9978 1.06177 35.9978C1.06177 35.9978 3.47053 35.1215 3.47053 28.6592C3.47053 22.197 -1.89111 11.6914 11.4692 11.4693C11.6913 -1.89135 22.2678 3.47044 28.6606 3.47044C35.0534 3.47044 35.999 1.06161 35.999 1.06161V1.05957Z" fill="#F7F9FD"/>
<path d="M35.9886 71.9994C35.5525 71.9994 35.1755 71.7018 35.0268 71.2922C35.0206 71.2922 34.0465 69.562 28.6604 69.562C27.3623 69.562 25.8482 69.8025 24.2464 70.0552C20.4967 70.6503 16.2478 71.3248 13.4029 68.9363C11.634 67.4507 10.6701 65.0215 10.4704 61.5264C6.97547 61.3267 4.54633 60.3628 3.06072 58.5939C0.672338 55.751 1.34687 51.4998 1.94193 47.748C2.19666 46.1462 2.4351 44.632 2.4351 43.3339C2.4351 37.8987 0.672338 36.9551 0.653997 36.947C0.244385 36.7982 -0.00219727 36.4192 -0.00219727 35.9851C-0.00219727 35.551 0.295332 35.172 0.704944 35.0232C0.694754 35.0232 2.4351 34.0592 2.4351 28.6567C2.4351 27.3585 2.19463 25.8444 1.94193 24.2426C1.34687 20.4928 0.674376 16.2416 3.06072 13.3967C4.54633 11.6278 6.97547 10.6638 10.4704 10.4641C10.6701 6.96908 11.634 4.53987 13.4029 3.05422C16.2457 0.665765 20.4988 1.34032 24.2485 1.93336C25.8523 2.1881 27.3644 2.42653 28.6625 2.42653C34.0975 2.42653 35.041 0.665765 35.0492 0.647424C35.1979 0.2378 35.5749 -0.00878906 36.011 -0.00878906C36.4308 -0.00878906 36.7956 0.266331 36.9546 0.6515C37.0177 0.761548 38.055 2.4245 43.3372 2.4245C44.6353 2.4245 46.1474 2.18402 47.7512 1.93132C51.5029 1.33624 55.7519 0.663727 58.5968 3.05218C60.3656 4.53783 61.3295 6.96704 61.5293 10.4621C65.0242 10.6618 67.4533 11.6257 68.9389 13.3947C71.3253 16.2376 70.6528 20.4887 70.0577 24.2405C69.803 25.8423 69.5646 27.3565 69.5646 28.6547C69.5646 34.0898 71.3273 35.0334 71.3436 35.0415C71.7533 35.1903 71.9998 35.5694 71.9998 36.0034C71.9998 36.4375 71.7023 36.8166 71.2927 36.9653C71.3029 36.9653 69.5625 37.9293 69.5625 43.3318C69.5625 44.63 69.803 46.1421 70.0557 47.746C70.6508 51.4958 71.3233 55.7469 68.9369 58.5918C67.4513 60.3608 65.0222 61.3247 61.5272 61.5244C61.3275 65.0195 60.3636 67.4487 58.5947 68.9343C55.7499 71.3228 51.5009 70.6482 47.7512 70.0531C46.1474 69.7984 44.6353 69.56 43.3372 69.56C37.9022 69.56 36.9587 71.3228 36.9505 71.3391C36.8017 71.7487 36.4227 71.9953 35.9886 71.9953V71.9994ZM28.6625 67.4955C32.8401 67.4955 34.9534 68.488 36.0009 69.3541C37.0483 68.488 39.1596 67.4955 43.3392 67.4955C44.8004 67.4955 46.392 67.7482 48.0773 68.0152C51.5518 68.5675 55.1466 69.1361 57.2681 67.3549C58.7109 66.1424 59.4404 63.9047 59.4975 60.5136C59.5077 59.9552 59.956 59.5048 60.5144 59.4967C63.9054 59.4396 66.143 58.71 67.3555 57.2672C69.1366 55.1457 68.566 51.5528 68.0158 48.0761C67.7488 46.3908 67.4961 44.7991 67.4961 43.3379C67.4961 39.1581 68.4886 37.0469 69.3547 35.9994C68.4886 34.9519 67.4961 32.8406 67.4961 28.6608C67.4961 27.1996 67.7488 25.608 68.0158 23.9226C68.566 20.4479 69.1366 16.853 67.3555 14.7315C66.143 13.2887 63.9054 12.5591 60.5144 12.5021C59.956 12.4919 59.5056 12.0415 59.4975 11.4851C59.4404 8.09401 58.7129 5.85637 57.2681 4.6438C55.1466 2.86265 51.5539 3.43327 48.0773 3.98351C46.392 4.25048 44.8004 4.50318 43.3392 4.50318C39.1616 4.50318 37.0483 3.51071 36.0009 2.64459C34.9534 3.51071 32.8422 4.50318 28.6625 4.50318C27.2013 4.50318 25.6098 4.25048 23.9244 3.98351C20.4499 3.43327 16.8551 2.86265 14.7336 4.6438C13.2908 5.85637 12.5613 8.09401 12.5042 11.4851C12.494 12.0435 12.0437 12.4939 11.4873 12.5021C8.0963 12.5591 5.85872 13.2867 4.64618 14.7315C2.86509 16.853 3.43569 20.4459 3.98591 23.9226C4.25288 25.608 4.50557 27.1996 4.50557 28.6608C4.50557 32.8385 3.51313 34.9519 2.64703 35.9994C3.51313 37.0469 4.50557 39.1581 4.50557 43.3379C4.50557 44.7991 4.25288 46.3908 3.98591 48.0761C3.43569 51.5508 2.86509 55.1457 4.64618 57.2672C5.85872 58.7121 8.0963 59.4417 11.4873 59.4967C12.0457 59.5069 12.4961 59.9572 12.5042 60.5136C12.5613 63.9047 13.2888 66.1424 14.7336 67.3549C16.853 69.1361 20.4478 68.5655 23.9244 68.0152C25.6098 67.7482 27.2013 67.4955 28.6625 67.4955Z" fill="#F9A353"/>
<path d="M35.999 67.0702C35.9582 67.0702 35.9175 67.06 35.8788 67.0417C34.0773 66.1022 31.6481 65.6253 28.6606 65.6253C27.0487 65.6253 25.3104 65.9004 23.6291 66.1674C22.0151 66.4221 20.3482 66.6871 18.9155 66.6871C16.8186 66.6871 14.4791 66.6871 14.3752 60.4836C14.3487 58.9063 13.0933 57.6509 11.5181 57.6244C8.77916 57.5775 6.89821 57.0375 6.07898 56.0634C4.84607 54.5961 5.37184 51.2885 5.83444 48.3702C6.1014 46.6869 6.37651 44.9485 6.37651 43.3385C6.37651 40.3509 5.89965 37.9217 4.96019 36.1202C4.92147 36.0448 4.92147 35.9551 4.96019 35.8797C5.89965 34.0782 6.37651 31.649 6.37651 28.6614C6.37651 27.0494 6.1014 25.311 5.83444 23.6297C5.37184 20.7094 4.84811 17.4039 6.07898 15.9366C6.89821 14.9604 8.77916 14.4203 11.5181 14.3755C13.0954 14.349 14.3507 13.0936 14.3772 11.5163C14.4811 5.31284 16.8389 5.31284 18.9176 5.31284C20.3502 5.31284 22.0172 5.57777 23.6312 5.83251C25.3144 6.09948 27.0527 6.3746 28.6627 6.3746C31.6502 6.3746 34.0793 5.89772 35.8808 4.95824C35.9562 4.91952 36.0459 4.91952 36.1213 4.95824C37.9207 5.89772 40.3499 6.3746 43.3394 6.3746C44.9493 6.3746 46.6876 6.09948 48.3709 5.83251C49.9849 5.57777 51.6519 5.31284 53.0845 5.31284C55.1652 5.31284 57.523 5.31284 57.6249 11.5163C57.6514 13.0936 58.9067 14.349 60.484 14.3755C63.2229 14.4224 65.1039 14.9604 65.9231 15.9366C67.154 17.4039 66.6302 20.7094 66.1697 23.6257C65.9027 25.311 65.6256 27.0494 65.6256 28.6614C65.6256 31.649 66.1024 34.0782 67.0419 35.8797C67.0806 35.9551 67.0806 36.0448 67.0419 36.1202C66.1024 37.9217 65.6256 40.3509 65.6256 43.3385C65.6256 44.9485 65.9007 46.6869 66.1676 48.3702C66.6302 51.2885 67.154 54.5961 65.9231 56.0634C65.1039 57.0395 63.2229 57.5796 60.484 57.6244C58.9067 57.6509 57.6514 58.9063 57.6249 60.4836C57.5209 66.6871 55.1652 66.6871 53.0845 66.6871C51.6519 66.6871 49.9849 66.4221 48.3709 66.1674C46.6897 65.9004 44.9514 65.6253 43.3394 65.6253C40.3499 65.6253 37.9207 66.1022 36.1213 67.0417C36.0846 67.0621 36.0418 67.0702 36.001 67.0702H35.999ZM28.6627 65.1057C31.6685 65.1057 34.1364 65.5805 36.001 66.52C37.8637 65.5805 40.3315 65.1057 43.3394 65.1057C44.9921 65.1057 46.7508 65.3848 48.4524 65.6539C50.046 65.9066 51.6926 66.1674 53.0845 66.1674C55.1061 66.1674 57.0135 66.1674 57.1073 60.4734C57.1378 58.6169 58.6173 57.1374 60.4738 57.1068C63.0578 57.064 64.8043 56.5871 65.5257 55.7291C66.6058 54.4432 66.1004 51.2579 65.6561 48.4497C65.3871 46.748 65.1079 44.9872 65.1079 43.3365C65.1079 40.3285 65.5828 37.8606 66.5222 35.9979C65.5828 34.1353 65.1079 31.6673 65.1079 28.6593C65.1079 27.0066 65.3871 25.2479 65.6561 23.5462C66.1024 20.7338 66.6058 17.5526 65.5257 16.2667C64.8063 15.4087 63.0599 14.9339 60.4738 14.8911C58.6173 14.8605 57.1378 13.381 57.1073 11.5244C57.0115 5.83047 55.104 5.83047 53.0825 5.83047C51.6906 5.83047 50.044 6.09133 48.4504 6.34403C46.7488 6.61304 44.988 6.89223 43.3394 6.89223C40.3315 6.89223 37.8637 6.4174 36.001 5.47791C34.1384 6.4174 31.6706 6.89223 28.6627 6.89223C27.012 6.89223 25.2533 6.61304 23.5517 6.34403C21.9581 6.09133 20.3115 5.83047 18.9196 5.83047C16.898 5.83047 14.9906 5.83047 14.8948 11.5244C14.8642 13.381 13.3847 14.8605 11.5282 14.8911C8.94423 14.9339 7.19777 15.4108 6.47841 16.2667C5.39833 17.5526 5.90169 20.7338 6.34798 23.5421C6.61902 25.2479 6.89821 27.0066 6.89821 28.6593C6.89821 31.6673 6.42338 34.1353 5.48392 35.9979C6.42338 37.8606 6.89821 40.3285 6.89821 43.3365C6.89821 44.9872 6.61902 46.746 6.35002 48.4476C5.90373 51.2579 5.39833 54.4412 6.48044 55.7271C7.19981 56.5851 8.94831 57.0619 11.5323 57.1047C13.3888 57.1353 14.8683 58.6149 14.8989 60.4714C14.9947 66.1654 16.8858 66.1654 18.8911 66.1654C20.3135 66.1654 21.9621 65.9045 23.5537 65.6518C25.2553 65.3828 27.014 65.1036 28.6667 65.1036L28.6627 65.1057Z" fill="#F9A353"/>
</g>
<path d="M42 38H33V55H42V38Z" fill="#FCFCFF"/>
<path d="M49.0711 17.5199C49.0711 18.1168 48.5946 18.599 48.0048 18.599C47.415 18.599 46.9385 18.1168 46.9385 17.5199C46.9385 16.9231 47.415 16.4409 48.0048 16.4409C48.5946 16.4409 49.0711 16.9231 49.0711 17.5199Z" fill="#696D78"/>
<path d="M29.3378 18.1168C29.6011 18.6496 29.3878 19.3004 28.8613 19.5668C28.3348 19.8332 27.6917 19.6174 27.4285 19.0846C27.1652 18.5518 27.3785 17.901 27.905 17.6346C28.4314 17.3683 29.0746 17.5841 29.3378 18.1168Z" fill="#696D78"/>
<path d="M52.9799 33.965C53.2431 34.4977 53.0299 35.1485 52.5034 35.4149C51.9769 35.6813 51.3338 35.4655 51.0705 34.9327C50.8073 34.4 51.0206 33.7492 51.5471 33.4828C52.0735 33.2164 52.7167 33.4322 52.9799 33.965Z" fill="#696D78"/>
<path d="M57.1517 23.6131C57.3383 23.9908 57.1883 24.4494 56.8151 24.6382C56.4419 24.827 55.9887 24.6753 55.8021 24.2976C55.6155 23.92 55.7655 23.4614 56.1387 23.2726C56.5119 23.0837 56.9651 23.2355 57.1517 23.6131Z" fill="#696D78"/>
<path d="M27.2352 37.0941C27.4218 37.4717 27.2718 37.9303 26.8986 38.1192C26.5254 38.308 26.0722 38.1563 25.8856 37.7786C25.699 37.4009 25.849 36.9423 26.2222 36.7535C26.5954 36.5647 27.0486 36.7164 27.2352 37.0941Z" fill="#696D78"/>
<path d="M20.441 31.598C20.6276 31.9757 20.4776 32.4342 20.1044 32.6231C19.7312 32.8119 19.278 32.6602 19.0914 32.2825C18.9048 31.9048 19.0548 31.4463 19.428 31.2574C19.8012 31.0686 20.2544 31.2203 20.441 31.598Z" fill="#F9A353"/>
<path d="M58.8345 31.0147C58.9911 31.3317 58.8644 31.7127 58.5512 31.8712C58.238 32.0297 57.8615 31.9016 57.7048 31.5846C57.5482 31.2676 57.6749 30.8866 57.9881 30.7281C58.3013 30.5696 58.6812 30.6978 58.8345 31.0147Z" fill="#F9A353"/>
<path d="M19.7578 22.2374C19.9144 22.5543 19.7878 22.9354 19.4746 23.0939C19.1613 23.2523 18.7848 23.1242 18.6282 22.8072C18.4716 22.4903 18.5982 22.1092 18.9114 21.9508C19.2246 21.7923 19.6045 21.9204 19.7578 22.2374Z" fill="#696D78"/>
<path d="M45.0692 32.994C46.6053 27.9327 42.4967 26.4456 42.4967 26.4456C40.9539 25.8184 39.6244 24.6652 38.5214 23.3737L38.4981 22.6892C38.798 22.6151 39.0079 22.4262 39.0079 22.2104C39.0079 21.9946 38.7813 21.7957 38.4648 21.7249L38.4348 20.8583C38.4714 20.8583 38.5114 20.865 38.5481 20.865C40.1675 20.865 41.5837 20.0018 42.3868 18.7103C41.8736 18.916 41.3138 19.0307 40.7273 19.0307C38.2215 19.0307 36.1922 16.9737 36.1922 14.4414C36.1922 13.5445 36.4488 12.7116 36.8887 12.0068C35.2059 12.6779 34.013 14.3335 34.013 16.2758C34.013 18.6125 35.739 20.5345 37.9683 20.8245L37.9383 21.7282C37.6217 21.799 37.3951 21.9879 37.3951 22.2138C37.3951 22.4397 37.6084 22.6184 37.905 22.6926L37.8816 23.3771C36.7787 24.672 35.4491 25.8218 33.9063 26.449C33.9063 26.449 29.7977 27.9327 31.3339 32.9974H30.0776V55.1681H34.4328V43.4774C34.5328 41.6465 36.2422 40.935 36.2422 40.935C37.0153 40.5303 37.6651 39.8526 38.2015 39.0804C38.738 39.8492 39.3878 40.5303 40.1609 40.935C40.1609 40.935 41.8703 41.6465 41.9703 43.4774V55.1681H46.3254V32.994H45.0692Z" fill="#F9A353"/>
<path d="M45.6889 31.9419H30.5474V33.1423H45.6889V31.9419Z" fill="#696D78"/>
<g style="mix-blend-mode:multiply" opacity="0.21">
<path d="M30.9807 42.0275C30.6374 41.4272 30.3375 40.8203 30.0776 40.21V55.1613H34.4328V46.3132C33.1499 45.187 31.957 43.737 30.9807 42.0275Z" fill="#696D78"/>
<path d="M45.0692 32.994C46.6053 27.9327 42.4967 26.4456 42.4967 26.4456C40.9539 25.8184 39.6244 24.6652 38.5214 23.3737L38.4981 22.6892C38.798 22.6151 39.0079 22.4262 39.0079 22.2104C39.0079 21.9946 38.7813 21.7957 38.4648 21.7249L38.4348 20.8583C38.4714 20.8583 38.5114 20.865 38.5481 20.865C40.1675 20.865 41.5837 20.0018 42.3868 18.7103C41.8736 18.916 41.3138 19.0307 40.7273 19.0307C38.2215 19.0307 36.1922 16.9737 36.1922 14.4414C36.1922 13.5445 36.4488 12.7116 36.8886 12.0068C35.2059 12.6779 34.0129 14.3335 34.0129 16.2758C34.0129 18.6125 35.739 20.5345 37.9683 20.8245L37.9383 21.7282C37.6217 21.799 37.3951 21.9879 37.3951 22.2138C37.3951 22.4397 37.6084 22.6184 37.905 22.6926L37.8816 23.3771C36.7787 24.672 35.4491 25.8218 33.9063 26.449C33.9063 26.449 32.5334 26.948 31.6704 28.3474C35.1559 26.3815 40.4807 29.187 43.603 34.6564C46.7419 40.1594 46.462 46.2694 42.9766 48.3061C42.6567 48.4916 42.3201 48.6399 41.9702 48.7445V55.1647H46.3254V32.994H45.0692Z" fill="#696D78"/>
</g>
<path d="M23.2633 39.431C22.3269 38.6183 21.5439 37.4988 21.1507 36.6626C20.7575 37.4988 19.9744 38.6183 19.0381 39.431C16.6789 40.0245 14.9961 41.5857 14.9961 43.4167C14.9961 43.9966 15.7558 44.435 16.8921 44.7283V54.8038H19.7978V49.7391C19.8344 49.0816 20.4476 48.8287 20.4476 48.8287C20.7241 48.6837 20.9574 48.4409 21.1507 48.1644C21.3439 48.4409 21.5772 48.6837 21.8538 48.8287C21.8538 48.8287 22.4669 49.0849 22.5035 49.7391V54.8038H25.4092V44.7283C26.5488 44.435 27.3052 44 27.3052 43.4167C27.3052 41.5857 25.6225 40.0245 23.2633 39.431ZM18.9781 45.5781H17.9518V42.8164C17.9518 42.5298 18.1817 42.2972 18.4649 42.2972C18.7482 42.2972 18.9781 42.5298 18.9781 42.8164V45.5781ZM20.7675 45.5781H19.7411V42.8164C19.7411 42.5298 19.9711 42.2972 20.2543 42.2972C20.5375 42.2972 20.7675 42.5298 20.7675 42.8164V45.5781ZM22.5602 45.5781H21.5339V42.8164C21.5339 42.5298 21.7638 42.2972 22.047 42.2972C22.3303 42.2972 22.5602 42.5298 22.5602 42.8164V45.5781ZM24.3529 45.5781H23.3266V42.8164C23.3266 42.5298 23.5565 42.2972 23.8398 42.2972C24.123 42.2972 24.3529 42.5298 24.3529 42.8164V45.5781Z" fill="#F9A353"/>
<g style="mix-blend-mode:color-dodge" opacity="0.21">
<path d="M22.7068 54.8037C23.2433 53.5426 23.5432 50.5213 23.5432 49.0242C23.5432 47.3955 23.1866 45.8646 22.5602 44.5226V45.578H21.5339V42.8164C21.5339 42.8164 21.5339 42.813 21.5339 42.8096C20.5275 41.4642 19.198 40.4459 17.6852 39.9131C16.0624 40.6785 14.9961 41.9599 14.9961 43.4166C14.9961 43.9965 15.7558 44.4349 16.8921 44.7283V54.8037H22.7035H22.7068ZM19.7445 42.8164C19.7445 42.5297 19.9744 42.2971 20.2576 42.2971C20.5409 42.2971 20.7708 42.5297 20.7708 42.8164V45.578H19.7445V42.8164ZM17.9518 42.8164C17.9518 42.5297 18.1817 42.2971 18.4649 42.2971C18.7482 42.2971 18.9781 42.5297 18.9781 42.8164V45.578H17.9518V42.8164Z" fill="#696D78"/>
</g>
<path d="M25.779 45.4199H16.6155V46.4517H25.779V45.4199Z" fill="#696D78"/>
<path d="M57.7281 39.431C56.7918 38.6183 56.0087 37.4988 55.6155 36.6626C55.2223 37.4988 54.4392 38.6183 53.5029 39.431C51.1437 40.0245 49.4609 41.5857 49.4609 43.4167C49.4609 43.9966 50.2207 44.435 51.357 44.7283V54.8038H54.2626V49.7391C54.2993 49.0816 54.9124 48.8287 54.9124 48.8287C55.189 48.6837 55.4222 48.4409 55.6155 48.1644C55.8088 48.4409 56.042 48.6837 56.3186 48.8287C56.3186 48.8287 56.9317 49.0849 56.9684 49.7391V54.8038H59.8741V44.7283C61.0137 44.435 61.7701 44 61.7701 43.4167C61.7701 41.5857 60.0873 40.0245 57.7281 39.431ZM53.4429 45.5781H52.4166V42.8164C52.4166 42.5298 52.6465 42.2972 52.9298 42.2972C53.213 42.2972 53.4429 42.5298 53.4429 42.8164V45.5781ZM55.2356 45.5781H54.2093V42.8164C54.2093 42.5298 54.4392 42.2972 54.7225 42.2972C55.0057 42.2972 55.2356 42.5298 55.2356 42.8164V45.5781ZM57.0284 45.5781H56.002V42.8164C56.002 42.5298 56.232 42.2972 56.5152 42.2972C56.7984 42.2972 57.0284 42.5298 57.0284 42.8164V45.5781ZM58.8211 45.5781H57.7948V42.8164C57.7948 42.5298 58.0247 42.2972 58.3079 42.2972C58.5912 42.2972 58.8211 42.5298 58.8211 42.8164V45.5781Z" fill="#F9A353"/>
<g style="mix-blend-mode:color-dodge" opacity="0.21">
<path d="M57.1716 54.8037C57.7081 53.5426 58.008 50.5213 58.008 49.0242C58.008 47.3955 57.6515 45.8646 57.025 44.5226V45.578H55.9987V42.8164C55.9987 42.8164 55.9987 42.813 55.9987 42.8096C54.9924 41.4642 53.6628 40.4459 52.15 39.9131C50.5272 40.6785 49.4609 41.9599 49.4609 43.4166C49.4609 43.9965 50.2207 44.4349 51.357 44.7283V54.8037H57.1683H57.1716ZM54.2093 42.8164C54.2093 42.5297 54.4392 42.2971 54.7225 42.2971C55.0057 42.2971 55.2356 42.5297 55.2356 42.8164V45.578H54.2093V42.8164ZM52.4166 42.8164C52.4166 42.5297 52.6465 42.2971 52.9298 42.2971C53.213 42.2971 53.4429 42.5297 53.4429 42.8164V45.578H52.4166V42.8164Z" fill="#696D78"/>
</g>
<path d="M60.2441 45.4199H51.0806V46.4517H60.2441V45.4199Z" fill="#696D78"/>
<path d="M24.3929 24.7158C25.0161 25.7072 25.0227 26.9919 24.3929 27.9833C23.7632 26.9919 23.7698 25.7072 24.3929 24.7158Z" fill="#F9A353"/>
<path d="M26.0089 26.3514C25.0293 26.982 23.7597 26.9887 22.78 26.3514C23.7597 25.7141 25.0293 25.7209 26.0089 26.3514Z" fill="#F9A353"/>
<path d="M49.0712 26.8604C49.6943 27.8517 49.7009 29.1364 49.0712 30.1278C48.4414 29.1364 48.448 27.8517 49.0712 26.8604Z" fill="#F9A353"/>
<path d="M50.684 28.496C49.7043 29.1265 48.4347 29.1333 47.4551 28.496C48.4347 27.8587 49.7043 27.8654 50.684 28.496Z" fill="#F9A353"/>
<defs>
<clipPath id="clip0_1645_1972">
<rect width="72" height="72" fill="white"/>
</clipPath>
</defs>
</svg>
