<svg width="46" height="46" viewBox="0 0 46 46" fill="none" xmlns="http://www.w3.org/2000/svg">
<g filter="url(#filter0_bi_1518_1541)">
<circle cx="23" cy="23" r="22" fill="black" fill-opacity="0.25"/>
<circle cx="23" cy="23" r="22.5" stroke="url(#paint0_linear_1518_1541)" stroke-opacity="0.2"/>
</g>
<path d="M20 29V19L18 20.875" stroke="white" stroke-opacity="0.7" stroke-width="1.5" stroke-linecap="round" stroke-linejoin="round"/>
<path d="M24 28.3752C24.5223 28.7675 25.1715 29 25.875 29C27.6009 29 29 27.6009 29 25.875C29 24.1491 27.6009 22.75 25.875 22.75C25.1715 22.75 24.5223 22.9825 24 23.3748L24.625 19H29" stroke="white" stroke-opacity="0.7" stroke-width="1.5" stroke-linecap="round" stroke-linejoin="round"/>
<path d="M32.5479 13.4203C38.2027 18.6588 38.5121 27.4595 33.2389 33.0771C27.9657 38.6948 19.1069 39.0021 13.4521 33.7636C7.79726 28.525 7.48791 19.7244 12.7611 14.1067C15.7605 10.9114 19.92 9.43414 23.9901 9.71831M22 6.5L25.5658 9.87773L22 13.5" stroke="white" stroke-opacity="0.7" stroke-width="2.5" stroke-linecap="round" stroke-linejoin="round"/>
<defs>
<filter id="filter0_bi_1518_1541" x="-20" y="-20" width="86" height="86" filterUnits="userSpaceOnUse" color-interpolation-filters="sRGB">
<feFlood flood-opacity="0" result="BackgroundImageFix"/>
<feGaussianBlur in="BackgroundImageFix" stdDeviation="10"/>
<feComposite in2="SourceAlpha" operator="in" result="effect1_backgroundBlur_1518_1541"/>
<feBlend mode="normal" in="SourceGraphic" in2="effect1_backgroundBlur_1518_1541" result="shape"/>
<feColorMatrix in="SourceAlpha" type="matrix" values="0 0 0 0 0 0 0 0 0 0 0 0 0 0 0 0 0 0 127 0" result="hardAlpha"/>
<feMorphology radius="1.46045" operator="dilate" in="SourceAlpha" result="effect2_innerShadow_1518_1541"/>
<feOffset dx="-0.730227" dy="0.730227"/>
<feGaussianBlur stdDeviation="0.365113"/>
<feComposite in2="hardAlpha" operator="arithmetic" k2="-1" k3="1"/>
<feColorMatrix type="matrix" values="0 0 0 0 1 0 0 0 0 1 0 0 0 0 1 0 0 0 0.35 0"/>
<feBlend mode="normal" in2="shape" result="effect2_innerShadow_1518_1541"/>
</filter>
<linearGradient id="paint0_linear_1518_1541" x1="39.8548" y1="4.01613" x2="23" y2="45" gradientUnits="userSpaceOnUse">
<stop stop-color="white"/>
<stop offset="1" stop-color="white" stop-opacity="0"/>
</linearGradient>
</defs>
</svg>
