<svg width="16" height="16" viewBox="0 0 16 16" fill="none" xmlns="http://www.w3.org/2000/svg">
<g clip-path="url(#clip0_1342_1665)">
<path d="M4 11.983C4.0858 12.8553 4.27971 13.4424 4.71794 13.8806C5.50397 14.6667 6.76907 14.6667 9.29927 14.6667C11.8295 14.6667 13.0946 14.6667 13.8806 13.8806C14.6667 13.0946 14.6667 11.8295 14.6667 9.29927C14.6667 6.76907 14.6667 5.50397 13.8806 4.71794C13.4424 4.27971 12.8553 4.0858 11.983 4" stroke="#AAB0BE" stroke-width="1.5" stroke-linecap="round" stroke-linejoin="round"/>
<path d="M1.33325 6.66671C1.33325 4.15255 1.33325 2.89547 2.1143 2.11442C2.89535 1.33337 4.15243 1.33337 6.66659 1.33337C9.18072 1.33337 10.4379 1.33337 11.2189 2.11442C11.9999 2.89547 11.9999 4.15255 11.9999 6.66671C11.9999 9.18084 11.9999 10.438 11.2189 11.219C10.4379 12 9.18072 12 6.66659 12C4.15243 12 2.89535 12 2.1143 11.219C1.33325 10.438 1.33325 9.18084 1.33325 6.66671Z" stroke="#AAB0BE" stroke-width="1.5" stroke-linecap="round" stroke-linejoin="round"/>
<path d="M1.33325 7.41228C1.74593 7.35981 2.16315 7.33394 2.58106 7.33481C4.34902 7.30214 6.07368 7.78414 7.44732 8.69488C8.72125 9.53954 9.61639 10.7019 9.99992 11.9999" stroke="#AAB0BE" stroke-width="1.5" stroke-linecap="round" stroke-linejoin="round"/>
<path d="M8.6665 4.66663H8.6725" stroke="#AAB0BE" stroke-width="1.5" stroke-linecap="round" stroke-linejoin="round"/>
</g>
<defs>
<clipPath id="clip0_1342_1665">
<rect width="16" height="16" fill="white"/>
</clipPath>
</defs>
</svg>
