<svg width="24" height="24" viewBox="0 0 24 24" fill="none" xmlns="http://www.w3.org/2000/svg">
<g clip-path="url(#clip0_1112_268)">
<mask id="mask0_1112_268" style="mask-type:luminance" maskUnits="userSpaceOnUse" x="0" y="0" width="24" height="24">
<path d="M22.9396 9.74848H12.2605V14.1764H18.4075C17.8345 16.9894 15.4382 18.6043 12.2605 18.6043C8.50982 18.6043 5.48842 15.5829 5.48842 11.8322C5.48842 8.0815 8.50982 5.06011 12.2605 5.06011C13.8754 5.06011 15.334 5.63314 16.48 6.57082L19.814 3.23685C17.7824 1.46569 15.1777 0.371735 12.2605 0.371735C5.90517 0.371735 0.800049 5.47685 0.800049 11.8322C0.800049 18.1875 5.90517 23.2927 12.2605 23.2927C17.9907 23.2927 23.2001 19.1252 23.2001 11.8322C23.2001 11.155 23.0959 10.4257 22.9396 9.74848Z" fill="white"/>
</mask>
<g mask="url(#mask0_1112_268)">
<path d="M-0.241821 18.6043V5.06009L8.61399 11.8322L-0.241821 18.6043Z" fill="#FBBC05"/>
</g>
<mask id="mask1_1112_268" style="mask-type:luminance" maskUnits="userSpaceOnUse" x="0" y="0" width="24" height="24">
<path d="M22.9396 9.74848H12.2605V14.1764H18.4075C17.8345 16.9894 15.4382 18.6043 12.2605 18.6043C8.50982 18.6043 5.48842 15.5829 5.48842 11.8322C5.48842 8.0815 8.50982 5.06011 12.2605 5.06011C13.8754 5.06011 15.334 5.63314 16.48 6.57082L19.814 3.23685C17.7824 1.46569 15.1777 0.371735 12.2605 0.371735C5.90517 0.371735 0.800049 5.47685 0.800049 11.8322C0.800049 18.1875 5.90517 23.2927 12.2605 23.2927C17.9907 23.2927 23.2001 19.1252 23.2001 11.8322C23.2001 11.155 23.0959 10.4257 22.9396 9.74848Z" fill="white"/>
</mask>
<g mask="url(#mask1_1112_268)">
<path d="M-0.241821 5.06013L8.61399 11.8322L12.2605 8.65456L24.7628 6.62292V-0.670105H-0.241821V5.06013Z" fill="#EA4335"/>
</g>
<mask id="mask2_1112_268" style="mask-type:luminance" maskUnits="userSpaceOnUse" x="0" y="0" width="24" height="24">
<path d="M22.9396 9.74848H12.2605V14.1764H18.4075C17.8345 16.9894 15.4382 18.6043 12.2605 18.6043C8.50982 18.6043 5.48842 15.5829 5.48842 11.8322C5.48842 8.0815 8.50982 5.06011 12.2605 5.06011C13.8754 5.06011 15.334 5.63314 16.48 6.57082L19.814 3.23685C17.7824 1.46569 15.1777 0.371735 12.2605 0.371735C5.90517 0.371735 0.800049 5.47685 0.800049 11.8322C0.800049 18.1875 5.90517 23.2927 12.2605 23.2927C17.9907 23.2927 23.2001 19.1252 23.2001 11.8322C23.2001 11.155 23.0959 10.4257 22.9396 9.74848Z" fill="white"/>
</mask>
<g mask="url(#mask2_1112_268)">
<path d="M-0.241821 18.6043L15.3861 6.62292L19.5014 7.14385L24.7628 -0.670105V24.3345H-0.241821V18.6043Z" fill="#34A853"/>
</g>
<mask id="mask3_1112_268" style="mask-type:luminance" maskUnits="userSpaceOnUse" x="0" y="0" width="24" height="24">
<path d="M22.9396 9.74848H12.2605V14.1764H18.4075C17.8345 16.9894 15.4382 18.6043 12.2605 18.6043C8.50982 18.6043 5.48842 15.5829 5.48842 11.8322C5.48842 8.0815 8.50982 5.06011 12.2605 5.06011C13.8754 5.06011 15.334 5.63314 16.48 6.57082L19.814 3.23685C17.7824 1.46569 15.1777 0.371735 12.2605 0.371735C5.90517 0.371735 0.800049 5.47685 0.800049 11.8322C0.800049 18.1875 5.90517 23.2927 12.2605 23.2927C17.9907 23.2927 23.2001 19.1252 23.2001 11.8322C23.2001 11.155 23.0959 10.4257 22.9396 9.74848Z" fill="white"/>
</mask>
<g mask="url(#mask3_1112_268)">
<path d="M24.7628 24.3345L8.61399 11.8322L6.53027 10.2694L24.7628 5.06009V24.3345Z" fill="#4285F4"/>
</g>
</g>
<defs>
<clipPath id="clip0_1112_268">
<rect width="24" height="24" fill="white"/>
</clipPath>
</defs>
</svg>
