<svg width="16" height="16" viewBox="0 0 16 16" fill="none" xmlns="http://www.w3.org/2000/svg">
<g clip-path="url(#clip0_1342_1687)">
<path d="M3.99992 13.3333C3.99992 14.0697 3.40297 14.6667 2.66659 14.6667C1.93021 14.6667 1.33325 14.0697 1.33325 13.3333C1.33325 12.5969 1.93021 12 2.66659 12C3.40297 12 3.99992 12.5969 3.99992 13.3333Z" stroke="#AAB0BE" stroke-width="1.5" stroke-linecap="round" stroke-linejoin="round"/>
<path d="M9.33341 4V6.66667M6.66675 8H5.33341C4.07633 8 3.44779 8 3.05727 8.39053C2.66675 8.78107 2.66675 9.4096 2.66675 10.6667V12M4.00008 13.3333H6.66675" stroke="#AAB0BE" stroke-width="1.5" stroke-linecap="round" stroke-linejoin="round"/>
<path d="M6.66675 2.66671C6.66675 1.56359 6.89695 1.33337 8.00008 1.33337H10.6667C11.7699 1.33337 12.0001 1.56359 12.0001 2.66671C12.0001 3.76982 11.7699 4.00004 10.6667 4.00004H8.00008C6.89695 4.00004 6.66675 3.76982 6.66675 2.66671Z" stroke="#AAB0BE" stroke-width="1.5" stroke-linecap="round" stroke-linejoin="round"/>
<path d="M6.66675 7.99996C6.66675 6.89683 6.89695 6.66663 8.00008 6.66663H10.6667C11.7699 6.66663 12.0001 6.89683 12.0001 7.99996C12.0001 9.10309 11.7699 9.33329 10.6667 9.33329H8.00008C6.89695 9.33329 6.66675 9.10309 6.66675 7.99996Z" stroke="#AAB0BE" stroke-width="1.5" stroke-linecap="round" stroke-linejoin="round"/>
<path d="M6.66675 13.3333C6.66675 12.2302 6.89695 12 8.00008 12H10.6667C11.7699 12 12.0001 12.2302 12.0001 13.3333C12.0001 14.4365 11.7699 14.6667 10.6667 14.6667H8.00008C6.89695 14.6667 6.66675 14.4365 6.66675 13.3333Z" stroke="#AAB0BE" stroke-width="1.5" stroke-linecap="round" stroke-linejoin="round"/>
<path d="M12 7.99996C13.2571 7.99996 13.8856 7.99996 14.2761 7.60943C14.6667 7.21889 14.6667 6.59037 14.6667 5.33329C14.6667 4.07621 14.6667 3.44767 14.2761 3.05715C13.8856 2.66663 13.2571 2.66663 12 2.66663" stroke="#AAB0BE" stroke-width="1.5" stroke-linecap="round" stroke-linejoin="round"/>
</g>
<defs>
<clipPath id="clip0_1342_1687">
<rect width="16" height="16" fill="white"/>
</clipPath>
</defs>
</svg>
