<svg width="138" height="137" viewBox="0 0 138 137" fill="none" xmlns="http://www.w3.org/2000/svg">
<g clip-path="url(#clip0_1341_780)">
<path opacity="0.1" d="M112.436 70.132C118.337 69.1683 124.508 69.5402 130.459 71.4169L138 62.0672C136.445 60.1229 135.65 57.5699 135.65 55.0169C135.65 52.4639 136.428 49.9109 138 47.9666L130.426 38.5831C124.474 40.4598 118.32 40.8318 112.436 39.8849C117.069 36.0977 122.598 33.3419 128.684 31.9893L130.544 20.1204C128.228 19.2243 126.266 17.3983 124.998 15.1835C123.713 12.9687 123.122 10.3649 123.511 7.9134L112.267 3.56825C108.057 8.16701 102.918 11.5654 97.3381 13.6788C99.4515 8.08247 102.867 2.92577 107.466 -1.28412L103.137 -12.4936C100.686 -12.1047 98.0821 -12.7134 95.8672 -13.9814C93.6524 -15.2664 91.8264 -17.2107 90.9303 -19.527L79.0107 -17.6672C77.6581 -11.5806 74.9192 -6.06887 71.132 -1.43629C70.1683 -7.33691 70.5402 -13.508 72.4169 -19.4594L63.0672 -27C61.1229 -25.4445 58.5699 -24.6499 56.0169 -24.6499C53.4639 -24.6499 50.9109 -25.4445 48.9666 -27L39.5831 -19.4256C41.4598 -13.4742 41.8318 -7.32 40.8849 -1.43629C37.0977 -6.06887 34.3419 -11.5975 32.9893 -17.6841L21.1204 -19.5439C20.2243 -17.2276 18.3983 -15.2664 16.1835 -13.9984C13.9687 -12.7134 11.3649 -12.1216 8.9134 -12.5105L4.56825 -1.26722C9.16701 2.94268 12.5654 8.08247 14.6788 13.6619C9.08247 11.5485 3.92577 8.13319 -0.284124 3.53443L-11.4936 7.86268C-11.1047 10.3142 -11.7134 12.9179 -12.9814 15.1328C-14.2664 17.3476 -16.2107 19.1736 -18.527 20.0697L-16.6672 31.9893C-10.5806 33.3419 -5.06887 36.0808 -0.436289 39.868C-6.33691 40.8317 -12.508 40.4598 -18.4594 38.5831L-26 47.9328C-24.4445 49.8771 -23.6499 52.4301 -23.6499 54.9831C-23.6499 57.5361 -24.4445 60.0891 -26 62.0334L-18.4256 71.4169C-12.4742 69.5402 -6.32 69.1682 -0.436289 70.1151C-5.06887 73.9023 -10.5975 76.6581 -16.6841 78.0107L-18.5439 89.8796C-16.2276 90.7757 -14.2664 92.6017 -12.9984 94.8165C-11.7134 97.0313 -11.1216 99.635 -11.5105 102.087L-0.267216 106.432C3.94268 101.833 9.08247 98.4346 14.6619 96.3212C12.5485 101.918 9.13319 107.074 4.53443 111.284L8.86268 122.494C11.3142 122.105 13.9179 122.713 16.1328 123.981C18.3476 125.266 20.1736 127.211 21.0697 129.527L32.9893 127.667C34.3419 121.581 37.0808 116.069 40.868 111.436C41.8317 117.337 41.4598 123.508 39.5831 129.459L48.9328 137C50.8771 135.445 53.4301 134.65 55.9831 134.65C58.5361 134.65 61.0891 135.428 63.0334 137L72.4169 129.426C70.5402 123.474 70.1682 117.32 71.1151 111.436C74.9023 116.069 77.6581 121.598 79.0107 127.684L90.8796 129.544C91.7757 127.228 93.6017 125.266 95.8165 123.998C98.0313 122.713 100.635 122.122 103.087 122.511L107.432 111.267C102.833 107.057 99.4346 101.918 97.3212 96.3381C102.918 98.4515 108.074 101.867 112.284 106.466L123.494 102.137C123.105 99.6858 123.713 97.0821 124.981 94.8672C126.266 92.6524 128.211 90.8264 130.527 89.9303L128.667 78.0107C122.581 76.6581 117.069 73.9192 112.436 70.132ZM118.827 43.7567C122.327 43.7567 125.81 43.3002 129.208 42.4379L133.858 48.2202C132.826 50.2491 132.285 52.5992 132.285 55.0338C132.285 57.4685 132.843 59.8016 133.858 61.8474L129.225 67.579C125.827 66.7167 122.344 66.2602 118.844 66.2602C115.632 66.2602 112.453 66.6153 109.325 67.3254C105.876 63.8256 103.07 59.6664 101.142 55.0507C103.07 50.4181 105.859 46.2421 109.325 42.7254C112.436 43.4355 115.615 43.7905 118.81 43.7736L118.827 43.7567ZM93.7707 65.1105L98.6231 64.0285C98.8598 62.5068 99.181 61.019 99.5868 59.5649C101.244 62.7266 103.289 65.6515 105.673 68.306C102.258 69.4049 99.012 70.9435 96.0025 72.8709C96.3744 71.3831 96.8478 69.8953 97.4227 68.4412L93.7876 65.1105H93.7707ZM83.6433 82.6433L88.3773 84.1311C89.341 82.9307 90.3724 81.8148 91.4375 80.7497C91.2854 84.3171 91.5897 87.8676 92.3336 91.3505C88.8338 90.6066 85.2495 90.3023 81.6821 90.4544C82.7641 89.3555 83.8969 88.3072 85.1142 87.3266L83.6264 82.6264L83.6433 82.6433ZM91.9447 75.7959C90.2709 77.1654 88.7155 78.6532 87.2614 80.2594L82.4091 78.7377L79.146 68.3736L89.7468 66.0235L93.4664 69.4388C92.7901 71.5183 92.2829 73.6487 91.9278 75.8128L91.9447 75.7959ZM20.5287 80.699C21.6276 81.781 22.6759 82.9138 23.6565 84.1311L28.3567 82.6433L26.8689 87.3773C28.0693 88.341 29.1852 89.3724 30.2503 90.4375C26.6829 90.2854 23.1324 90.5897 19.6495 91.3336C20.3934 87.8338 20.6977 84.2495 20.5456 80.6821L20.5287 80.699ZM29.5909 78.7208L24.7724 80.2425C23.3014 78.6194 21.7122 77.0977 20.0214 75.7282C19.6833 73.5979 19.1761 71.5014 18.4998 69.4557L22.2532 66.0235L32.854 68.3736L29.5909 78.7377V78.7208ZM15.9637 72.8202C12.9542 70.9097 9.72495 69.388 6.3266 68.306C8.72742 65.6346 10.7732 62.6928 12.4301 59.5142C12.8528 61.0021 13.174 62.5068 13.4276 64.0623L18.2462 65.1274L14.5942 68.4751C15.1522 69.9122 15.6087 71.3662 15.9806 72.8202H15.9637ZM18.2293 44.8895L13.3769 45.9715C13.1402 47.4932 12.819 48.981 12.4132 50.4351C10.7563 47.2734 8.71052 44.3485 6.3266 41.694C9.74186 40.5951 12.988 39.0565 15.9975 37.1291C15.6256 38.6169 15.1522 40.1047 14.5773 41.5588L18.2124 44.8895H18.2293ZM16.3188 61.2557C15.8623 59.1085 15.2367 57.012 14.459 54.9662C15.2198 52.9542 15.8285 50.8746 16.285 48.7612L21.2557 47.6623L29.2697 55L21.2557 62.3377L16.3188 61.2388V61.2557ZM28.3567 27.3567L23.6227 25.8689C22.659 27.0693 21.6276 28.1852 20.5625 29.2503C20.7146 25.6829 20.4103 22.1324 19.6664 18.6495C23.1662 19.3934 26.7505 19.6977 30.3179 19.5456C29.2359 20.6445 28.1031 21.6928 26.8858 22.6734L28.3736 27.3736L28.3567 27.3567ZM20.0553 34.2041C21.7291 32.8346 23.2845 31.3468 24.7386 29.7406L29.5909 31.2623L32.854 41.6264L22.2532 43.9765L18.5336 40.5612C19.2099 38.4816 19.7171 36.3513 20.0722 34.1872L20.0553 34.2041ZM91.4713 29.301C90.3724 28.219 89.3241 27.0862 88.3435 25.8689L83.6433 27.3567L85.1311 22.6227C83.9307 21.659 82.8148 20.6276 81.7497 19.5625C85.3171 19.7146 88.8676 19.4103 92.3505 18.6664C91.6066 22.1662 91.3023 25.7505 91.4544 29.3179L91.4713 29.301ZM82.4091 31.2792L87.2276 29.7575C88.6986 31.3806 90.2878 32.9023 91.9786 34.2718C92.3167 36.4021 92.8239 38.4986 93.5002 40.5443L89.7468 43.9765L79.146 41.6264L82.4091 31.2623V31.2792ZM57.0144 70.7237L56 70.4025L54.9856 70.7237L51.4858 71.8227L49.0004 69.1175L48.2903 68.3398L47.259 68.1031L43.6746 67.3084L42.88 63.7241L42.6433 62.6928L41.8656 61.9827L39.1604 59.4973L40.2594 55.9975L40.5806 54.9831L40.2594 53.9687L39.1604 50.4689L41.8656 47.9835L42.6433 47.2734L42.88 46.2421L43.6746 42.6577L47.259 41.8631L48.2903 41.6264L49.0004 40.8487L51.4858 38.1435L54.9856 39.2425L56 39.5637L57.0144 39.2425L60.5142 38.1435L62.9996 40.8487L63.7097 41.6264L64.741 41.8631L68.3254 42.6577L69.12 46.2421L69.3567 47.2734L70.1344 47.9835L72.8396 50.4689L71.7406 53.9687L71.4194 54.9831L71.7406 55.9975L72.8396 59.4973L70.1344 61.9827L69.3567 62.6928L69.12 63.7241L68.3254 67.3084L64.741 68.1031L63.7097 68.3398L62.9996 69.1175L60.5142 71.8227L57.0144 70.7237ZM57.995 74.5616L56 76.7427L54.0049 74.5616L56 73.9361L57.995 74.5616ZM38.0445 46.9522L37.1484 44.1287L40.0396 43.4862L39.5831 45.532L38.0445 46.9522ZM38.0614 63.0478L39.6 64.468L40.0565 66.5138L37.1654 65.8713L38.0445 63.0478H38.0614ZM36.1509 40.8994L33.5134 32.4965L41.9163 35.134L40.868 39.8342L36.1678 40.8825L36.1509 40.8994ZM37.0639 55L36.4384 56.995L34.2573 55L36.4384 53.0049L37.0639 55ZM33.8685 44.8557L35.3225 49.4544L31.772 52.7175L25.2796 46.7662L33.8685 44.8557ZM31.7551 57.2825L35.3056 60.5456L33.8515 65.1443L25.2627 63.2338L31.7551 57.2825ZM36.1509 69.1006L40.8511 70.1489L41.8994 74.8491L33.4965 77.4866L36.134 69.0837L36.1509 69.1006ZM54.0049 35.4384L56 33.2573L57.995 35.4384L56 36.0639L54.0049 35.4384ZM71.1489 39.8511L70.1006 35.1509L78.5035 32.5134L75.866 40.9163L71.1658 39.868L71.1489 39.8511ZM77.7427 55L75.5616 56.995L74.9361 55L75.5616 53.0049L77.7427 55ZM73.9555 63.0478L74.8515 65.8713L71.9604 66.5138L72.4169 64.468L73.9555 63.0478ZM73.9386 46.9522L72.4 45.532L71.9435 43.4862L74.8346 44.1287L73.9555 46.9522H73.9386ZM71.1489 70.1489L75.8491 69.1006L78.4866 77.5035L70.0837 74.866L71.132 70.1658L71.1489 70.1489ZM78.1315 65.1443L76.6775 60.5456L80.228 57.2825L86.7204 63.2338L78.1315 65.1443ZM80.2449 52.7175L76.6944 49.4544L78.1485 44.8557L86.7373 46.7662L80.2449 52.7175ZM79.7208 28.5909L69.3567 31.854L67.0066 21.2532L70.4219 17.5336C72.5014 18.2099 74.6318 18.7171 76.7959 19.0722C78.1654 20.746 79.6532 22.3014 81.2594 23.7555L79.7377 28.6078L79.7208 28.5909ZM67.5138 39.0565L65.468 38.6L64.0478 37.0614L66.8713 36.1654L67.5138 39.0565ZM61.5456 34.3056L58.2825 30.7551L64.2338 24.2627L66.1443 32.8515L61.5456 34.3056ZM56 28.2697L48.6623 20.2557L49.7612 15.3188C51.9085 14.8623 54.0049 14.2367 56.0507 13.459C58.0627 14.2198 60.1423 14.8285 62.2557 15.285L63.3546 20.2557L56.0169 28.2697H56ZM53.7175 30.7551L50.4544 34.3056L45.8557 32.8515L47.7662 24.2627L53.7175 30.7551ZM47.9522 37.0614L46.532 38.6L44.4862 39.0565L45.1287 36.1654L47.9522 37.0445V37.0614ZM42.6264 31.854L32.2623 28.5909L30.7406 23.7724C32.3637 22.3014 33.8854 20.7122 35.2548 19.0214C37.3852 18.6833 39.4816 18.1761 41.5274 17.4998L44.9596 21.2532L42.6095 31.854H42.6264ZM32.2792 81.4091L42.6433 78.146L44.9934 88.7468L41.5781 92.4664C39.4986 91.7901 37.3682 91.2829 35.2041 90.9278C33.8346 89.254 32.3468 87.6986 30.7406 86.2445L32.2623 81.3922L32.2792 81.4091ZM44.4862 70.9435L46.532 71.4L47.9522 72.9386L45.1287 73.8346L44.4862 70.9435ZM50.4544 75.6944L53.7175 79.2449L47.7662 85.7373L45.8557 77.1485L50.4544 75.6944ZM56 81.7303L63.3377 89.7443L62.2388 94.6812C60.0915 95.1377 57.9951 95.7633 55.9493 96.541C53.9373 95.7802 51.8577 95.1715 49.7443 94.715L48.6454 89.7443L55.9831 81.7303H56ZM58.2825 79.2449L61.5456 75.6944L66.1443 77.1485L64.2338 85.7373L58.2825 79.2449ZM64.0478 72.9386L65.468 71.4L67.5138 70.9435L66.8713 73.8346L64.0478 72.9555V72.9386ZM69.3736 78.146L79.7377 81.4091L81.2594 86.2276C79.6363 87.6986 78.1146 89.2878 76.7452 90.9786C74.6148 91.3167 72.5183 91.8239 70.4726 92.5002L67.0404 88.7468L69.3905 78.146H69.3736ZM90.7443 62.3377L82.7303 55L90.7443 47.6623L95.6812 48.7612C96.1377 50.9085 96.7633 53.0049 97.541 55.0507C96.7802 57.0627 96.1715 59.1423 95.715 61.2557L90.7443 62.3546V62.3377ZM96.0363 37.1798C99.0458 39.0903 102.275 40.612 105.673 41.694C103.273 44.3654 101.227 47.3072 99.5699 50.4858C99.1472 48.9979 98.826 47.4932 98.5724 45.9377L93.7538 44.8726L97.4058 41.5249C96.8478 40.0878 96.3913 38.6338 96.0194 37.1798H96.0363ZM104.777 13.8478C107.804 12.0895 110.61 9.95918 113.113 7.50763L120.028 10.179C120.163 12.4614 120.856 14.7608 122.073 16.8573C123.291 18.9707 124.931 20.7122 126.841 21.9633L125.708 29.2503C122.327 30.1971 119.098 31.5497 116.054 33.2911C113.282 34.8804 110.695 36.7909 108.345 38.972C103.594 37.6701 99.0965 35.4553 95.1233 32.4289C94.4808 27.4581 94.819 22.4367 96.0532 17.6689C99.0965 16.7221 102.021 15.4371 104.794 13.8309L104.777 13.8478ZM77.675 -5.02062C79.4165 -8.06392 80.786 -11.2932 81.7159 -14.6746L89.0367 -15.8243C90.2878 -13.9138 92.0462 -12.2738 94.1427 -11.0565C96.2561 -9.83917 98.5555 -9.14598 100.821 -9.01072L103.475 -2.12948C101.024 0.372784 98.8936 3.17938 97.1353 6.20577C95.5291 8.97855 94.2441 11.9204 93.2973 14.9806C88.5295 16.2148 83.5419 16.553 78.5711 15.9274C75.5278 11.9373 73.313 7.44 71.9942 2.67216C74.1583 0.338968 76.052 -2.24784 77.6412 -5.00371L77.675 -5.02062ZM73.8709 15.0144C72.3831 14.6425 70.8953 14.1691 69.4412 13.5942L66.1105 17.2293L65.0285 12.3769C63.5068 12.1402 62.019 11.819 60.5649 11.4132C63.7266 9.75629 66.6515 7.71052 69.306 5.3266C70.4049 8.74186 71.9435 11.988 73.8709 14.9975V15.0144ZM49.2033 -22.8577C51.2322 -21.8264 53.5823 -21.2854 56.0169 -21.2854C58.4515 -21.2854 60.7847 -21.8433 62.8305 -22.8577L68.5621 -18.2252C67.6998 -14.8268 67.2433 -11.3439 67.2433 -7.84412C67.2433 -4.63175 67.5984 -1.4532 68.3084 1.67464C64.8087 5.12371 60.6495 7.93031 56.0338 9.85773C51.4012 7.93031 47.2252 5.14062 43.7085 1.67464C44.4186 -1.43629 44.7736 -4.61485 44.7567 -7.81031C44.7567 -11.3101 44.3002 -14.793 43.4379 -18.1913L49.2202 -22.8408L49.2033 -22.8577ZM42.694 5.3266C45.3654 7.72742 48.3072 9.77319 51.4858 11.4301C49.9979 11.8528 48.4932 12.174 46.9377 12.4276L45.8726 17.2462L42.5249 13.5942C41.0878 14.1522 39.6338 14.6087 38.1798 14.9806C40.0903 11.9711 41.612 8.74186 42.694 5.3435V5.3266ZM8.50763 -2.11258L11.179 -9.02763C13.4614 -9.16289 15.7608 -9.85608 17.8573 -11.0734C19.9707 -12.2907 21.7122 -13.9307 22.9633 -15.8412L30.2503 -14.7085C31.1971 -11.327 32.5497 -8.09773 34.2911 -5.05443C35.8804 -2.28165 37.7909 0.305157 39.972 2.65526C38.6701 7.40619 36.4553 11.9035 33.4289 15.8767C28.4581 16.5192 23.4367 16.181 18.6689 14.9468C17.7221 11.9035 16.4371 8.97855 14.8309 6.20577C13.0726 3.17938 10.9423 0.372784 8.49072 -2.12948L8.50763 -2.11258ZM-4.02062 33.3249C-7.06392 31.5835 -10.2932 30.214 -13.6746 29.2841L-14.8243 21.9633C-12.9138 20.7122 -11.2738 18.9538 -10.0565 16.8573C-8.83917 14.7439 -8.14598 12.4445 -8.01072 10.179L-1.12948 7.52454C1.37278 9.97608 4.17938 12.1064 7.20577 13.8647C9.97855 15.4709 12.9204 16.7559 15.9806 17.7027C17.2148 22.4705 17.553 27.4581 16.9274 32.4289C12.9373 35.4722 8.44 37.687 3.67216 39.0058C1.33897 36.8417 -1.24784 34.948 -4.00371 33.3588L-4.02062 33.3249ZM-6.82722 66.2433C-10.327 66.2433 -13.8099 66.6998 -17.2082 67.5621L-21.8577 61.7798C-20.8264 59.7509 -20.2854 57.4008 -20.2854 54.9662C-20.2854 52.5315 -20.8433 50.1983 -21.8577 48.1526L-17.2252 42.421C-13.8268 43.2833 -10.3439 43.7398 -6.84412 43.7398C-3.63175 43.7398 -0.453197 43.3847 2.67464 42.6746C6.12371 46.1744 8.93031 50.3336 10.8577 54.9493C8.93031 59.5819 6.14062 63.7579 2.67464 67.2746C-0.436291 66.5645 -3.61485 66.2095 -6.81031 66.2264L-6.82722 66.2433ZM7.22268 96.1522C4.19629 97.9105 1.38969 100.041 -1.11258 102.492L-8.02763 99.821C-8.16289 97.5386 -8.85608 95.2392 -10.0734 93.1427C-11.2907 91.0293 -12.9307 89.2878 -14.8412 88.0367L-13.7085 80.7497C-10.327 79.8029 -7.09773 78.4503 -4.05443 76.7089C-1.28165 75.1196 1.30516 73.2091 3.65526 71.028C8.40619 72.3299 12.9035 74.5447 16.8767 77.5711C17.5192 82.5419 17.181 87.5633 15.9468 92.3311C12.9035 93.2779 9.97855 94.5629 7.20577 96.1691L7.22268 96.1522ZM34.3249 115.021C32.5835 118.064 31.214 121.293 30.2841 124.675L22.9633 125.824C21.7122 123.914 19.9538 122.274 17.8573 121.056C15.7439 119.839 13.4445 119.146 11.179 119.011L8.52454 112.129C10.9761 109.627 13.1064 106.821 14.8647 103.794C16.4709 101.021 17.7559 98.0796 18.7027 95.0194C23.4705 93.7851 28.4581 93.447 33.4289 94.0726C36.4722 98.0627 38.687 102.56 40.0058 107.328C37.8417 109.661 35.948 112.248 34.3588 115.004L34.3249 115.021ZM38.1291 94.9856C39.6169 95.3575 41.1047 95.8309 42.5588 96.4058L45.8895 92.7707L46.9715 97.6231C48.4932 97.8598 49.981 98.181 51.4351 98.5868C48.2734 100.244 45.3485 102.289 42.694 104.673C41.5951 101.258 40.0565 98.012 38.1291 95.0025V94.9856ZM62.7967 132.858C60.7678 131.826 58.4177 131.285 55.9831 131.285C53.5485 131.285 51.2153 131.843 49.1695 132.858L43.4379 128.225C44.3002 124.827 44.7567 121.344 44.7567 117.844C44.7567 114.632 44.4016 111.453 43.6916 108.325C47.1913 104.876 51.3505 102.07 55.9662 100.142C60.5988 102.07 64.7748 104.859 68.2915 108.325C67.5814 111.436 67.2264 114.615 67.2433 117.81C67.2433 121.31 67.6998 124.793 68.5621 128.191L62.7798 132.841L62.7967 132.858ZM69.306 104.673C66.6346 102.273 63.6928 100.227 60.5142 98.5699C62.0021 98.1472 63.5068 97.826 65.0623 97.5724L66.1274 92.7538L69.4751 96.4058C70.9122 95.8478 72.3662 95.3913 73.8202 95.0194C71.9097 98.0289 70.388 101.258 69.306 104.656V104.673ZM103.492 112.113L100.821 119.028C98.5386 119.163 96.2392 119.856 94.1427 121.073C92.0293 122.291 90.2878 123.931 89.0367 125.841L81.7497 124.708C80.8029 121.327 79.4503 118.098 77.7089 115.054C76.1196 112.282 74.2091 109.695 72.028 107.345C73.3299 102.594 75.5447 98.0965 78.5711 94.1233C83.5419 93.4808 88.5633 93.819 93.3311 95.0532C94.2779 98.0965 95.5629 101.021 97.1691 103.794C98.9274 106.821 101.058 109.627 103.509 112.129L103.492 112.113ZM122.056 93.1596C120.839 95.273 120.146 97.5724 120.011 99.8379L113.129 102.492C110.627 100.041 107.821 97.9105 104.794 96.1522C102.021 94.546 99.0796 93.261 96.0194 92.3142C94.7851 87.5464 94.447 82.5588 95.0726 77.588C99.0627 74.5447 103.56 72.3299 108.328 71.0111C110.661 73.1753 113.248 75.0689 116.004 76.6581C119.047 78.3996 122.276 79.7691 125.658 80.699L126.807 88.0198C124.897 89.2709 123.257 91.0293 122.04 93.1258L122.056 93.1596Z" fill="#2AB695"/>
<path opacity="0.1" d="M62.2218 65.7698L63.0503 65.5839L65.9414 64.9414L66.5839 62.0503L66.7698 61.2218L67.3954 60.647L69.5764 58.6519L68.6804 55.8284L68.4268 55.0169L68.6804 54.2053L69.5764 51.3818L67.3954 49.3868L66.7698 48.8119L66.5839 47.9835L65.9414 45.0923L63.0503 44.4498L62.2218 44.2639L61.647 43.6383L59.6519 41.4573L56.8284 42.3534L56.0169 42.607L55.2053 42.3534L52.3818 41.4573L50.3868 43.6383L49.8119 44.2639L48.9835 44.4498L46.0923 45.0923L45.4498 47.9835L45.2639 48.8119L44.6383 49.3868L42.4573 51.3818L43.3534 54.2053L43.607 55.0169L43.3534 55.8284L42.4573 58.6519L44.6383 60.647L45.2639 61.2218L45.4498 62.0503L46.0923 64.9414L48.9835 65.5839L49.8119 65.7698L50.3868 66.3954L52.3818 68.5764L55.2053 67.6804L56.0169 67.4268L56.8284 67.6804L59.6519 68.5764L61.647 66.3954L62.2218 65.7698ZM60.6325 63.014L59.9901 63.7241L59.4152 64.3496L58.722 65.1105L57.7414 64.8061L56.9298 64.5525L56.0169 64.2651L55.1039 64.5525L54.2923 64.8061L53.3117 65.1105L52.6185 64.3496L52.0437 63.7241L51.4012 63.014L50.4713 62.8111L49.6428 62.6251L48.6453 62.4053L48.4255 61.3909L48.2395 60.5624L48.0367 59.6325L47.3265 58.9901L46.701 58.4152L45.9402 57.722L46.2445 56.7414L46.4981 55.9298L46.7855 55.0169L46.4981 54.1039L46.2445 53.2923L45.9402 52.3117L46.701 51.6185L47.3265 51.0437L48.0367 50.4012L48.2395 49.4713L48.4255 48.6428L48.6453 47.6453L49.6597 47.4255L50.4882 47.2395L51.4181 47.0367L52.0606 46.3265L52.6354 45.701L53.3286 44.9402L54.3092 45.2445L55.1208 45.4981L56.0338 45.7855L56.9468 45.4981L57.7583 45.2445L58.7389 44.9402L59.4321 45.701L60.007 46.3265L60.6494 47.0367L61.5793 47.2395L62.4078 47.4255L63.4053 47.6453L63.6251 48.6597L63.8111 49.4882L64.014 50.4181L64.7241 51.0606L65.3496 51.6354L66.1105 52.3286L65.8061 53.3092L65.5525 54.1208L65.2651 55.0338L65.5525 55.9468L65.8061 56.7583L66.1105 57.7389L65.3496 58.4321L64.7241 59.007L64.014 59.6494L63.8111 60.5793L63.6251 61.4078L63.4053 62.4053L62.3909 62.6251L61.5624 62.8111L60.6325 63.014Z" fill="#2AB695"/>
<rect x="-15" width="161" height="153" rx="76.5" fill="url(#paint0_linear_1341_780)"/>
</g>
<defs>
<linearGradient id="paint0_linear_1341_780" x1="-21.4635" y1="27.0692" x2="76.6566" y2="133.355" gradientUnits="userSpaceOnUse">
<stop stop-color="#F0F7F8" stop-opacity="0"/>
<stop offset="1" stop-color="#F0F7F8"/>
</linearGradient>
<clipPath id="clip0_1341_780">
<rect width="164" height="164" fill="white" transform="translate(-26 -27)"/>
</clipPath>
</defs>
</svg>
