<svg width="138" height="137" viewBox="0 0 138 137" fill="none" xmlns="http://www.w3.org/2000/svg">
<g clip-path="url(#clip0_1_300)">
<path opacity="0.1" d="M-0.436279 70.132C-6.3369 69.1683 -12.508 69.5402 -18.4594 71.4169L-26 62.0672C-24.4445 60.1229 -23.6499 57.5699 -23.6499 55.0169C-23.6499 52.4639 -24.4276 49.9109 -26 47.9666L-18.4256 38.5831C-12.4742 40.4598 -6.31999 40.8318 -0.436279 39.8849C-5.06886 36.0977 -10.5975 33.3419 -16.6841 31.9893L-18.5439 20.1204C-16.2276 19.2243 -14.2664 17.3983 -12.9984 15.1835C-11.7134 12.9687 -11.1216 10.3649 -11.5105 7.9134L-0.267212 3.56825C3.94269 8.16701 9.08247 11.5654 14.6619 13.6788C12.5485 8.08247 9.13319 2.92577 4.53442 -1.28412L8.86269 -12.4936C11.3142 -12.1047 13.9179 -12.7134 16.1328 -13.9814C18.3476 -15.2664 20.1736 -17.2107 21.0697 -19.527L32.9893 -17.6672C34.3419 -11.5806 37.0808 -6.06887 40.868 -1.43629C41.8317 -7.33691 41.4598 -13.508 39.5831 -19.4594L48.9328 -27C50.8771 -25.4445 53.4301 -24.6499 55.9831 -24.6499C58.5361 -24.6499 61.0891 -25.4445 63.0334 -27L72.4169 -19.4256C70.5402 -13.4742 70.1682 -7.32 71.1151 -1.43629C74.9023 -6.06887 77.6581 -11.5975 79.0107 -17.6841L90.8796 -19.5439C91.7757 -17.2276 93.6017 -15.2664 95.8165 -13.9984C98.0313 -12.7134 100.635 -12.1216 103.087 -12.5105L107.432 -1.26722C102.833 2.94268 99.4346 8.08247 97.3212 13.6619C102.918 11.5485 108.074 8.13319 112.284 3.53443L123.494 7.86268C123.105 10.3142 123.713 12.9179 124.981 15.1328C126.266 17.3476 128.211 19.1736 130.527 20.0697L128.667 31.9893C122.581 33.3419 117.069 36.0808 112.436 39.868C118.337 40.8317 124.508 40.4598 130.459 38.5831L138 47.9328C136.445 49.8771 135.65 52.4301 135.65 54.9831C135.65 57.5361 136.445 60.0891 138 62.0334L130.426 71.4169C124.474 69.5402 118.32 69.1682 112.436 70.1151C117.069 73.9023 122.598 76.6581 128.684 78.0107L130.544 89.8796C128.228 90.7757 126.266 92.6017 124.998 94.8165C123.713 97.0313 123.122 99.635 123.511 102.087L112.267 106.432C108.057 101.833 102.918 98.4346 97.3381 96.3212C99.4515 101.918 102.867 107.074 107.466 111.284L103.137 122.494C100.686 122.105 98.0821 122.713 95.8672 123.981C93.6524 125.266 91.8264 127.211 90.9303 129.527L79.0107 127.667C77.6581 121.581 74.9192 116.069 71.132 111.436C70.1683 117.337 70.5402 123.508 72.4169 129.459L63.0672 137C61.1229 135.445 58.5699 134.65 56.0169 134.65C53.4639 134.65 50.9109 135.428 48.9666 137L39.5831 129.426C41.4598 123.474 41.8318 117.32 40.8849 111.436C37.0977 116.069 34.3419 121.598 32.9893 127.684L21.1204 129.544C20.2243 127.228 18.3983 125.266 16.1835 123.998C13.9687 122.713 11.365 122.122 8.91341 122.511L4.56825 111.267C9.16701 107.057 12.5654 101.918 14.6788 96.3381C9.08247 98.4515 3.92577 101.867 -0.284119 106.466L-11.4936 102.137C-11.1047 99.6858 -11.7134 97.0821 -12.9814 94.8672C-14.2664 92.6524 -16.2107 90.8264 -18.527 89.9303L-16.6672 78.0107C-10.5806 76.6581 -5.06886 73.9192 -0.436279 70.132ZM-6.82722 43.7567C-10.327 43.7567 -13.8099 43.3002 -17.2083 42.4379L-21.8577 48.2202C-20.8264 50.2491 -20.2854 52.5992 -20.2854 55.0338C-20.2854 57.4685 -20.8433 59.8016 -21.8577 61.8474L-17.2251 67.579C-13.8268 66.7167 -10.3439 66.2602 -6.84412 66.2602C-3.63174 66.2602 -0.453201 66.6153 2.67464 67.3254C6.12372 63.8256 8.93031 59.6664 10.8577 55.0507C8.93031 50.4181 6.14062 46.2421 2.67464 42.7254C-0.436295 43.4355 -3.61485 43.7905 -6.8103 43.7736L-6.82722 43.7567ZM18.2293 65.1105L13.3769 64.0285C13.1402 62.5068 12.819 61.019 12.4132 59.5649C10.7563 62.7266 8.71053 65.6515 6.3266 68.306C9.74187 69.4049 12.988 70.9435 15.9975 72.8709C15.6256 71.3831 15.1522 69.8953 14.5773 68.4412L18.2124 65.1105H18.2293ZM28.3567 82.6433L23.6227 84.1311C22.659 82.9307 21.6276 81.8148 20.5625 80.7497C20.7146 84.3171 20.4103 87.8676 19.6664 91.3505C23.1662 90.6066 26.7505 90.3023 30.3179 90.4544C29.2359 89.3555 28.1031 88.3072 26.8858 87.3266L28.3736 82.6264L28.3567 82.6433ZM20.0553 75.7959C21.7291 77.1654 23.2845 78.6532 24.7386 80.2594L29.5909 78.7377L32.854 68.3736L22.2532 66.0235L18.5336 69.4388C19.2099 71.5183 19.7171 73.6487 20.0722 75.8128L20.0553 75.7959ZM91.4713 80.699C90.3724 81.781 89.3241 82.9138 88.3435 84.1311L83.6433 82.6433L85.1311 87.3773C83.9307 88.341 82.8148 89.3724 81.7497 90.4375C85.3171 90.2854 88.8676 90.5897 92.3505 91.3336C91.6066 87.8338 91.3023 84.2495 91.4544 80.6821L91.4713 80.699ZM82.4091 78.7208L87.2276 80.2425C88.6986 78.6194 90.2878 77.0977 91.9786 75.7282C92.3167 73.5979 92.8239 71.5014 93.5002 69.4557L89.7468 66.0235L79.146 68.3736L82.4091 78.7377V78.7208ZM96.0363 72.8202C99.0458 70.9097 102.275 69.388 105.673 68.306C103.273 65.6346 101.227 62.6928 99.5699 59.5142C99.1472 61.0021 98.826 62.5068 98.5724 64.0623L93.7538 65.1274L97.4058 68.4751C96.8478 69.9122 96.3913 71.3662 96.0194 72.8202H96.0363ZM93.7707 44.8895L98.6231 45.9715C98.8598 47.4932 99.181 48.981 99.5868 50.4351C101.244 47.2734 103.289 44.3485 105.673 41.694C102.258 40.5951 99.012 39.0565 96.0025 37.1291C96.3744 38.6169 96.8478 40.1047 97.4227 41.5588L93.7876 44.8895H93.7707ZM95.6812 61.2557C96.1377 59.1085 96.7633 57.012 97.541 54.9662C96.7802 52.9542 96.1715 50.8746 95.715 48.7612L90.7443 47.6623L82.7303 55L90.7443 62.3377L95.6812 61.2388V61.2557ZM83.6433 27.3567L88.3773 25.8689C89.341 27.0693 90.3724 28.1852 91.4375 29.2503C91.2854 25.6829 91.5897 22.1324 92.3336 18.6495C88.8338 19.3934 85.2495 19.6977 81.6821 19.5456C82.7641 20.6445 83.8969 21.6928 85.1142 22.6734L83.6264 27.3736L83.6433 27.3567ZM91.9447 34.2041C90.2709 32.8346 88.7155 31.3468 87.2614 29.7406L82.4091 31.2623L79.146 41.6264L89.7468 43.9765L93.4664 40.5612C92.7901 38.4816 92.2829 36.3513 91.9278 34.1872L91.9447 34.2041ZM20.5287 29.301C21.6276 28.219 22.6759 27.0862 23.6565 25.8689L28.3567 27.3567L26.8689 22.6227C28.0693 21.659 29.1852 20.6276 30.2503 19.5625C26.6829 19.7146 23.1324 19.4103 19.6495 18.6664C20.3934 22.1662 20.6977 25.7505 20.5456 29.3179L20.5287 29.301ZM29.5909 31.2792L24.7724 29.7575C23.3014 31.3806 21.7122 32.9023 20.0214 34.2718C19.6833 36.4021 19.1761 38.4986 18.4998 40.5443L22.2532 43.9765L32.854 41.6264L29.5909 31.2623V31.2792ZM54.9856 70.7237L56 70.4025L57.0144 70.7237L60.5142 71.8227L62.9996 69.1175L63.7097 68.3398L64.741 68.1031L68.3254 67.3084L69.12 63.7241L69.3567 62.6928L70.1344 61.9827L72.8396 59.4973L71.7406 55.9975L71.4194 54.9831L71.7406 53.9687L72.8396 50.4689L70.1344 47.9835L69.3567 47.2734L69.12 46.2421L68.3254 42.6577L64.741 41.8631L63.7097 41.6264L62.9996 40.8487L60.5142 38.1435L57.0144 39.2425L56 39.5637L54.9856 39.2425L51.4858 38.1435L49.0004 40.8487L48.2903 41.6264L47.259 41.8631L43.6746 42.6577L42.88 46.2421L42.6433 47.2734L41.8656 47.9835L39.1604 50.4689L40.2594 53.9687L40.5806 54.9831L40.2594 55.9975L39.1604 59.4973L41.8656 61.9827L42.6433 62.6928L42.88 63.7241L43.6746 67.3084L47.259 68.1031L48.2903 68.3398L49.0004 69.1175L51.4858 71.8227L54.9856 70.7237ZM54.005 74.5616L56 76.7427L57.9951 74.5616L56 73.9361L54.005 74.5616ZM73.9555 46.9522L74.8516 44.1287L71.9604 43.4862L72.4169 45.532L73.9555 46.9522ZM73.9386 63.0478L72.4 64.468L71.9435 66.5138L74.8346 65.8713L73.9555 63.0478H73.9386ZM75.8491 40.8994L78.4866 32.4965L70.0837 35.134L71.132 39.8342L75.8322 40.8825L75.8491 40.8994ZM74.9361 55L75.5616 56.995L77.7427 55L75.5616 53.0049L74.9361 55ZM78.1315 44.8557L76.6775 49.4544L80.228 52.7175L86.7204 46.7662L78.1315 44.8557ZM80.2449 57.2825L76.6944 60.5456L78.1485 65.1443L86.7373 63.2338L80.2449 57.2825ZM75.8491 69.1006L71.1489 70.1489L70.1006 74.8491L78.5035 77.4866L75.866 69.0837L75.8491 69.1006ZM57.9951 35.4384L56 33.2573L54.005 35.4384L56 36.0639L57.9951 35.4384ZM40.8511 39.8511L41.8994 35.1509L33.4965 32.5134L36.134 40.9163L40.8342 39.868L40.8511 39.8511ZM34.2573 55L36.4384 56.995L37.0639 55L36.4384 53.0049L34.2573 55ZM38.0445 63.0478L37.1485 65.8713L40.0396 66.5138L39.5831 64.468L38.0445 63.0478ZM38.0614 46.9522L39.6 45.532L40.0565 43.4862L37.1654 44.1287L38.0445 46.9522H38.0614ZM40.8511 70.1489L36.1509 69.1006L33.5134 77.5035L41.9163 74.866L40.868 70.1658L40.8511 70.1489ZM33.8685 65.1443L35.3225 60.5456L31.772 57.2825L25.2796 63.2338L33.8685 65.1443ZM31.7551 52.7175L35.3056 49.4544L33.8515 44.8557L25.2627 46.7662L31.7551 52.7175ZM32.2792 28.5909L42.6433 31.854L44.9934 21.2532L41.5781 17.5336C39.4986 18.2099 37.3682 18.7171 35.2041 19.0722C33.8346 20.746 32.3468 22.3014 30.7406 23.7555L32.2623 28.6078L32.2792 28.5909ZM44.4862 39.0565L46.532 38.6L47.9522 37.0614L45.1287 36.1654L44.4862 39.0565ZM50.4544 34.3056L53.7175 30.7551L47.7662 24.2627L45.8557 32.8515L50.4544 34.3056ZM56 28.2697L63.3377 20.2557L62.2388 15.3188C60.0915 14.8623 57.9951 14.2367 55.9493 13.459C53.9373 14.2198 51.8577 14.8285 49.7443 15.285L48.6454 20.2557L55.9831 28.2697H56ZM58.2825 30.7551L61.5456 34.3056L66.1443 32.8515L64.2338 24.2627L58.2825 30.7551ZM64.0478 37.0614L65.468 38.6L67.5138 39.0565L66.8713 36.1654L64.0478 37.0445V37.0614ZM69.3736 31.854L79.7377 28.5909L81.2594 23.7724C79.6363 22.3014 78.1146 20.7122 76.7452 19.0214C74.6148 18.6833 72.5184 18.1761 70.4726 17.4998L67.0404 21.2532L69.3905 31.854H69.3736ZM79.7208 81.4091L69.3567 78.146L67.0066 88.7468L70.4219 92.4664C72.5014 91.7901 74.6318 91.2829 76.7959 90.9278C78.1654 89.254 79.6532 87.6986 81.2594 86.2445L79.7377 81.3922L79.7208 81.4091ZM67.5138 70.9435L65.468 71.4L64.0478 72.9386L66.8713 73.8346L67.5138 70.9435ZM61.5456 75.6944L58.2825 79.2449L64.2338 85.7373L66.1443 77.1485L61.5456 75.6944ZM56 81.7303L48.6623 89.7443L49.7612 94.6812C51.9085 95.1377 54.0049 95.7633 56.0507 96.541C58.0627 95.7802 60.1423 95.1715 62.2557 94.715L63.3546 89.7443L56.0169 81.7303H56ZM53.7175 79.2449L50.4544 75.6944L45.8557 77.1485L47.7662 85.7373L53.7175 79.2449ZM47.9522 72.9386L46.532 71.4L44.4862 70.9435L45.1287 73.8346L47.9522 72.9555V72.9386ZM42.6264 78.146L32.2623 81.4091L30.7406 86.2276C32.3637 87.6986 33.8854 89.2878 35.2548 90.9786C37.3852 91.3167 39.4817 91.8239 41.5274 92.5002L44.9596 88.7468L42.6095 78.146H42.6264ZM21.2557 62.3377L29.2697 55L21.2557 47.6623L16.3188 48.7612C15.8623 50.9085 15.2367 53.0049 14.459 55.0507C15.2198 57.0627 15.8285 59.1423 16.285 61.2557L21.2557 62.3546V62.3377ZM15.9637 37.1798C12.9542 39.0903 9.72496 40.612 6.3266 41.694C8.72743 44.3654 10.7732 47.3072 12.4301 50.4858C12.8528 48.9979 13.174 47.4932 13.4276 45.9377L18.2462 44.8726L14.5942 41.5249C15.1522 40.0878 15.6087 38.6338 15.9806 37.1798H15.9637ZM7.22269 13.8478C4.19629 12.0895 1.38969 9.95918 -1.11258 7.50763L-8.02763 10.179C-8.16289 12.4614 -8.85608 14.7608 -10.0734 16.8573C-11.2907 18.9707 -12.9307 20.7122 -14.8412 21.9633L-13.7085 29.2503C-10.327 30.1971 -7.09772 31.5497 -4.05443 33.2911C-1.28165 34.8804 1.30516 36.7909 3.65526 38.972C8.40619 37.6701 12.9035 35.4553 16.8767 32.4289C17.5192 27.4581 17.181 22.4367 15.9468 17.6689C12.9035 16.7221 9.97856 15.4371 7.20578 13.8309L7.22269 13.8478ZM34.325 -5.02062C32.5835 -8.06392 31.214 -11.2932 30.2841 -14.6746L22.9633 -15.8243C21.7122 -13.9138 19.9538 -12.2738 17.8573 -11.0565C15.7439 -9.83917 13.4445 -9.14598 11.179 -9.01072L8.52454 -2.12948C10.9761 0.372784 13.1064 3.17938 14.8647 6.20577C16.4709 8.97855 17.7559 11.9204 18.7027 14.9806C23.4705 16.2148 28.4581 16.553 33.4289 15.9274C36.4722 11.9373 38.687 7.44 40.0058 2.67216C37.8417 0.338968 35.948 -2.24784 34.3588 -5.00371L34.325 -5.02062ZM38.1291 15.0144C39.6169 14.6425 41.1047 14.1691 42.5588 13.5942L45.8895 17.2293L46.9715 12.3769C48.4932 12.1402 49.981 11.819 51.4351 11.4132C48.2734 9.75629 45.3485 7.71052 42.694 5.3266C41.5951 8.74186 40.0565 11.988 38.1291 14.9975V15.0144ZM62.7967 -22.8577C60.7678 -21.8264 58.4177 -21.2854 55.9831 -21.2854C53.5485 -21.2854 51.2153 -21.8433 49.1695 -22.8577L43.4379 -18.2252C44.3002 -14.8268 44.7567 -11.3439 44.7567 -7.84412C44.7567 -4.63175 44.4016 -1.4532 43.6916 1.67464C47.1913 5.12371 51.3505 7.93031 55.9662 9.85773C60.5988 7.93031 64.7748 5.14062 68.2915 1.67464C67.5814 -1.43629 67.2264 -4.61485 67.2433 -7.81031C67.2433 -11.3101 67.6998 -14.793 68.5621 -18.1913L62.7798 -22.8408L62.7967 -22.8577ZM69.306 5.3266C66.6346 7.72742 63.6928 9.77319 60.5142 11.4301C62.0021 11.8528 63.5068 12.174 65.0623 12.4276L66.1274 17.2462L69.4751 13.5942C70.9122 14.1522 72.3662 14.6087 73.8202 14.9806C71.9097 11.9711 70.388 8.74186 69.306 5.3435V5.3266ZM103.492 -2.11258L100.821 -9.02763C98.5386 -9.16289 96.2392 -9.85608 94.1427 -11.0734C92.0293 -12.2907 90.2878 -13.9307 89.0367 -15.8412L81.7497 -14.7085C80.8029 -11.327 79.4503 -8.09773 77.7089 -5.05443C76.1196 -2.28165 74.2091 0.305157 72.028 2.65526C73.3299 7.40619 75.5447 11.9035 78.5711 15.8767C83.5419 16.5192 88.5633 16.181 93.3311 14.9468C94.2779 11.9035 95.5629 8.97855 97.1691 6.20577C98.9274 3.17938 101.058 0.372784 103.509 -2.12948L103.492 -2.11258ZM116.021 33.3249C119.064 31.5835 122.293 30.214 125.675 29.2841L126.824 21.9633C124.914 20.7122 123.274 18.9538 122.056 16.8573C120.839 14.7439 120.146 12.4445 120.011 10.179L113.129 7.52454C110.627 9.97608 107.821 12.1064 104.794 13.8647C102.021 15.4709 99.0796 16.7559 96.0194 17.7027C94.7852 22.4705 94.447 27.4581 95.0726 32.4289C99.0627 35.4722 103.56 37.687 108.328 39.0058C110.661 36.8417 113.248 34.948 116.004 33.3588L116.021 33.3249ZM118.827 66.2433C122.327 66.2433 125.81 66.6998 129.208 67.5621L133.858 61.7798C132.826 59.7509 132.285 57.4008 132.285 54.9662C132.285 52.5315 132.843 50.1983 133.858 48.1526L129.225 42.421C125.827 43.2833 122.344 43.7398 118.844 43.7398C115.632 43.7398 112.453 43.3847 109.325 42.6746C105.876 46.1744 103.07 50.3336 101.142 54.9493C103.07 59.5819 105.859 63.7579 109.325 67.2746C112.436 66.5645 115.615 66.2095 118.81 66.2264L118.827 66.2433ZM104.777 96.1522C107.804 97.9105 110.61 100.041 113.113 102.492L120.028 99.821C120.163 97.5386 120.856 95.2392 122.073 93.1427C123.291 91.0293 124.931 89.2878 126.841 88.0367L125.708 80.7497C122.327 79.8029 119.098 78.4503 116.054 76.7089C113.282 75.1196 110.695 73.2091 108.345 71.028C103.594 72.3299 99.0965 74.5447 95.1233 77.5711C94.4808 82.5419 94.819 87.5633 96.0532 92.3311C99.0965 93.2779 102.021 94.5629 104.794 96.1691L104.777 96.1522ZM77.6751 115.021C79.4165 118.064 80.786 121.293 81.7159 124.675L89.0367 125.824C90.2878 123.914 92.0462 122.274 94.1427 121.056C96.2561 119.839 98.5555 119.146 100.821 119.011L103.475 112.129C101.024 109.627 98.8936 106.821 97.1353 103.794C95.5291 101.021 94.2441 98.0796 93.2973 95.0194C88.5295 93.7851 83.5419 93.447 78.5711 94.0726C75.5278 98.0627 73.313 102.56 71.9942 107.328C74.1583 109.661 76.052 112.248 77.6412 115.004L77.6751 115.021ZM73.8709 94.9856C72.3831 95.3575 70.8953 95.8309 69.4412 96.4058L66.1105 92.7707L65.0285 97.6231C63.5068 97.8598 62.019 98.181 60.5649 98.5868C63.7266 100.244 66.6515 102.289 69.306 104.673C70.4049 101.258 71.9435 98.012 73.8709 95.0025V94.9856ZM49.2033 132.858C51.2322 131.826 53.5823 131.285 56.0169 131.285C58.4515 131.285 60.7847 131.843 62.8305 132.858L68.5621 128.225C67.6998 124.827 67.2433 121.344 67.2433 117.844C67.2433 114.632 67.5984 111.453 68.3084 108.325C64.8087 104.876 60.6495 102.07 56.0338 100.142C51.4012 102.07 47.2252 104.859 43.7085 108.325C44.4186 111.436 44.7736 114.615 44.7567 117.81C44.7567 121.31 44.3002 124.793 43.4379 128.191L49.2202 132.841L49.2033 132.858ZM42.694 104.673C45.3654 102.273 48.3072 100.227 51.4858 98.5699C49.9979 98.1472 48.4932 97.826 46.9377 97.5724L45.8726 92.7538L42.5249 96.4058C41.0878 95.8478 39.6338 95.3913 38.1798 95.0194C40.0903 98.0289 41.612 101.258 42.694 104.656V104.673ZM8.50763 112.113L11.179 119.028C13.4614 119.163 15.7608 119.856 17.8573 121.073C19.9707 122.291 21.7122 123.931 22.9633 125.841L30.2503 124.708C31.1971 121.327 32.5497 118.098 34.2911 115.054C35.8804 112.282 37.7909 109.695 39.972 107.345C38.6701 102.594 36.4553 98.0965 33.4289 94.1233C28.4581 93.4808 23.4367 93.819 18.6689 95.0532C17.7221 98.0965 16.4371 101.021 14.8309 103.794C13.0726 106.821 10.9423 109.627 8.49072 112.129L8.50763 112.113ZM-10.0565 93.1596C-8.83917 95.273 -8.14598 97.5724 -8.01073 99.8379L-1.12949 102.492C1.37279 100.041 4.17938 97.9105 7.20578 96.1522C9.97856 94.546 12.9204 93.261 15.9806 92.3142C17.2149 87.5464 17.553 82.5588 16.9274 77.588C12.9373 74.5447 8.44 72.3299 3.67216 71.0111C1.33897 73.1753 -1.24783 75.0689 -4.00371 76.6581C-7.04701 78.3996 -10.2763 79.7691 -13.6577 80.699L-14.8074 88.0198C-12.8969 89.2709 -11.2569 91.0293 -10.0396 93.1258L-10.0565 93.1596Z" fill="#2AB695"/>
<path opacity="0.1" d="M49.7782 65.7701L48.9497 65.5841L46.0586 64.9416L45.4161 62.0505L45.2302 61.2221L44.6046 60.6472L42.4236 58.6522L43.3196 55.8287L43.5732 55.0171L43.3196 54.2056L42.4236 51.3821L44.6046 49.387L45.2302 48.8122L45.4161 47.9837L46.0586 45.0926L48.9497 44.4501L49.7782 44.2641L50.353 43.6385L52.3481 41.4575L55.1716 42.3536L55.9831 42.6072L56.7947 42.3536L59.6182 41.4575L61.6132 43.6385L62.1881 44.2641L63.0165 44.4501L65.9077 45.0926L66.5502 47.9837L66.7361 48.8122L67.3617 49.387L69.5427 51.3821L68.6466 54.2056L68.393 55.0171L68.6466 55.8287L69.5427 58.6522L67.3617 60.6472L66.7361 61.2221L66.5502 62.0505L65.9077 64.9416L63.0165 65.5841L62.1881 65.7701L61.6132 66.3957L59.6182 68.5767L56.7947 67.6806L55.9831 67.427L55.1716 67.6806L52.3481 68.5767L50.353 66.3957L49.7782 65.7701ZM51.3675 63.0142L52.0099 63.7243L52.5848 64.3499L53.278 65.1107L54.2586 64.8064L55.0702 64.5528L55.9831 64.2654L56.8961 64.5528L57.7077 64.8064L58.6883 65.1107L59.3815 64.3499L59.9563 63.7243L60.5988 63.0142L61.5287 62.8113L62.3572 62.6253L63.3547 62.4056L63.5745 61.3911L63.7605 60.5627L63.9633 59.6328L64.6735 58.9903L65.299 58.4155L66.0598 57.7223L65.7555 56.7416L65.5019 55.9301L65.2145 55.0171L65.5019 54.1041L65.7555 53.2926L66.0598 52.3119L65.299 51.6188L64.6735 51.0439L63.9633 50.4014L63.7605 49.4715L63.5745 48.6431L63.3547 47.6456L62.3403 47.4258L61.5118 47.2398L60.5819 47.0369L59.9394 46.3268L59.3646 45.7012L58.6714 44.9404L57.6908 45.2447L56.8792 45.4983L55.9662 45.7858L55.0532 45.4983L54.2417 45.2447L53.2611 44.9404L52.5679 45.7012L51.993 46.3268L51.3506 47.0369L50.4207 47.2398L49.5922 47.4258L48.5947 47.6456L48.3749 48.66L48.1889 49.4884L47.986 50.4183L47.2759 51.0608L46.6504 51.6357L45.8895 52.3289L46.1939 53.3095L46.4475 54.121L46.7349 55.034L46.4475 55.947L46.1939 56.7585L45.8895 57.7392L46.6504 58.4324L47.2759 59.0072L47.986 59.6497L48.1889 60.5796L48.3749 61.408L48.5947 62.4056L49.6091 62.6253L50.4376 62.8113L51.3675 63.0142Z" fill="#2AB695"/>
<rect width="161" height="153" rx="76.5" transform="matrix(-1 0 0 1 127 0)" fill="url(#paint0_linear_1_300)"/>
</g>
<defs>
<linearGradient id="paint0_linear_1_300" x1="-6.4635" y1="27.0692" x2="91.6566" y2="133.355" gradientUnits="userSpaceOnUse">
<stop stop-color="#FCFCFF" stop-opacity="0"/>
<stop offset="1" stop-color="#FCFCFF"/>
</linearGradient>
<clipPath id="clip0_1_300">
<rect width="164" height="164" fill="white" transform="matrix(-1 0 0 1 138 -27)"/>
</clipPath>
</defs>
</svg>
