<svg width="72" height="72" viewBox="0 0 72 72" fill="none" xmlns="http://www.w3.org/2000/svg">
<g opacity="0.5" clip-path="url(#clip0_1645_1946)">
<path d="M35.999 1.05957C35.999 1.05957 36.8753 3.4684 43.3374 3.4684C49.7995 3.4684 60.3067 -1.89135 60.5289 11.4673C73.8891 11.6894 68.5275 22.2663 68.5275 28.6592C68.5275 35.0522 70.9363 35.9978 70.9363 35.9978C70.9363 35.9978 68.5275 36.8741 68.5275 43.3364C68.5275 49.7987 73.8891 60.3062 60.5289 60.5284C60.3067 73.889 49.7302 68.5272 43.3374 68.5272C36.9446 68.5272 35.999 70.9361 35.999 70.9361C35.999 70.9361 35.1227 68.5272 28.6606 68.5272C22.1986 68.5272 11.6913 73.889 11.4692 60.5284C-1.89111 60.3062 3.47053 49.7294 3.47053 43.3364C3.47053 36.9434 1.06177 35.9978 1.06177 35.9978C1.06177 35.9978 3.47053 35.1215 3.47053 28.6592C3.47053 22.197 -1.89111 11.6914 11.4692 11.4693C11.6913 -1.89135 22.2678 3.47044 28.6606 3.47044C35.0534 3.47044 35.999 1.06161 35.999 1.06161V1.05957Z" fill="#F7F9FD"/>
<path d="M35.9886 71.9994C35.5525 71.9994 35.1755 71.7018 35.0268 71.2922C35.0206 71.2922 34.0465 69.562 28.6604 69.562C27.3623 69.562 25.8482 69.8025 24.2464 70.0552C20.4967 70.6503 16.2478 71.3248 13.4029 68.9363C11.634 67.4507 10.6701 65.0215 10.4704 61.5264C6.97547 61.3267 4.54633 60.3628 3.06072 58.5939C0.672338 55.751 1.34687 51.4998 1.94193 47.748C2.19666 46.1462 2.4351 44.632 2.4351 43.3339C2.4351 37.8987 0.672338 36.9551 0.653997 36.947C0.244385 36.7982 -0.00219727 36.4192 -0.00219727 35.9851C-0.00219727 35.551 0.295332 35.172 0.704944 35.0232C0.694754 35.0232 2.4351 34.0592 2.4351 28.6567C2.4351 27.3585 2.19463 25.8444 1.94193 24.2426C1.34687 20.4928 0.674376 16.2416 3.06072 13.3967C4.54633 11.6278 6.97547 10.6638 10.4704 10.4641C10.6701 6.96908 11.634 4.53987 13.4029 3.05422C16.2457 0.665765 20.4988 1.34032 24.2485 1.93336C25.8523 2.1881 27.3644 2.42653 28.6625 2.42653C34.0975 2.42653 35.041 0.665765 35.0492 0.647424C35.1979 0.2378 35.5749 -0.00878906 36.011 -0.00878906C36.4308 -0.00878906 36.7956 0.266331 36.9546 0.6515C37.0177 0.761548 38.055 2.4245 43.3372 2.4245C44.6353 2.4245 46.1474 2.18402 47.7512 1.93132C51.5029 1.33624 55.7519 0.663727 58.5968 3.05218C60.3656 4.53783 61.3295 6.96704 61.5293 10.4621C65.0242 10.6618 67.4533 11.6257 68.9389 13.3947C71.3253 16.2376 70.6528 20.4887 70.0577 24.2405C69.803 25.8423 69.5646 27.3565 69.5646 28.6547C69.5646 34.0898 71.3273 35.0334 71.3436 35.0415C71.7533 35.1903 71.9998 35.5694 71.9998 36.0034C71.9998 36.4375 71.7023 36.8166 71.2927 36.9653C71.3029 36.9653 69.5625 37.9293 69.5625 43.3318C69.5625 44.63 69.803 46.1421 70.0557 47.746C70.6508 51.4958 71.3233 55.7469 68.9369 58.5918C67.4513 60.3608 65.0222 61.3247 61.5272 61.5244C61.3275 65.0195 60.3636 67.4487 58.5947 68.9343C55.7499 71.3228 51.5009 70.6482 47.7512 70.0531C46.1474 69.7984 44.6353 69.56 43.3372 69.56C37.9022 69.56 36.9587 71.3228 36.9505 71.3391C36.8017 71.7487 36.4227 71.9953 35.9886 71.9953V71.9994ZM28.6625 67.4955C32.8401 67.4955 34.9534 68.488 36.0009 69.3541C37.0483 68.488 39.1596 67.4955 43.3392 67.4955C44.8004 67.4955 46.392 67.7482 48.0773 68.0152C51.5518 68.5675 55.1466 69.1361 57.2681 67.3549C58.7109 66.1424 59.4404 63.9047 59.4975 60.5136C59.5077 59.9552 59.956 59.5048 60.5144 59.4967C63.9054 59.4396 66.143 58.71 67.3555 57.2672C69.1366 55.1457 68.566 51.5528 68.0158 48.0761C67.7488 46.3908 67.4961 44.7991 67.4961 43.3379C67.4961 39.1581 68.4886 37.0469 69.3547 35.9994C68.4886 34.9519 67.4961 32.8406 67.4961 28.6608C67.4961 27.1996 67.7488 25.608 68.0158 23.9226C68.566 20.4479 69.1366 16.853 67.3555 14.7315C66.143 13.2887 63.9054 12.5591 60.5144 12.5021C59.956 12.4919 59.5056 12.0415 59.4975 11.4851C59.4404 8.09401 58.7129 5.85637 57.2681 4.6438C55.1466 2.86265 51.5539 3.43327 48.0773 3.98351C46.392 4.25048 44.8004 4.50318 43.3392 4.50318C39.1616 4.50318 37.0483 3.51071 36.0009 2.64459C34.9534 3.51071 32.8422 4.50318 28.6625 4.50318C27.2013 4.50318 25.6098 4.25048 23.9244 3.98351C20.4499 3.43327 16.8551 2.86265 14.7336 4.6438C13.2908 5.85637 12.5613 8.09401 12.5042 11.4851C12.494 12.0435 12.0437 12.4939 11.4873 12.5021C8.0963 12.5591 5.85872 13.2867 4.64618 14.7315C2.86509 16.853 3.43569 20.4459 3.98591 23.9226C4.25288 25.608 4.50557 27.1996 4.50557 28.6608C4.50557 32.8385 3.51313 34.9519 2.64703 35.9994C3.51313 37.0469 4.50557 39.1581 4.50557 43.3379C4.50557 44.7991 4.25288 46.3908 3.98591 48.0761C3.43569 51.5508 2.86509 55.1457 4.64618 57.2672C5.85872 58.7121 8.0963 59.4417 11.4873 59.4967C12.0457 59.5069 12.4961 59.9572 12.5042 60.5136C12.5613 63.9047 13.2888 66.1424 14.7336 67.3549C16.853 69.1361 20.4478 68.5655 23.9244 68.0152C25.6098 67.7482 27.2013 67.4955 28.6625 67.4955Z" fill="#35AAAA"/>
<path d="M35.999 67.0702C35.9582 67.0702 35.9175 67.06 35.8788 67.0417C34.0773 66.1022 31.6481 65.6253 28.6606 65.6253C27.0487 65.6253 25.3104 65.9004 23.6291 66.1674C22.0151 66.4221 20.3482 66.6871 18.9155 66.6871C16.8186 66.6871 14.4791 66.6871 14.3752 60.4836C14.3487 58.9063 13.0933 57.6509 11.5181 57.6244C8.77916 57.5775 6.89821 57.0375 6.07898 56.0634C4.84607 54.5961 5.37184 51.2885 5.83444 48.3702C6.1014 46.6869 6.37651 44.9485 6.37651 43.3385C6.37651 40.3509 5.89965 37.9217 4.96019 36.1202C4.92147 36.0448 4.92147 35.9551 4.96019 35.8797C5.89965 34.0782 6.37651 31.649 6.37651 28.6614C6.37651 27.0494 6.1014 25.311 5.83444 23.6297C5.37184 20.7094 4.84811 17.4039 6.07898 15.9366C6.89821 14.9604 8.77916 14.4203 11.5181 14.3755C13.0954 14.349 14.3507 13.0936 14.3772 11.5163C14.4811 5.31284 16.8389 5.31284 18.9176 5.31284C20.3502 5.31284 22.0172 5.57777 23.6312 5.83251C25.3144 6.09948 27.0527 6.3746 28.6627 6.3746C31.6502 6.3746 34.0793 5.89772 35.8808 4.95824C35.9562 4.91952 36.0459 4.91952 36.1213 4.95824C37.9207 5.89772 40.3499 6.3746 43.3394 6.3746C44.9493 6.3746 46.6876 6.09948 48.3709 5.83251C49.9849 5.57777 51.6519 5.31284 53.0845 5.31284C55.1652 5.31284 57.523 5.31284 57.6249 11.5163C57.6514 13.0936 58.9067 14.349 60.484 14.3755C63.2229 14.4224 65.1039 14.9604 65.9231 15.9366C67.154 17.4039 66.6302 20.7094 66.1697 23.6257C65.9027 25.311 65.6256 27.0494 65.6256 28.6614C65.6256 31.649 66.1024 34.0782 67.0419 35.8797C67.0806 35.9551 67.0806 36.0448 67.0419 36.1202C66.1024 37.9217 65.6256 40.3509 65.6256 43.3385C65.6256 44.9485 65.9007 46.6869 66.1676 48.3702C66.6302 51.2885 67.154 54.5961 65.9231 56.0634C65.1039 57.0395 63.2229 57.5796 60.484 57.6244C58.9067 57.6509 57.6514 58.9063 57.6249 60.4836C57.5209 66.6871 55.1652 66.6871 53.0845 66.6871C51.6519 66.6871 49.9849 66.4221 48.3709 66.1674C46.6897 65.9004 44.9514 65.6253 43.3394 65.6253C40.3499 65.6253 37.9207 66.1022 36.1213 67.0417C36.0846 67.0621 36.0418 67.0702 36.001 67.0702H35.999ZM28.6627 65.1057C31.6685 65.1057 34.1364 65.5805 36.001 66.52C37.8637 65.5805 40.3315 65.1057 43.3394 65.1057C44.9921 65.1057 46.7508 65.3848 48.4524 65.6539C50.046 65.9066 51.6926 66.1674 53.0845 66.1674C55.1061 66.1674 57.0135 66.1674 57.1073 60.4734C57.1378 58.6169 58.6173 57.1374 60.4738 57.1068C63.0578 57.064 64.8043 56.5871 65.5257 55.7291C66.6058 54.4432 66.1004 51.2579 65.6561 48.4497C65.3871 46.748 65.1079 44.9872 65.1079 43.3365C65.1079 40.3285 65.5828 37.8606 66.5222 35.9979C65.5828 34.1353 65.1079 31.6673 65.1079 28.6593C65.1079 27.0066 65.3871 25.2479 65.6561 23.5462C66.1024 20.7338 66.6058 17.5526 65.5257 16.2667C64.8063 15.4087 63.0599 14.9339 60.4738 14.8911C58.6173 14.8605 57.1378 13.381 57.1073 11.5244C57.0115 5.83047 55.104 5.83047 53.0825 5.83047C51.6906 5.83047 50.044 6.09133 48.4504 6.34403C46.7488 6.61304 44.988 6.89223 43.3394 6.89223C40.3315 6.89223 37.8637 6.4174 36.001 5.47791C34.1384 6.4174 31.6706 6.89223 28.6627 6.89223C27.012 6.89223 25.2533 6.61304 23.5517 6.34403C21.9581 6.09133 20.3115 5.83047 18.9196 5.83047C16.898 5.83047 14.9906 5.83047 14.8948 11.5244C14.8642 13.381 13.3847 14.8605 11.5282 14.8911C8.94423 14.9339 7.19777 15.4108 6.47841 16.2667C5.39833 17.5526 5.90169 20.7338 6.34798 23.5421C6.61902 25.2479 6.89821 27.0066 6.89821 28.6593C6.89821 31.6673 6.42338 34.1353 5.48392 35.9979C6.42338 37.8606 6.89821 40.3285 6.89821 43.3365C6.89821 44.9872 6.61902 46.746 6.35002 48.4476C5.90373 51.2579 5.39833 54.4412 6.48044 55.7271C7.19981 56.5851 8.94831 57.0619 11.5323 57.1047C13.3888 57.1353 14.8683 58.6149 14.8989 60.4714C14.9947 66.1654 16.8858 66.1654 18.8911 66.1654C20.3135 66.1654 21.9621 65.9045 23.5537 65.6518C25.2553 65.3828 27.014 65.1036 28.6667 65.1036L28.6627 65.1057Z" fill="#35AAAA"/>
</g>
<g clip-path="url(#clip1_1645_1946)">
<path fill-rule="evenodd" clip-rule="evenodd" d="M33.0114 29.4805H37.9875L38.3905 33.7064L39.6085 34.6072L46.8544 36.9215C46.8544 36.9215 47.8049 37.4482 48.0841 38.9212C48.3628 40.3943 48.4983 43.6508 48.7142 45.6381C43.7568 51.3631 27.5811 51.372 22.2847 45.6381C22.5 43.6508 22.6355 40.3943 22.9148 38.9212C23.194 37.4482 24.1444 36.9215 24.1444 36.9215L31.4403 34.5753L32.6083 33.707L33.0108 29.4805H33.0114Z" fill="#FFCE7B"/>
<path fill-rule="evenodd" clip-rule="evenodd" d="M38.2069 31.7751L38.2708 32.4454C37.9001 32.8799 37.5187 33.2954 37.1579 33.6956C36.749 34.149 34.2199 34.1573 33.8069 33.6773C33.4695 33.2854 33.0993 32.8604 32.7327 32.4088L32.796 31.7432C33.1416 32.1475 33.4895 32.5282 33.8069 32.8811C34.2199 33.3392 36.7496 33.3315 37.1579 32.8982C37.4982 32.5382 37.8566 32.1646 38.2069 31.7757V31.7751Z" fill="#F9A353"/>
<path fill-rule="evenodd" clip-rule="evenodd" d="M31.4403 34.5752L24.1445 36.9213C24.1445 36.9213 23.1941 37.448 22.9148 38.9211C22.7065 40.0206 22.5786 49.1782 22.4373 54.5787L33.2719 60.8818C34.6887 61.7058 36.3108 61.7058 37.7277 60.8818L48.5623 54.5787C48.4209 49.1782 48.2924 40.0206 48.0847 38.9211C47.8049 37.448 46.8551 36.9213 46.8551 36.9213L39.6085 34.6071C38.4082 38.155 32.5843 38.0072 31.4403 34.5758V34.5752Z" fill="#696D78"/>
<path fill-rule="evenodd" clip-rule="evenodd" d="M29.2859 23.062C27.7254 22.783 29.056 27.4794 30.1959 26.7796L30.8078 28.5896C31.3586 30.2205 32.749 31.7048 33.8068 32.8805C34.2198 33.3392 36.7496 33.3315 37.1579 32.8982C38.3295 31.6569 39.721 30.2624 40.2438 28.5807L40.8034 26.7796C41.9451 27.4789 43.2727 22.7836 41.7134 23.062C41.8213 19.4065 39.2558 15.8598 35.4999 15.8433C31.7441 15.8598 29.178 19.4059 29.2865 23.062H29.2859Z" fill="#FFCE7B"/>
<path fill-rule="evenodd" clip-rule="evenodd" d="M39.9799 16.5633C40.4205 16.5118 42.0133 17.9772 42.2045 19.6749C42.3958 21.3726 42.1054 23.1217 42.1054 23.1217C40.9385 22.9751 41.1626 25.0842 41.1626 25.0842L40.8247 25.099L40.5842 23.876C39.1885 22.9946 41.135 19.5124 39.7382 19.2067C37.3487 21.19 33.8034 21.9241 30.7105 21.4146C29.8422 21.531 31.1053 22.637 30.7392 23.9085C30.4694 24.3838 30.6301 25.1321 30.6301 25.1321L30.2265 25.183C30.2265 25.183 29.9766 23.0555 29.1981 23.0644C28.8378 22.0843 28.9118 21.4631 28.978 20.5876C29.3441 15.7339 35.4637 12.6879 39.9805 16.5627L39.9799 16.5633Z" fill="#696D78"/>
<path fill-rule="evenodd" clip-rule="evenodd" d="M22.3293 37.796C30.4512 36.7261 33.6838 38.7797 35.5001 40.3964C32.8008 38.8305 27.6199 38.934 22.5576 39.8455L22.3293 37.796Z" fill="white"/>
<path fill-rule="evenodd" clip-rule="evenodd" d="M48.6702 37.796C40.5483 36.7261 37.3163 38.7797 35.5 40.3964C38.7202 38.5279 44.7729 39.1982 48.4379 39.8744L48.6708 37.796H48.6702Z" fill="white"/>
<path fill-rule="evenodd" clip-rule="evenodd" d="M20.3264 40.1684C26.0535 38.8531 32.4723 38.4382 35.5869 40.2446C38.7015 38.4376 44.9455 38.8531 50.6731 40.1684C50.3452 51.5214 50.6186 42.0458 50.1821 57.1991C49.8465 57.1353 40.7942 55.7787 36.4188 57.1016C35.6902 57.1016 35.5212 57.1016 34.7896 57.1016C29.986 55.6935 21.1331 57.1394 20.8175 57.1991C20.3663 41.5534 20.6649 51.9311 20.3264 40.1684Z" fill="#35AAAA"/>
<path fill-rule="evenodd" clip-rule="evenodd" d="M21.0498 39.1528L21.1372 40.0548C26.6701 38.8714 32.6806 38.5646 35.6626 40.2942C35.652 40.2859 31.2344 36.939 21.0504 39.1528H21.0498Z" fill="#ECF0F1"/>
<path fill-rule="evenodd" clip-rule="evenodd" d="M49.9496 39.2028L49.8628 40.1049C44.3299 38.9214 38.3195 38.6146 35.3374 40.3443C35.348 40.336 39.7656 36.9891 49.9502 39.2022L49.9496 39.2028Z" fill="#ECF0F1"/>
<path fill-rule="evenodd" clip-rule="evenodd" d="M23.441 44.7963L21.8458 44.882L20.2577 44.9955C19.6006 45.0428 19.7104 46.2286 20.3651 46.1506L22.0958 45.9437L23.4105 45.8326C24.0676 45.7764 23.8828 44.7721 23.441 44.7963ZM23.2216 48.4855L20.7476 48.7769C20.2167 48.839 20.3445 50.0307 20.8549 49.932L23.3366 49.4508C23.8552 49.3503 23.7455 48.424 23.2216 48.4855ZM23.536 47.1921C24.1925 47.1301 24.3269 48.1521 23.6721 48.2366L20.5393 48.6398C19.8852 48.7243 19.7761 47.5468 20.432 47.4853L23.5354 47.1927L23.536 47.1921ZM23.9737 45.9017C24.7428 45.829 24.8496 46.9841 24.0811 47.0568L20.4408 47.4002C19.6722 47.4729 19.5654 46.3179 20.3334 46.2452L23.9737 45.9017Z" fill="#FFCE7B"/>
<path fill-rule="evenodd" clip-rule="evenodd" d="M23.2344 45.0588L23.2907 45.6623L23.6902 45.6245C23.7571 45.3981 23.7289 45.1847 23.6304 44.979L23.2344 45.0588Z" fill="white"/>
<path fill-rule="evenodd" clip-rule="evenodd" d="M23.9209 46.1804L23.9843 46.8661L24.3574 46.8306C24.4894 46.5717 24.4835 46.3258 24.2893 46.0977L23.9209 46.1804Z" fill="white"/>
<path fill-rule="evenodd" clip-rule="evenodd" d="M23.4221 47.4621L23.4784 48.0656L23.936 48.0225C23.9836 47.8008 23.9654 47.5856 23.8762 47.377L23.4227 47.4621H23.4221Z" fill="white"/>
<path fill-rule="evenodd" clip-rule="evenodd" d="M23.0474 48.7959L23.1201 49.2735L23.5789 49.1943C23.6205 49.0123 23.5965 48.842 23.5009 48.6836L23.0474 48.7959Z" fill="white"/>
<path fill-rule="evenodd" clip-rule="evenodd" d="M47.5585 44.7963L49.1537 44.882L50.7418 44.9955C51.3994 45.0428 51.2891 46.2286 50.6344 46.1506L48.9037 45.9437L47.5896 45.8326C46.9325 45.7764 47.1173 44.7721 47.5591 44.7963H47.5585ZM47.7779 48.4855L50.2525 48.7769C50.7834 48.839 50.655 50.0307 50.1451 49.932L47.6635 49.4508C47.1449 49.3503 47.2546 48.424 47.7785 48.4855H47.7779ZM47.4635 47.1921C46.807 47.1301 46.6732 48.1521 47.3274 48.2366L50.4596 48.6398C51.1137 48.7243 51.2234 47.5468 50.567 47.4853L47.4635 47.1927V47.1921ZM47.0264 45.9017C46.2573 45.829 46.1499 46.9841 46.919 47.0568L50.5593 47.4002C51.3279 47.4729 51.4346 46.3179 50.6667 46.2452L47.0264 45.9017Z" fill="#FFCE7B"/>
<path fill-rule="evenodd" clip-rule="evenodd" d="M47.765 45.0588L47.7087 45.6623L47.3092 45.6245C47.2417 45.3981 47.2705 45.1847 47.369 44.979L47.7644 45.0588H47.765Z" fill="white"/>
<path fill-rule="evenodd" clip-rule="evenodd" d="M47.0792 46.1804L47.0152 46.8661L46.6421 46.8306C46.5101 46.5717 46.516 46.3258 46.7102 46.0977L47.0786 46.1804H47.0792Z" fill="white"/>
<path fill-rule="evenodd" clip-rule="evenodd" d="M47.5772 47.4621L47.5209 48.0656L47.0639 48.0225C47.0163 47.8008 47.0345 47.5856 47.1237 47.377L47.5772 47.4621Z" fill="white"/>
<path fill-rule="evenodd" clip-rule="evenodd" d="M47.952 48.7959L47.8793 49.2735L47.4205 49.1943C47.3788 49.0123 47.4029 48.842 47.4985 48.6836L47.952 48.7959Z" fill="white"/>
<path fill-rule="evenodd" clip-rule="evenodd" d="M34.8076 57.1008H36.4186V39.8667H34.8076V57.1008Z" fill="#2D9293"/>
</g>
<defs>
<clipPath id="clip0_1645_1946">
<rect width="72" height="72" fill="white"/>
</clipPath>
<clipPath id="clip1_1645_1946">
<rect width="45" height="51" fill="white" transform="translate(13 10.5)"/>
</clipPath>
</defs>
</svg>
