<svg width="40" height="40" viewBox="0 0 40 40" fill="none" xmlns="http://www.w3.org/2000/svg">
<path d="M3.3335 11.6667C3.3335 9.33312 3.3335 8.16633 3.78763 7.27503C4.18711 6.49103 4.82453 5.85362 5.60853 5.45413C6.49983 5 7.66661 5 10.0002 5C12.3337 5 13.5005 5 14.3918 5.45413C15.1758 5.85362 15.8132 6.49103 16.2127 7.27503C16.6668 8.16633 16.6668 9.33312 16.6668 11.6667V28.3333C16.6668 30.6668 16.6668 31.8337 16.2127 32.725C15.8132 33.509 15.1758 34.1463 14.3918 34.5458C13.5005 35 12.3337 35 10.0002 35C7.66661 35 6.49983 35 5.60853 34.5458C4.82453 34.1463 4.18711 33.509 3.78763 32.725C3.3335 31.8337 3.3335 30.6668 3.3335 28.3333V11.6667Z" stroke="#665FEF" stroke-width="1.5" stroke-linecap="round" stroke-linejoin="round"/>
<path d="M10 28.3333H10.015" stroke="#665FEF" stroke-width="2" stroke-linecap="round" stroke-linejoin="round"/>
<path d="M3.3335 11.6667H16.6668" stroke="#665FEF" stroke-width="1.5" stroke-linecap="round" stroke-linejoin="round"/>
<path d="M19.0811 13.7807C18.4896 11.564 18.194 10.4556 18.3976 9.49331C18.5768 8.64686 19.0181 7.87911 19.6586 7.30008C20.3866 6.6418 21.4905 6.34481 23.698 5.75083C25.9055 5.15686 27.0093 4.85988 27.9675 5.06441C28.8105 5.24433 29.575 5.6876 30.1516 6.33068C30.8071 7.06176 31.103 8.17015 31.6945 10.3869L35.9191 26.2193C36.5106 28.436 36.8063 29.5443 36.6026 30.5067C36.4235 31.3532 35.9821 32.1208 35.3416 32.7C34.6136 33.3582 33.5098 33.6552 31.3023 34.2492C29.0948 34.8432 27.991 35.1402 27.0328 34.9357C26.1898 34.7557 25.4253 34.3123 24.8486 33.6693C24.1931 32.9382 23.8973 31.8298 23.3058 29.6132L19.0811 13.7807Z" stroke="#665FEF" stroke-width="1.5" stroke-linecap="round" stroke-linejoin="round"/>
<path d="M29.6353 27.8255L29.6498 27.8217" stroke="#665FEF" stroke-width="2" stroke-linecap="round" stroke-linejoin="round"/>
<path d="M20 13.3336L30.8335 10" stroke="#665FEF" stroke-width="1.5" stroke-linecap="round" stroke-linejoin="round"/>
</svg>
