<svg width="16" height="16" viewBox="0 0 16 16" fill="none" xmlns="http://www.w3.org/2000/svg">
<path d="M4.38833 4.8252C6.39305 5.17863 7.58787 5.91791 8 6.34234C8.41213 5.91791 9.60693 5.17863 11.6117 4.8252C12.6273 4.64615 13.1351 4.55663 13.5675 4.89976C14 5.24289 14 5.80009 14 6.91449V10.9194C14 11.9384 14 12.4478 13.7225 12.7659C13.4449 13.084 12.8338 13.1917 11.6117 13.4072C10.5222 13.5992 9.67193 13.9052 9.05647 14.2128C8.451 14.5154 8.1482 14.6666 8 14.6666C7.8518 14.6666 7.549 14.5154 6.94353 14.2128C6.32807 13.9052 5.4778 13.5992 4.38833 13.4072C3.16619 13.1917 2.55512 13.084 2.27756 12.7659C2 12.4478 2 11.9384 2 10.9194V6.91449C2 5.80009 2 5.24289 2.43247 4.89976C2.86494 4.55663 3.37274 4.64615 4.38833 4.8252Z" stroke="#AAB0BE" stroke-width="1.5" stroke-linecap="round" stroke-linejoin="round"/>
<path d="M8 6V14.6667" stroke="#AAB0BE" stroke-width="1.5" stroke-linecap="round" stroke-linejoin="round"/>
<path d="M5.66675 2.03909C6.34099 1.59202 7.13935 1.33337 7.99515 1.33337C8.85508 1.33337 9.65708 1.59455 10.3334 2.04565M9.08155 3.66671C8.76148 3.47354 8.39055 3.3631 7.99515 3.3631C7.60395 3.3631 7.23675 3.4712 6.91901 3.66056" stroke="#AAB0BE" stroke-width="1.5" stroke-linecap="round" stroke-linejoin="round"/>
</svg>
