<svg width="34" height="34" viewBox="0 0 34 34" fill="none" xmlns="http://www.w3.org/2000/svg">
<g filter="url(#filter0_bi_1518_1570)">
<circle cx="17" cy="17" r="16" fill="#3A4254" fill-opacity="0.25"/>
<circle cx="17" cy="17" r="16.5" stroke="url(#paint0_linear_1518_1570)" stroke-opacity="0.2"/>
</g>
<path d="M19.9167 24.5C21.0797 24.5 21.6611 24.5 22.1343 24.3565C23.1996 24.0333 24.0333 23.1996 24.3565 22.1343C24.5 21.6611 24.5 21.0797 24.5 19.9167M24.5 14.0833C24.5 12.9204 24.5 12.3389 24.3565 11.8657C24.0333 10.8004 23.1996 9.9667 22.1343 9.64353C21.6611 9.5 21.0797 9.5 19.9167 9.5M14.0833 24.5C12.9204 24.5 12.3389 24.5 11.8657 24.3565C10.8004 24.0333 9.9667 23.1996 9.64353 22.1343C9.5 21.6611 9.5 21.0797 9.5 19.9167M9.5 14.0833C9.5 12.9204 9.5 12.3389 9.64353 11.8657C9.9667 10.8004 10.8004 9.9667 11.8657 9.64353C12.3389 9.5 12.9204 9.5 14.0833 9.5" stroke="white" stroke-width="1.5" stroke-linecap="round" stroke-linejoin="round"/>
<defs>
<filter id="filter0_bi_1518_1570" x="-20" y="-20" width="74" height="74" filterUnits="userSpaceOnUse" color-interpolation-filters="sRGB">
<feFlood flood-opacity="0" result="BackgroundImageFix"/>
<feGaussianBlur in="BackgroundImageFix" stdDeviation="10"/>
<feComposite in2="SourceAlpha" operator="in" result="effect1_backgroundBlur_1518_1570"/>
<feBlend mode="normal" in="SourceGraphic" in2="effect1_backgroundBlur_1518_1570" result="shape"/>
<feColorMatrix in="SourceAlpha" type="matrix" values="0 0 0 0 0 0 0 0 0 0 0 0 0 0 0 0 0 0 127 0" result="hardAlpha"/>
<feMorphology radius="1.46045" operator="dilate" in="SourceAlpha" result="effect2_innerShadow_1518_1570"/>
<feOffset dx="-0.730227" dy="0.730227"/>
<feGaussianBlur stdDeviation="0.365113"/>
<feComposite in2="hardAlpha" operator="arithmetic" k2="-1" k3="1"/>
<feColorMatrix type="matrix" values="0 0 0 0 1 0 0 0 0 1 0 0 0 0 1 0 0 0 0.35 0"/>
<feBlend mode="normal" in2="shape" result="effect2_innerShadow_1518_1570"/>
</filter>
<linearGradient id="paint0_linear_1518_1570" x1="29.2581" y1="3.19355" x2="17" y2="33" gradientUnits="userSpaceOnUse">
<stop stop-color="white"/>
<stop offset="1" stop-color="white" stop-opacity="0"/>
</linearGradient>
</defs>
</svg>
