<svg width="34" height="34" viewBox="0 0 34 34" fill="none" xmlns="http://www.w3.org/2000/svg">
<g filter="url(#filter0_bi_1518_1562)">
<circle cx="17" cy="17" r="16" fill="#3A4254" fill-opacity="0.25"/>
<circle cx="17" cy="17" r="16.5" stroke="url(#paint0_linear_1518_1562)" stroke-opacity="0.2"/>
</g>
<path d="M14 9V12C14 13.1046 13.1046 14 12 14H9" stroke="white" stroke-width="1.5" stroke-linecap="round" stroke-linejoin="round"/>
<path d="M20 25L20 22C20 20.8954 20.8954 20 22 20L25 20" stroke="white" stroke-width="1.5" stroke-linecap="round" stroke-linejoin="round"/>
<path d="M25 14L22 14C20.8954 14 20 13.1046 20 12L20 9" stroke="white" stroke-width="1.5" stroke-linecap="round" stroke-linejoin="round"/>
<path d="M9 20L12 20C13.1046 20 14 20.8954 14 22L14 25" stroke="white" stroke-width="1.5" stroke-linecap="round" stroke-linejoin="round"/>
<defs>
<filter id="filter0_bi_1518_1562" x="-20" y="-20" width="74" height="74" filterUnits="userSpaceOnUse" color-interpolation-filters="sRGB">
<feFlood flood-opacity="0" result="BackgroundImageFix"/>
<feGaussianBlur in="BackgroundImageFix" stdDeviation="10"/>
<feComposite in2="SourceAlpha" operator="in" result="effect1_backgroundBlur_1518_1562"/>
<feBlend mode="normal" in="SourceGraphic" in2="effect1_backgroundBlur_1518_1562" result="shape"/>
<feColorMatrix in="SourceAlpha" type="matrix" values="0 0 0 0 0 0 0 0 0 0 0 0 0 0 0 0 0 0 127 0" result="hardAlpha"/>
<feMorphology radius="1.46045" operator="dilate" in="SourceAlpha" result="effect2_innerShadow_1518_1562"/>
<feOffset dx="-0.730227" dy="0.730227"/>
<feGaussianBlur stdDeviation="0.365113"/>
<feComposite in2="hardAlpha" operator="arithmetic" k2="-1" k3="1"/>
<feColorMatrix type="matrix" values="0 0 0 0 1 0 0 0 0 1 0 0 0 0 1 0 0 0 0.35 0"/>
<feBlend mode="normal" in2="shape" result="effect2_innerShadow_1518_1562"/>
</filter>
<linearGradient id="paint0_linear_1518_1562" x1="29.2581" y1="3.19355" x2="17" y2="33" gradientUnits="userSpaceOnUse">
<stop stop-color="white"/>
<stop offset="1" stop-color="white" stop-opacity="0"/>
</linearGradient>
</defs>
</svg>
