<svg width="26" height="26" viewBox="0 0 26 26" fill="none" xmlns="http://www.w3.org/2000/svg">
<path fill-rule="evenodd" clip-rule="evenodd" d="M3.29646 4.39153C3.25 4.64094 3.25 4.9403 3.25 5.53903C3.25 6.12646 3.25 6.42016 3.28415 6.69251C3.43323 7.88168 4.06125 8.95678 5.02087 9.66558C5.24065 9.8279 5.49553 9.97055 6.00533 10.2558L8.7911 11.8147C10.8484 12.966 11.8771 13.5417 13 13.5417C14.1229 13.5417 15.1516 12.966 17.2089 11.8147L19.9946 10.2558C20.5045 9.97055 20.7594 9.8279 20.9792 9.66558C21.9388 8.95678 22.5668 7.88168 22.7159 6.69251C22.75 6.42016 22.75 6.12646 22.75 5.53903C22.75 4.9403 22.75 4.64094 22.7035 4.39153C22.4976 3.28587 21.6388 2.42095 20.5412 2.21346C20.2935 2.16666 19.9964 2.16666 19.402 2.16666H6.59802C6.00361 2.16666 5.7064 2.16666 5.4588 2.21346C4.36112 2.42095 3.50246 3.28587 3.29646 4.39153Z" stroke="#A5A5B5" stroke-width="1.5" stroke-linecap="round" stroke-linejoin="round"/>
<path fill-rule="evenodd" clip-rule="evenodd" d="M9.479 5.41666C9.479 4.96793 9.11524 4.60416 8.6665 4.60416C8.21777 4.60416 7.854 4.96793 7.854 5.41666V6.49999C7.854 6.94872 8.21777 7.31249 8.6665 7.31249C9.11524 7.31249 9.479 6.94872 9.479 6.49999V5.41666ZM13.8123 5.41666C13.8123 4.96793 13.4486 4.60416 12.9998 4.60416C12.5511 4.60416 12.1873 4.96793 12.1873 5.41666V8.66666C12.1873 9.11539 12.5511 9.47916 12.9998 9.47916C13.4486 9.47916 13.8123 9.11539 13.8123 8.66666V5.41666ZM18.1457 5.41666C18.1457 4.96793 17.7819 4.60416 17.3332 4.60416C16.8844 4.60416 16.5207 4.96793 16.5207 5.41666V6.49999C16.5207 6.94872 16.8844 7.31249 17.3332 7.31249C17.7819 7.31249 18.1457 6.94872 18.1457 6.49999V5.41666Z" fill="#A5A5B5"/>
<path d="M13.8422 14.7874L14.7001 16.5174C14.8171 16.7582 15.1291 16.9892 15.3923 17.0334L16.9472 17.2939C17.9416 17.461 18.1756 18.1884 17.4591 18.9059L16.2502 20.1248C16.0455 20.3313 15.9333 20.7293 15.9967 21.0144L16.3428 22.5232C16.6158 23.7174 15.987 24.1795 14.9389 23.5553L13.4815 22.6853C13.2183 22.5281 12.7844 22.5281 12.5164 22.6853L11.0589 23.5553C10.0158 24.1795 9.38209 23.7126 9.65505 22.5232L10.0011 21.0144C10.0645 20.7293 9.9524 20.3313 9.74767 20.1248L8.53881 18.9059C7.82714 18.1884 8.05624 17.461 9.05063 17.2939L10.6056 17.0334C10.8639 16.9892 11.1759 16.7582 11.2929 16.5174L12.1508 14.7874C12.6188 13.8487 13.3792 13.8487 13.8422 14.7874Z" stroke="#A5A5B5" stroke-width="1.5" stroke-linecap="round" stroke-linejoin="round"/>
</svg>
