<svg width="26" height="26" viewBox="0 0 26 26" fill="none" xmlns="http://www.w3.org/2000/svg">
<path d="M2.1665 7.58333C2.1665 6.06653 2.1665 5.30812 2.46169 4.72877C2.72135 4.21917 3.13568 3.80485 3.64528 3.54519C4.22462 3.25 4.98303 3.25 6.49984 3.25C8.01664 3.25 8.77505 3.25 9.3544 3.54519C9.864 3.80485 10.2783 4.21917 10.538 4.72877C10.8332 5.30812 10.8332 6.06653 10.8332 7.58333V18.4167C10.8332 19.9334 10.8332 20.6919 10.538 21.2713C10.2783 21.7809 9.864 22.1951 9.3544 22.4548C8.77505 22.75 8.01664 22.75 6.49984 22.75C4.98303 22.75 4.22462 22.75 3.64528 22.4548C3.13568 22.1951 2.72135 21.7809 2.46169 21.2713C2.1665 20.6919 2.1665 19.9334 2.1665 18.4167V7.58333Z" fill="url(#paint0_linear_2005_13)" stroke="url(#paint1_linear_2005_13)" stroke-width="1.5" stroke-linecap="round" stroke-linejoin="round"/>
<path d="M6.5 18.4167H6.50973" stroke="white" stroke-width="2" stroke-linecap="round" stroke-linejoin="round"/>
<path d="M2.1665 7.58334H10.8332" stroke="white" stroke-width="1.5" stroke-linecap="round" stroke-linejoin="round"/>
<path d="M12.4025 8.95746C12.018 7.51658 11.8258 6.79614 11.9582 6.17065C12.0747 5.62046 12.3615 5.12142 12.7778 4.74505C13.251 4.31717 13.9685 4.12413 15.4034 3.73804C16.8383 3.35196 17.5558 3.15892 18.1786 3.29187C18.7265 3.40881 19.2235 3.69694 19.5983 4.11494C20.0244 4.59015 20.2167 5.3106 20.6011 6.75147L23.3472 17.0426C23.7316 18.4834 23.9238 19.2038 23.7914 19.8293C23.675 20.3796 23.3881 20.8785 22.9718 21.255C22.4986 21.6828 21.7811 21.8759 20.3462 22.262C18.9114 22.6481 18.1939 22.8411 17.5711 22.7082C17.0231 22.5912 16.5262 22.303 16.1513 21.8851C15.7253 21.4098 15.533 20.6894 15.1485 19.2486L12.4025 8.95746Z" fill="url(#paint2_linear_2005_13)" stroke="url(#paint3_linear_2005_13)" stroke-width="1.5" stroke-linecap="round" stroke-linejoin="round"/>
<path d="M19.2632 18.0866L19.2726 18.0841" stroke="white" stroke-width="2" stroke-linecap="round" stroke-linejoin="round"/>
<path d="M13 8.66687L20.0418 6.5" stroke="white" stroke-width="1.5" stroke-linecap="round" stroke-linejoin="round"/>
<defs>
<linearGradient id="paint0_linear_2005_13" x1="2.1665" y1="3.25" x2="2.1665" y2="22.75" gradientUnits="userSpaceOnUse">
<stop stop-color="#00CC8E"/>
<stop offset="1" stop-color="#038373"/>
</linearGradient>
<linearGradient id="paint1_linear_2005_13" x1="2.1665" y1="3.25" x2="2.1665" y2="22.75" gradientUnits="userSpaceOnUse">
<stop stop-color="#00CC8E"/>
<stop offset="1" stop-color="#038373"/>
</linearGradient>
<linearGradient id="paint2_linear_2005_13" x1="11.9165" y1="3.25" x2="11.9165" y2="22.75" gradientUnits="userSpaceOnUse">
<stop stop-color="#00CC8E"/>
<stop offset="1" stop-color="#038373"/>
</linearGradient>
<linearGradient id="paint3_linear_2005_13" x1="11.9165" y1="3.25" x2="11.9165" y2="22.75" gradientUnits="userSpaceOnUse">
<stop stop-color="#00CC8E"/>
<stop offset="1" stop-color="#038373"/>
</linearGradient>
</defs>
</svg>
