<svg width="26" height="26" viewBox="0 0 26 26" fill="none" xmlns="http://www.w3.org/2000/svg">
<path d="M2.54718 14.3146C2.16474 11.8259 1.97352 10.5816 2.44402 9.47848C2.91451 8.37537 3.95837 7.62062 6.04607 6.11114L7.60591 4.98332C10.203 3.10555 11.5015 2.16666 12.9999 2.16666C14.4981 2.16666 15.7967 3.10555 18.3938 4.98332L19.9536 6.11114C22.0414 7.62062 23.0852 8.37537 23.5556 9.47848C24.0261 10.5816 23.8349 11.8259 23.4525 14.3146L23.1264 16.4368C22.5842 19.9646 22.3132 21.7286 21.0479 22.781C19.7827 23.8333 17.9329 23.8333 14.2336 23.8333H11.7662C8.06671 23.8333 6.21699 23.8333 4.95175 22.781C3.68652 21.7286 3.41545 19.9646 2.8733 16.4368L2.54718 14.3146Z" stroke="#A5A5B5" stroke-width="1.5" stroke-linecap="round" stroke-linejoin="round"/>
<path d="M16.25 18.4167C15.3839 19.0909 14.2461 19.5 13 19.5C11.7539 19.5 10.6162 19.0909 9.75 18.4167" stroke="#A5A5B5" stroke-width="1.5" stroke-linecap="round" stroke-linejoin="round"/>
</svg>
