<svg width="26" height="26" viewBox="0 0 26 26" fill="none" xmlns="http://www.w3.org/2000/svg">
<path fill-rule="evenodd" clip-rule="evenodd" d="M2.54715 14.3145L2.54718 14.3146L2.8733 16.4368L2.87332 16.4368C3.41545 19.9647 3.68653 21.7286 4.95175 22.781C6.21699 23.8333 8.0667 23.8333 11.7661 23.8333H11.7662H14.2336H14.2336C17.9329 23.8333 19.7827 23.8333 21.0479 22.781C22.3131 21.7287 22.5842 19.9648 23.1263 16.4374L23.1264 16.4368L23.4525 14.3146L23.4525 14.3145C23.8349 11.8258 24.0261 10.5816 23.5556 9.47848C23.0852 8.37537 22.0414 7.62062 19.9536 6.11114L18.3938 4.98332C15.7967 3.10555 14.4981 2.16666 12.9999 2.16666C11.5015 2.16666 10.203 3.10551 7.60606 4.98321L7.60591 4.98332L6.04607 6.11114C3.95837 7.62062 2.91451 8.37537 2.44402 9.47848C1.97353 10.5816 2.16473 11.8258 2.54715 14.3145ZM10.2105 17.8248C9.88369 17.5704 9.41246 17.6291 9.15802 17.956C8.90358 18.2828 8.96228 18.754 9.28913 19.0085C10.2894 19.7871 11.5899 20.25 12.9999 20.25C14.4097 20.25 15.7104 19.7871 16.7106 19.0085C17.0374 18.754 17.0961 18.2828 16.8417 17.9559C16.5872 17.6291 16.116 17.5704 15.7891 17.8248C15.0571 18.3947 14.0821 18.75 12.9999 18.75C11.9175 18.75 10.9426 18.3947 10.2105 17.8248Z" fill="url(#paint0_linear_181_2487)"/>
<defs>
<linearGradient id="paint0_linear_181_2487" x1="2.1665" y1="2.16666" x2="2.1665" y2="23.8333" gradientUnits="userSpaceOnUse">
<stop stop-color="#00CC8E"/>
<stop offset="1" stop-color="#038373"/>
</linearGradient>
</defs>
</svg>
