<svg width="26" height="26" viewBox="0 0 26 26" fill="none" xmlns="http://www.w3.org/2000/svg">
<path d="M21.6668 23.8334H7.04183C5.54606 23.8334 4.3335 22.6209 4.3335 21.1251M4.3335 21.1251V11.574C4.3335 8.34071 4.3335 6.72404 5.15317 5.58844C5.4246 5.21238 5.75465 4.88235 6.13069 4.61091C7.26631 3.79123 8.88298 3.79123 12.1163 3.79123C13.174 3.79123 14.4622 3.84697 15.5306 3.86142C16.5047 3.8746 16.9918 3.88119 17.8992 3.72085C18.8065 3.56051 18.9035 3.52364 19.0974 3.44991C19.9315 3.13273 20.7213 2.63943 21.6668 2.16666V12.4584C21.6668 14.4775 21.6668 15.4871 21.337 16.2835C20.8971 17.3452 20.0535 18.1888 18.9918 18.6287C18.1954 18.9584 17.1859 18.9584 15.1668 18.9584H6.50016C5.30355 18.9584 4.3335 19.9286 4.3335 21.1251Z" stroke="#A5A5B5" stroke-width="1.5" stroke-linecap="round" stroke-linejoin="round"/>
<path d="M22 19V24.4167" stroke="#A5A5B5" stroke-width="1.5" stroke-linejoin="round"/>
<path d="M8.6665 4.33334V8.66668" stroke="#A5A5B5" stroke-width="1.5" stroke-linecap="round" stroke-linejoin="round"/>
</svg>
