<svg width="26" height="26" viewBox="0 0 26 26" fill="none" xmlns="http://www.w3.org/2000/svg">
<path d="M21.6668 23.8334H7.04183C5.54606 23.8334 4.3335 22.6209 4.3335 21.1251M4.3335 21.1251V11.574C4.3335 8.34071 4.3335 6.72404 5.15317 5.58844C5.4246 5.21238 5.75464 4.88235 6.13069 4.61091C7.26631 3.79123 8.88298 3.79123 12.1163 3.79123C13.174 3.79123 14.4622 3.84697 15.5306 3.86142C16.5047 3.8746 16.9918 3.88119 17.8992 3.72085C18.8065 3.56051 18.9035 3.52364 19.0974 3.44991C19.9315 3.13273 20.7213 2.63943 21.6668 2.16666V12.4584C21.6668 14.4775 21.6668 15.4871 21.337 16.2835C20.8971 17.3452 20.0535 18.1888 18.9918 18.6287C18.1954 18.9584 17.1859 18.9584 15.1668 18.9584H6.50016C5.30355 18.9584 4.3335 19.9286 4.3335 21.1251Z" fill="url(#paint0_linear_2005_24)"/>
<path d="M21.6668 23.8334H7.04183C5.54606 23.8334 4.3335 22.6209 4.3335 21.1251M4.3335 21.1251V11.574C4.3335 8.34071 4.3335 6.72404 5.15317 5.58844C5.4246 5.21238 5.75465 4.88235 6.13069 4.61091C7.26631 3.79123 8.88298 3.79123 12.1163 3.79123C13.174 3.79123 14.4622 3.84697 15.5306 3.86142C16.5047 3.8746 16.9918 3.88119 17.8992 3.72085C18.8065 3.56051 18.9035 3.52364 19.0974 3.44991C19.9315 3.13273 20.7213 2.63943 21.6668 2.16666V12.4584C21.6668 14.4775 21.6668 15.4871 21.337 16.2835C20.8971 17.3452 20.0535 18.1888 18.9918 18.6287C18.1954 18.9584 17.1859 18.9584 15.1668 18.9584H6.50016C5.30355 18.9584 4.3335 19.9286 4.3335 21.1251Z" stroke="url(#paint1_linear_2005_24)" stroke-width="1.5" stroke-linecap="round" stroke-linejoin="round"/>
<path d="M21.6668 23.8334H7.04183C5.54606 23.8334 4.3335 22.6209 4.3335 21.1251" fill="white"/>
<path d="M21.6668 23.8334H7.04183C5.54606 23.8334 4.3335 22.6209 4.3335 21.1251C4.3335 19.9286 5.30355 18.9584 6.50016 18.9584H15.1668C17.1859 18.9584 18.1954 18.9584 18.9918 18.6287C20.0535 18.1888 20.8971 17.3453 21.337 16.2835" stroke="url(#paint2_linear_2005_24)" stroke-width="1.5" stroke-linecap="round" stroke-linejoin="round"/>
<path d="M19.5 18.4167V23.8333" stroke="url(#paint3_linear_2005_24)" stroke-width="1.5" stroke-linejoin="round"/>
<path d="M8.6665 4.33334V8.66668" stroke="white" stroke-width="1.5" stroke-linecap="round" stroke-linejoin="round"/>
<defs>
<linearGradient id="paint0_linear_2005_24" x1="4.3335" y1="2.16666" x2="4.3335" y2="23.8334" gradientUnits="userSpaceOnUse">
<stop stop-color="#00CC8E"/>
<stop offset="1" stop-color="#038373"/>
</linearGradient>
<linearGradient id="paint1_linear_2005_24" x1="4.3335" y1="2.16666" x2="4.3335" y2="23.8334" gradientUnits="userSpaceOnUse">
<stop stop-color="#00CC8E"/>
<stop offset="1" stop-color="#038373"/>
</linearGradient>
<linearGradient id="paint2_linear_2005_24" x1="4.3335" y1="16.2835" x2="4.3335" y2="23.8334" gradientUnits="userSpaceOnUse">
<stop stop-color="#00CC8E"/>
<stop offset="1" stop-color="#038373"/>
</linearGradient>
<linearGradient id="paint3_linear_2005_24" x1="19.5" y1="18.4167" x2="19.5" y2="23.8333" gradientUnits="userSpaceOnUse">
<stop stop-color="#00CC8E"/>
<stop offset="1" stop-color="#038373"/>
</linearGradient>
</defs>
</svg>
