<svg width="74" height="74" viewBox="0 0 74 74" fill="none" xmlns="http://www.w3.org/2000/svg">
<g filter="url(#filter0_bi_1518_1526)">
<circle cx="37" cy="37" r="36" fill="black" fill-opacity="0.25"/>
<circle cx="37" cy="37" r="36.5" stroke="url(#paint0_linear_1518_1526)" stroke-opacity="0.2"/>
</g>
<path d="M18.3333 24.3333C18.3333 21.0334 18.3333 19.3835 19.3584 18.3584C20.3835 17.3333 22.0334 17.3333 25.3333 17.3333C28.6331 17.3333 30.283 17.3333 31.3081 18.3584C32.3333 19.3835 32.3333 21.0334 32.3333 24.3333V47.6666C32.3333 50.9664 32.3333 52.6163 31.3081 53.6415C30.283 54.6666 28.6331 54.6666 25.3333 54.6666C22.0334 54.6666 20.3835 54.6666 19.3584 53.6415C18.3333 52.6163 18.3333 50.9664 18.3333 47.6666V24.3333Z" stroke="white" stroke-width="2.5" stroke-linecap="round" stroke-linejoin="round"/>
<path d="M41.6667 24.3333C41.6667 21.0334 41.6667 19.3835 42.6918 18.3584C43.717 17.3333 45.3669 17.3333 48.6667 17.3333C51.9665 17.3333 53.6164 17.3333 54.6417 18.3584C55.6667 19.3835 55.6667 21.0334 55.6667 24.3333V47.6666C55.6667 50.9664 55.6667 52.6163 54.6417 53.6415C53.6164 54.6666 51.9665 54.6666 48.6667 54.6666C45.3669 54.6666 43.717 54.6666 42.6918 53.6415C41.6667 52.6163 41.6667 50.9664 41.6667 47.6666V24.3333Z" stroke="white" stroke-width="2.5" stroke-linecap="round" stroke-linejoin="round"/>
<defs>
<filter id="filter0_bi_1518_1526" x="-20" y="-20" width="114" height="114" filterUnits="userSpaceOnUse" color-interpolation-filters="sRGB">
<feFlood flood-opacity="0" result="BackgroundImageFix"/>
<feGaussianBlur in="BackgroundImageFix" stdDeviation="10"/>
<feComposite in2="SourceAlpha" operator="in" result="effect1_backgroundBlur_1518_1526"/>
<feBlend mode="normal" in="SourceGraphic" in2="effect1_backgroundBlur_1518_1526" result="shape"/>
<feColorMatrix in="SourceAlpha" type="matrix" values="0 0 0 0 0 0 0 0 0 0 0 0 0 0 0 0 0 0 127 0" result="hardAlpha"/>
<feMorphology radius="1.46045" operator="dilate" in="SourceAlpha" result="effect2_innerShadow_1518_1526"/>
<feOffset dx="-0.730227" dy="0.730227"/>
<feGaussianBlur stdDeviation="0.365113"/>
<feComposite in2="hardAlpha" operator="arithmetic" k2="-1" k3="1"/>
<feColorMatrix type="matrix" values="0 0 0 0 1 0 0 0 0 1 0 0 0 0 1 0 0 0 0.35 0"/>
<feBlend mode="normal" in2="shape" result="effect2_innerShadow_1518_1526"/>
</filter>
<linearGradient id="paint0_linear_1518_1526" x1="64.5806" y1="5.93549" x2="37" y2="73" gradientUnits="userSpaceOnUse">
<stop stop-color="white"/>
<stop offset="1" stop-color="white" stop-opacity="0"/>
</linearGradient>
</defs>
</svg>
