<svg width="74" height="74" viewBox="0 0 74 74" fill="none" xmlns="http://www.w3.org/2000/svg">
<g filter="url(#filter0_bi_1518_1530)">
<circle cx="37" cy="37" r="36" fill="black" fill-opacity="0.25"/>
<circle cx="37" cy="37" r="36.5" stroke="url(#paint0_linear_1518_1530)" stroke-opacity="0.2"/>
</g>
<path d="M56.0782 38.974C55.2533 42.1077 51.3557 44.322 43.56 48.7509C36.0241 53.0321 32.2562 55.1729 29.2197 54.3124C27.9643 53.9566 26.8205 53.2811 25.898 52.3503C23.6667 50.0991 23.6667 45.7327 23.6667 37C23.6667 28.2673 23.6667 23.9009 25.898 21.6497C26.8205 20.7191 27.9643 20.0434 29.2197 19.6876C32.2562 18.8272 36.0241 20.9678 43.56 25.2492C51.3557 29.6779 55.2533 31.8923 56.0782 35.026C56.4186 36.3196 56.4186 37.6804 56.0782 38.974Z" stroke="white" stroke-width="2.5" stroke-linecap="round" stroke-linejoin="round"/>
<defs>
<filter id="filter0_bi_1518_1530" x="-20" y="-20" width="114" height="114" filterUnits="userSpaceOnUse" color-interpolation-filters="sRGB">
<feFlood flood-opacity="0" result="BackgroundImageFix"/>
<feGaussianBlur in="BackgroundImageFix" stdDeviation="10"/>
<feComposite in2="SourceAlpha" operator="in" result="effect1_backgroundBlur_1518_1530"/>
<feBlend mode="normal" in="SourceGraphic" in2="effect1_backgroundBlur_1518_1530" result="shape"/>
<feColorMatrix in="SourceAlpha" type="matrix" values="0 0 0 0 0 0 0 0 0 0 0 0 0 0 0 0 0 0 127 0" result="hardAlpha"/>
<feMorphology radius="1.46045" operator="dilate" in="SourceAlpha" result="effect2_innerShadow_1518_1530"/>
<feOffset dx="-0.730227" dy="0.730227"/>
<feGaussianBlur stdDeviation="0.365113"/>
<feComposite in2="hardAlpha" operator="arithmetic" k2="-1" k3="1"/>
<feColorMatrix type="matrix" values="0 0 0 0 1 0 0 0 0 1 0 0 0 0 1 0 0 0 0.35 0"/>
<feBlend mode="normal" in2="shape" result="effect2_innerShadow_1518_1530"/>
</filter>
<linearGradient id="paint0_linear_1518_1530" x1="64.5806" y1="5.93549" x2="37" y2="73" gradientUnits="userSpaceOnUse">
<stop stop-color="white"/>
<stop offset="1" stop-color="white" stop-opacity="0"/>
</linearGradient>
</defs>
</svg>
