<svg width="20" height="20" viewBox="0 0 20 20" fill="none" xmlns="http://www.w3.org/2000/svg">
<path opacity="0.5" d="M2.93182 8.58817C2.60844 7.69314 2.44675 7.24564 2.5157 6.95888C2.59111 6.64523 2.81416 6.40071 3.09927 6.31914C3.35994 6.24456 3.76544 6.42478 4.57644 6.78523C5.29377 7.10406 5.65244 7.26346 5.98943 7.2546C6.36047 7.24483 6.7174 7.09604 7.00133 6.83276C7.25921 6.59365 7.43217 6.21261 7.77811 5.45054L8.5405 3.77105C9.17733 2.36813 9.49575 1.66667 10 1.66667C10.5042 1.66667 10.8227 2.36813 11.4595 3.77105L12.2219 5.45054C12.5678 6.21261 12.7408 6.59365 12.9987 6.83276C13.2826 7.09604 13.6395 7.24483 14.0106 7.2546C14.3476 7.26346 14.7062 7.10406 15.4236 6.78523C16.2346 6.42478 16.6401 6.24456 16.9007 6.31914C17.1858 6.40071 17.4089 6.64523 17.4843 6.95888C17.5532 7.24564 17.3916 7.69314 17.0682 8.58809L15.6782 12.4352C15.0835 14.0808 14.7862 14.9037 14.164 15.3685C13.5418 15.8333 12.7378 15.8333 11.1298 15.8333H8.87016C7.26216 15.8333 6.45814 15.8333 5.83596 15.3685C5.21378 14.9037 4.91647 14.0808 4.32185 12.4352L2.93182 8.58817Z" stroke="#35AAAA" stroke-width="1.5"/>
<path d="M10 11.6667H10.0075" stroke="#35AAAA" stroke-width="2" stroke-linecap="round" stroke-linejoin="round"/>
<path d="M5.83325 18.3333H14.1666" stroke="#35AAAA" stroke-width="1.5" stroke-linecap="round"/>
</svg>
