<svg width="21" height="20" viewBox="0 0 21 20" fill="none" xmlns="http://www.w3.org/2000/svg">
<path opacity="0.5" d="M3.43182 8.58801C3.10844 7.69297 2.94675 7.24547 3.0157 6.95871C3.09111 6.64506 3.31416 6.40054 3.59927 6.31897C3.85994 6.24439 4.26544 6.42461 5.07644 6.78506C5.79377 7.10389 6.15244 7.2633 6.48943 7.25443C6.86047 7.24466 7.2174 7.09587 7.50133 6.8326C7.75921 6.59348 7.93217 6.21245 8.27811 5.45037L9.0405 3.77088C9.67733 2.36796 9.99575 1.6665 10.5 1.6665C11.0042 1.6665 11.3227 2.36796 11.9595 3.77088L12.7219 5.45037C13.0678 6.21245 13.2408 6.59348 13.4987 6.8326C13.7826 7.09587 14.1395 7.24466 14.5106 7.25443C14.8476 7.2633 15.2062 7.10389 15.9236 6.78506C16.7346 6.42461 17.1401 6.24439 17.4007 6.31897C17.6858 6.40054 17.9089 6.64506 17.9843 6.95871C18.0532 7.24547 17.8916 7.69297 17.5682 8.58792L16.1782 12.435C15.5835 14.0807 15.2862 14.9035 14.664 15.3683C14.0418 15.8332 13.2378 15.8332 11.6298 15.8332H9.37017C7.76216 15.8332 6.95814 15.8332 6.33596 15.3683C5.71378 14.9035 5.41647 14.0807 4.82185 12.435L3.43182 8.58801Z" stroke="#7F79F4" stroke-width="1.5"/>
<path d="M10.5 11.6665H10.5075" stroke="#7F79F4" stroke-width="1.5" stroke-linecap="round"/>
<path d="M6.33325 18.3335H14.6666" stroke="#7F79F4" stroke-width="1.5" stroke-linecap="round"/>
</svg>
