<svg width="40" height="40" viewBox="0 0 40 40" fill="none" xmlns="http://www.w3.org/2000/svg">
<path fill-rule="evenodd" clip-rule="evenodd" d="M5.07148 6.75622C5 7.13992 5 7.60049 5 8.5216C5 9.42534 5 9.87719 5.05253 10.2962C5.2819 12.1257 6.24808 13.7797 7.72442 14.8701C8.06253 15.1199 8.45467 15.3393 9.23897 15.7782L13.5248 18.1765C16.6898 19.9476 18.2725 20.8333 20 20.8333C21.7275 20.8333 23.3102 19.9477 26.4752 18.1765L30.761 15.7782C31.5453 15.3393 31.9375 15.1199 32.2757 14.8701C33.752 13.7797 34.7182 12.1257 34.9475 10.2962C35 9.87719 35 9.42534 35 8.5216C35 7.60049 35 7.13992 34.9285 6.75622C34.6117 5.0552 33.2905 3.72455 31.6018 3.40534C31.2208 3.33334 30.7637 3.33334 29.8492 3.33334H10.1508C9.23632 3.33334 8.77908 3.33334 8.39815 3.40534C6.70942 3.72455 5.3884 5.0552 5.07148 6.75622Z" stroke="#FFCE7A" stroke-width="1.5" stroke-linecap="round" stroke-linejoin="round"/>
<path fill-rule="evenodd" clip-rule="evenodd" d="M14.5835 8.33334C14.5835 7.64298 14.0239 7.08334 13.3335 7.08334C12.6431 7.08334 12.0835 7.64298 12.0835 8.33334V10C12.0835 10.6904 12.6431 11.25 13.3335 11.25C14.0239 11.25 14.5835 10.6904 14.5835 10V8.33334ZM21.2502 8.33334C21.2502 7.64298 20.6905 7.08334 20.0002 7.08334C19.3098 7.08334 18.7502 7.64298 18.7502 8.33334V13.3333C18.7502 14.0237 19.3098 14.5833 20.0002 14.5833C20.6905 14.5833 21.2502 14.0237 21.2502 13.3333V8.33334ZM27.9168 8.33334C27.9168 7.64298 27.3572 7.08334 26.6668 7.08334C25.9765 7.08334 25.4168 7.64298 25.4168 8.33334V10C25.4168 10.6904 25.9765 11.25 26.6668 11.25C27.3572 11.25 27.9168 10.6904 27.9168 10V8.33334Z" fill="#FFCE7A"/>
<path d="M21.2957 22.7498L22.6155 25.4113C22.7955 25.7818 23.2755 26.1372 23.6805 26.2052L26.0727 26.606C27.6025 26.863 27.9625 27.9822 26.8602 29.086L25.0003 30.9612C24.6853 31.2788 24.5128 31.8912 24.6103 32.3298L25.1428 34.651C25.5628 36.4883 24.5953 37.1992 22.983 36.2388L20.7408 34.9005C20.3358 34.6587 19.6683 34.6587 19.256 34.9005L17.0137 36.2388C15.4089 37.1992 14.434 36.4808 14.8539 34.651L15.3864 32.3298C15.4839 31.8912 15.3114 31.2788 14.9964 30.9612L13.1366 29.086C12.0417 27.9822 12.3942 26.863 13.924 26.606L16.3163 26.2052C16.7137 26.1372 17.1937 25.7818 17.3737 25.4113L18.6935 22.7498C19.4135 21.3057 20.5833 21.3057 21.2957 22.7498Z" stroke="#FFCE7A" stroke-width="1.5" stroke-linecap="round" stroke-linejoin="round"/>
</svg>
