<svg width="72" height="72" viewBox="0 0 72 72" fill="none" xmlns="http://www.w3.org/2000/svg">
<g opacity="0.5" clip-path="url(#clip0_1645_2011)">
<path d="M35.999 1.05957C35.999 1.05957 36.8753 3.4684 43.3374 3.4684C49.7995 3.4684 60.3067 -1.89135 60.5289 11.4673C73.8891 11.6894 68.5275 22.2663 68.5275 28.6592C68.5275 35.0522 70.9363 35.9978 70.9363 35.9978C70.9363 35.9978 68.5275 36.8741 68.5275 43.3364C68.5275 49.7987 73.8891 60.3062 60.5289 60.5284C60.3067 73.889 49.7302 68.5272 43.3374 68.5272C36.9446 68.5272 35.999 70.9361 35.999 70.9361C35.999 70.9361 35.1227 68.5272 28.6606 68.5272C22.1986 68.5272 11.6913 73.889 11.4692 60.5284C-1.89111 60.3062 3.47053 49.7294 3.47053 43.3364C3.47053 36.9434 1.06177 35.9978 1.06177 35.9978C1.06177 35.9978 3.47053 35.1215 3.47053 28.6592C3.47053 22.197 -1.89111 11.6914 11.4692 11.4693C11.6913 -1.89135 22.2678 3.47044 28.6606 3.47044C35.0534 3.47044 35.999 1.06161 35.999 1.06161V1.05957Z" fill="#F7F9FD"/>
<path d="M35.9886 71.9994C35.5525 71.9994 35.1755 71.7018 35.0268 71.2922C35.0206 71.2922 34.0465 69.562 28.6604 69.562C27.3623 69.562 25.8482 69.8025 24.2464 70.0552C20.4967 70.6503 16.2478 71.3248 13.4029 68.9363C11.634 67.4507 10.6701 65.0215 10.4704 61.5264C6.97547 61.3267 4.54633 60.3628 3.06072 58.5939C0.672338 55.751 1.34687 51.4998 1.94193 47.748C2.19666 46.1462 2.4351 44.632 2.4351 43.3339C2.4351 37.8987 0.672338 36.9551 0.653997 36.947C0.244385 36.7982 -0.00219727 36.4192 -0.00219727 35.9851C-0.00219727 35.551 0.295332 35.172 0.704944 35.0232C0.694754 35.0232 2.4351 34.0592 2.4351 28.6567C2.4351 27.3585 2.19463 25.8444 1.94193 24.2426C1.34687 20.4928 0.674376 16.2416 3.06072 13.3967C4.54633 11.6278 6.97547 10.6638 10.4704 10.4641C10.6701 6.96908 11.634 4.53987 13.4029 3.05422C16.2457 0.665765 20.4988 1.34032 24.2485 1.93336C25.8523 2.1881 27.3644 2.42653 28.6625 2.42653C34.0975 2.42653 35.041 0.665765 35.0492 0.647424C35.1979 0.2378 35.5749 -0.00878906 36.011 -0.00878906C36.4308 -0.00878906 36.7956 0.266331 36.9546 0.6515C37.0177 0.761548 38.055 2.4245 43.3372 2.4245C44.6353 2.4245 46.1474 2.18402 47.7512 1.93132C51.5029 1.33624 55.7519 0.663727 58.5968 3.05218C60.3656 4.53783 61.3295 6.96704 61.5293 10.4621C65.0242 10.6618 67.4533 11.6257 68.9389 13.3947C71.3253 16.2376 70.6528 20.4887 70.0577 24.2405C69.803 25.8423 69.5646 27.3565 69.5646 28.6547C69.5646 34.0898 71.3273 35.0334 71.3436 35.0415C71.7533 35.1903 71.9998 35.5694 71.9998 36.0034C71.9998 36.4375 71.7023 36.8166 71.2927 36.9653C71.3029 36.9653 69.5625 37.9293 69.5625 43.3318C69.5625 44.63 69.803 46.1421 70.0557 47.746C70.6508 51.4958 71.3233 55.7469 68.9369 58.5918C67.4513 60.3608 65.0222 61.3247 61.5272 61.5244C61.3275 65.0195 60.3636 67.4487 58.5947 68.9343C55.7499 71.3228 51.5009 70.6482 47.7512 70.0531C46.1474 69.7984 44.6353 69.56 43.3372 69.56C37.9022 69.56 36.9587 71.3228 36.9505 71.3391C36.8017 71.7487 36.4227 71.9953 35.9886 71.9953V71.9994ZM28.6625 67.4955C32.8401 67.4955 34.9534 68.488 36.0009 69.3541C37.0483 68.488 39.1596 67.4955 43.3392 67.4955C44.8004 67.4955 46.392 67.7482 48.0773 68.0152C51.5518 68.5675 55.1466 69.1361 57.2681 67.3549C58.7109 66.1424 59.4404 63.9047 59.4975 60.5136C59.5077 59.9552 59.956 59.5048 60.5144 59.4967C63.9054 59.4396 66.143 58.71 67.3555 57.2672C69.1366 55.1457 68.566 51.5528 68.0158 48.0761C67.7488 46.3908 67.4961 44.7991 67.4961 43.3379C67.4961 39.1581 68.4886 37.0469 69.3547 35.9994C68.4886 34.9519 67.4961 32.8406 67.4961 28.6608C67.4961 27.1996 67.7488 25.608 68.0158 23.9226C68.566 20.4479 69.1366 16.853 67.3555 14.7315C66.143 13.2887 63.9054 12.5591 60.5144 12.5021C59.956 12.4919 59.5056 12.0415 59.4975 11.4851C59.4404 8.09401 58.7129 5.85637 57.2681 4.6438C55.1466 2.86265 51.5539 3.43327 48.0773 3.98351C46.392 4.25048 44.8004 4.50318 43.3392 4.50318C39.1616 4.50318 37.0483 3.51071 36.0009 2.64459C34.9534 3.51071 32.8422 4.50318 28.6625 4.50318C27.2013 4.50318 25.6098 4.25048 23.9244 3.98351C20.4499 3.43327 16.8551 2.86265 14.7336 4.6438C13.2908 5.85637 12.5613 8.09401 12.5042 11.4851C12.494 12.0435 12.0437 12.4939 11.4873 12.5021C8.0963 12.5591 5.85872 13.2867 4.64618 14.7315C2.86509 16.853 3.43569 20.4459 3.98591 23.9226C4.25288 25.608 4.50557 27.1996 4.50557 28.6608C4.50557 32.8385 3.51313 34.9519 2.64703 35.9994C3.51313 37.0469 4.50557 39.1581 4.50557 43.3379C4.50557 44.7991 4.25288 46.3908 3.98591 48.0761C3.43569 51.5508 2.86509 55.1457 4.64618 57.2672C5.85872 58.7121 8.0963 59.4417 11.4873 59.4967C12.0457 59.5069 12.4961 59.9572 12.5042 60.5136C12.5613 63.9047 13.2888 66.1424 14.7336 67.3549C16.853 69.1361 20.4478 68.5655 23.9244 68.0152C25.6098 67.7482 27.2013 67.4955 28.6625 67.4955Z" fill="#7F79F4"/>
<path d="M35.999 67.0702C35.9582 67.0702 35.9175 67.06 35.8788 67.0417C34.0773 66.1022 31.6481 65.6253 28.6606 65.6253C27.0487 65.6253 25.3104 65.9004 23.6291 66.1674C22.0151 66.4221 20.3482 66.6871 18.9155 66.6871C16.8186 66.6871 14.4791 66.6871 14.3752 60.4836C14.3487 58.9063 13.0933 57.6509 11.5181 57.6244C8.77916 57.5775 6.89821 57.0375 6.07898 56.0634C4.84607 54.5961 5.37184 51.2885 5.83444 48.3702C6.1014 46.6869 6.37651 44.9485 6.37651 43.3385C6.37651 40.3509 5.89965 37.9217 4.96019 36.1202C4.92147 36.0448 4.92147 35.9551 4.96019 35.8797C5.89965 34.0782 6.37651 31.649 6.37651 28.6614C6.37651 27.0494 6.1014 25.311 5.83444 23.6297C5.37184 20.7094 4.84811 17.4039 6.07898 15.9366C6.89821 14.9604 8.77916 14.4203 11.5181 14.3755C13.0954 14.349 14.3507 13.0936 14.3772 11.5163C14.4811 5.31284 16.8389 5.31284 18.9176 5.31284C20.3502 5.31284 22.0172 5.57777 23.6312 5.83251C25.3144 6.09948 27.0527 6.3746 28.6627 6.3746C31.6502 6.3746 34.0793 5.89772 35.8808 4.95824C35.9562 4.91952 36.0459 4.91952 36.1213 4.95824C37.9207 5.89772 40.3499 6.3746 43.3394 6.3746C44.9493 6.3746 46.6876 6.09948 48.3709 5.83251C49.9849 5.57777 51.6519 5.31284 53.0845 5.31284C55.1652 5.31284 57.523 5.31284 57.6249 11.5163C57.6514 13.0936 58.9067 14.349 60.484 14.3755C63.2229 14.4224 65.1039 14.9604 65.9231 15.9366C67.154 17.4039 66.6302 20.7094 66.1697 23.6257C65.9027 25.311 65.6256 27.0494 65.6256 28.6614C65.6256 31.649 66.1024 34.0782 67.0419 35.8797C67.0806 35.9551 67.0806 36.0448 67.0419 36.1202C66.1024 37.9217 65.6256 40.3509 65.6256 43.3385C65.6256 44.9485 65.9007 46.6869 66.1676 48.3702C66.6302 51.2885 67.154 54.5961 65.9231 56.0634C65.1039 57.0395 63.2229 57.5796 60.484 57.6244C58.9067 57.6509 57.6514 58.9063 57.6249 60.4836C57.5209 66.6871 55.1652 66.6871 53.0845 66.6871C51.6519 66.6871 49.9849 66.4221 48.3709 66.1674C46.6897 65.9004 44.9514 65.6253 43.3394 65.6253C40.3499 65.6253 37.9207 66.1022 36.1213 67.0417C36.0846 67.0621 36.0418 67.0702 36.001 67.0702H35.999ZM28.6627 65.1057C31.6685 65.1057 34.1364 65.5805 36.001 66.52C37.8637 65.5805 40.3315 65.1057 43.3394 65.1057C44.9921 65.1057 46.7508 65.3848 48.4524 65.6539C50.046 65.9066 51.6926 66.1674 53.0845 66.1674C55.1061 66.1674 57.0135 66.1674 57.1073 60.4734C57.1378 58.6169 58.6173 57.1374 60.4738 57.1068C63.0578 57.064 64.8043 56.5871 65.5257 55.7291C66.6058 54.4432 66.1004 51.2579 65.6561 48.4497C65.3871 46.748 65.1079 44.9872 65.1079 43.3365C65.1079 40.3285 65.5828 37.8606 66.5222 35.9979C65.5828 34.1353 65.1079 31.6673 65.1079 28.6593C65.1079 27.0066 65.3871 25.2479 65.6561 23.5462C66.1024 20.7338 66.6058 17.5526 65.5257 16.2667C64.8063 15.4087 63.0599 14.9339 60.4738 14.8911C58.6173 14.8605 57.1378 13.381 57.1073 11.5244C57.0115 5.83047 55.104 5.83047 53.0825 5.83047C51.6906 5.83047 50.044 6.09133 48.4504 6.34403C46.7488 6.61304 44.988 6.89223 43.3394 6.89223C40.3315 6.89223 37.8637 6.4174 36.001 5.47791C34.1384 6.4174 31.6706 6.89223 28.6627 6.89223C27.012 6.89223 25.2533 6.61304 23.5517 6.34403C21.9581 6.09133 20.3115 5.83047 18.9196 5.83047C16.898 5.83047 14.9906 5.83047 14.8948 11.5244C14.8642 13.381 13.3847 14.8605 11.5282 14.8911C8.94423 14.9339 7.19777 15.4108 6.47841 16.2667C5.39833 17.5526 5.90169 20.7338 6.34798 23.5421C6.61902 25.2479 6.89821 27.0066 6.89821 28.6593C6.89821 31.6673 6.42338 34.1353 5.48392 35.9979C6.42338 37.8606 6.89821 40.3285 6.89821 43.3365C6.89821 44.9872 6.61902 46.746 6.35002 48.4476C5.90373 51.2579 5.39833 54.4412 6.48044 55.7271C7.19981 56.5851 8.94831 57.0619 11.5323 57.1047C13.3888 57.1353 14.8683 58.6149 14.8989 60.4714C14.9947 66.1654 16.8858 66.1654 18.8911 66.1654C20.3135 66.1654 21.9621 65.9045 23.5537 65.6518C25.2553 65.3828 27.014 65.1036 28.6667 65.1036L28.6627 65.1057Z" fill="#7F79F4"/>
</g>
<line x1="42.2774" y1="27.584" x2="51.2774" y2="33.584" stroke="#AAB0BE"/>
<line x1="55.3604" y1="36.2272" x2="50.4454" y2="45.8627" stroke="#AAB0BE"/>
<line x1="34.4774" y1="32.1486" x2="31.4774" y2="41.7841" stroke="#AAB0BE"/>
<line x1="38.9402" y1="31.5452" x2="47.4429" y2="47.7679" stroke="#AAB0BE"/>
<line x1="30.2984" y1="28.5389" x2="20.1809" y2="32.4661" stroke="#AAB0BE"/>
<line x1="45.7931" y1="49.8713" x2="34.9829" y2="49.4999" stroke="#AAB0BE"/>
<line x1="25.9022" y1="45.3893" x2="18.6102" y2="36.3132" stroke="#AAB0BE"/>
<path d="M13.3703 23.1097L13.9596 23.1665L13.9028 23.7558C13.881 23.9824 14.0479 24.1815 14.2715 24.2031C14.4981 24.2249 14.6999 24.0613 14.7218 23.8347L14.7786 23.2454L15.3679 23.3022C15.5915 23.3238 15.7936 23.1572 15.8155 22.9306C15.837 22.7069 15.6705 22.5048 15.4468 22.4833L14.8575 22.4264L14.9143 21.8372C14.9359 21.6135 14.7693 21.4114 14.5427 21.3896C14.3191 21.368 14.1169 21.5346 14.0954 21.7582L14.0386 22.3475L13.4493 22.2907C13.2226 22.2689 13.0235 22.4357 13.002 22.6593C12.9801 22.886 13.1437 23.0878 13.3703 23.1097Z" fill="#7F79F4"/>
<path d="M58.0295 25.3313L58.6188 25.3881L58.562 25.9774C58.5401 26.2041 58.707 26.4032 58.9307 26.4247C59.1573 26.4466 59.3591 26.283 59.3809 26.0564L59.4378 25.4671L60.027 25.5239C60.2507 25.5454 60.4528 25.3789 60.4747 25.1522C60.4962 24.9286 60.3297 24.7265 60.106 24.7049L59.5167 24.6481L59.5735 24.0588C59.5951 23.8352 59.4286 23.6331 59.2019 23.6113C58.9783 23.5897 58.7761 23.7562 58.7546 23.9799L58.6978 24.5692L58.1085 24.5124C57.8818 24.4905 57.6827 24.6574 57.6611 24.881C57.6393 25.1076 57.8029 25.3095 58.0295 25.3313Z" fill="#7F79F4"/>
<path d="M36.25 46.9038C36.25 50.2693 33.5217 52.9976 30.1562 52.9976C26.7908 52.9976 24.0625 50.2693 24.0625 46.9038C24.0625 43.5383 26.7908 40.8101 30.1562 40.8101C33.5217 40.8101 36.25 43.5383 36.25 46.9038Z" fill="#F0F0FE"/>
<path d="M32.0183 45.4741C32.0183 46.3996 31.268 47.1499 30.3425 47.1499C29.417 47.1499 28.6667 46.3996 28.6667 45.4741C28.6667 44.5486 29.417 43.7983 30.3425 43.7983C31.268 43.7983 32.0183 44.5486 32.0183 45.4741Z" fill="#7F79F4"/>
<path d="M26.3816 51.2632L26.7231 50.6656C27.2656 49.7163 28.2751 49.1304 29.3685 49.1304H31.3165C32.4099 49.1304 33.4195 49.7163 33.9619 50.6656L34.3034 51.2632" fill="#7F79F4"/>
<path d="M26.3816 51.2632L26.7231 50.6656C27.2656 49.7163 28.2751 49.1304 29.3685 49.1304H31.3165C32.4099 49.1304 33.4195 49.7163 33.9619 50.6656L34.3034 51.2632C34.3034 51.2632 33.0627 53.1849 30.3425 53.1849C27.6224 53.1849 26.3816 51.2632 26.3816 51.2632Z" fill="#7F79F4"/>
<path d="M44.8705 25.8807C44.8705 30.1677 41.395 33.6432 37.108 33.6432C32.8208 33.6432 29.3455 30.1677 29.3455 25.8807C29.3455 21.5936 32.8208 18.1182 37.108 18.1182C41.395 18.1182 44.8705 21.5936 44.8705 25.8807Z" fill="#F0F0FE"/>
<path d="M39.4798 24.0595C39.4798 25.2385 38.5241 26.1942 37.3451 26.1942C36.1662 26.1942 35.2104 25.2385 35.2104 24.0595C35.2104 22.8805 36.1662 21.9248 37.3451 21.9248C38.5241 21.9248 39.4798 22.8805 39.4798 24.0595Z" fill="#7F79F4"/>
<path d="M32.2993 31.4337L32.7343 30.6724C33.4254 29.4632 34.7114 28.7168 36.1042 28.7168H38.5857C39.9785 28.7168 41.2645 29.4632 41.9555 30.6724L42.3905 31.4337" fill="#7F79F4"/>
<path d="M32.2993 31.4337L32.7343 30.6724C33.4254 29.4632 34.7114 28.7168 36.1042 28.7168H38.5857C39.9785 28.7168 41.2645 29.4632 41.9555 30.6724L42.3905 31.4337C42.3905 31.4337 40.81 33.8816 37.3449 33.8816C33.8799 33.8816 32.2993 31.4337 32.2993 31.4337Z" fill="#7F79F4"/>
<g clip-path="url(#clip1_1645_2011)">
<path d="M59.5427 34.4254C59.5427 37.1017 57.3732 39.2713 54.6969 39.2713C52.0206 39.2713 49.8511 37.1017 49.8511 34.4254C49.8511 31.7491 52.0206 29.5796 54.6969 29.5796C57.3732 29.5796 59.5427 31.7491 59.5427 34.4254Z" fill="#F0F0FE"/>
<path d="M56.1777 33.2887C56.1777 34.0246 55.581 34.6213 54.8451 34.6213C54.1091 34.6213 53.5125 34.0246 53.5125 33.2887C53.5125 32.5527 54.1091 31.9561 54.8451 31.9561C55.581 31.9561 56.1777 32.5527 56.1777 33.2887Z" fill="#7F79F4"/>
<path d="M51.6953 37.8923L51.9669 37.4171C52.3983 36.6622 53.2011 36.1963 54.0706 36.1963H55.6196C56.4891 36.1963 57.2919 36.6622 57.7233 37.4171L57.9949 37.8923" fill="#7F79F4"/>
<path d="M51.6953 37.8923L51.9669 37.4171C52.3983 36.6622 53.2011 36.1963 54.0706 36.1963H55.6196C56.4891 36.1963 57.2919 36.6622 57.7233 37.4171L57.9949 37.8923C57.9949 37.8923 57.0082 39.4205 54.8451 39.4205C52.682 39.4205 51.6953 37.8923 51.6953 37.8923Z" fill="#7F79F4"/>
</g>
<g clip-path="url(#clip2_1645_2011)">
<path d="M53.5427 49.4254C53.5427 52.1017 51.3732 54.2713 48.6969 54.2713C46.0206 54.2713 43.8511 52.1017 43.8511 49.4254C43.8511 46.7491 46.0206 44.5796 48.6969 44.5796C51.3732 44.5796 53.5427 46.7491 53.5427 49.4254Z" fill="#F0F0FE"/>
<path d="M50.1777 48.2887C50.1777 49.0246 49.581 49.6213 48.8451 49.6213C48.1091 49.6213 47.5125 49.0246 47.5125 48.2887C47.5125 47.5527 48.1091 46.9561 48.8451 46.9561C49.581 46.9561 50.1777 47.5527 50.1777 48.2887Z" fill="#7F79F4"/>
<path d="M45.6953 52.8923L45.9669 52.4171C46.3983 51.6622 47.2011 51.1963 48.0706 51.1963H49.6196C50.4891 51.1963 51.2919 51.6622 51.7233 52.4171L51.9949 52.8923" fill="#7F79F4"/>
<path d="M45.6953 52.8923L45.9669 52.4171C46.3983 51.6622 47.2011 51.1963 48.0706 51.1963H49.6196C50.4891 51.1963 51.2919 51.6622 51.7233 52.4171L51.9949 52.8923C51.9949 52.8923 51.0082 54.4205 48.8451 54.4205C46.682 54.4205 45.6953 52.8923 45.6953 52.8923Z" fill="#7F79F4"/>
</g>
<g clip-path="url(#clip3_1645_2011)">
<path d="M22.6389 33.9321C22.6389 36.3782 20.6558 38.3613 18.2097 38.3613C15.7635 38.3613 13.7805 36.3782 13.7805 33.9321C13.7805 31.4859 15.7635 29.5029 18.2097 29.5029C20.6558 29.5029 22.6389 31.4859 22.6389 33.9321Z" fill="#F0F0FE"/>
<path d="M19.563 32.8928C19.563 33.5655 19.0177 34.1108 18.345 34.1108C17.6723 34.1108 17.127 33.5655 17.127 32.8928C17.127 32.2201 17.6723 31.6748 18.345 31.6748C19.0177 31.6748 19.563 32.2201 19.563 32.8928Z" fill="#7F79F4"/>
<path d="M15.4661 37.1005L15.7143 36.6661C16.1086 35.9762 16.8424 35.5503 17.6371 35.5503H19.053C19.8477 35.5503 20.5815 35.9762 20.9758 36.6661L21.224 37.1005" fill="#7F79F4"/>
<path d="M15.4661 37.1005L15.7143 36.6661C16.1086 35.9762 16.8424 35.5503 17.6371 35.5503H19.053C19.8477 35.5503 20.5815 35.9762 20.9758 36.6661L21.224 37.1005C21.224 37.1005 20.3221 38.4973 18.345 38.4973C16.3679 38.4973 15.4661 37.1005 15.4661 37.1005Z" fill="#7F79F4"/>
</g>
<defs>
<clipPath id="clip0_1645_2011">
<rect width="72" height="72" fill="white"/>
</clipPath>
<clipPath id="clip1_1645_2011">
<rect width="11.63" height="11.63" fill="white" transform="translate(49.03 28.6851)"/>
</clipPath>
<clipPath id="clip2_1645_2011">
<rect width="11.63" height="11.63" fill="white" transform="translate(43.03 43.6851)"/>
</clipPath>
<clipPath id="clip3_1645_2011">
<rect width="10.63" height="10.63" fill="white" transform="translate(13.03 28.6851)"/>
</clipPath>
</defs>
</svg>
