<svg width="46" height="46" viewBox="0 0 46 46" fill="none" xmlns="http://www.w3.org/2000/svg">
<path d="M24.4375 0H18.8268C7.29956 9.46333 9.83962 38.2714 24.4684 46H31.4983C33.9154 46 35.9376 44.3078 36.4431 42.044L36.5657 12.1282C36.5657 4.89568 30.7487 0 24.4375 0Z" fill="#3C3D47"/>
<path d="M19.2202 0H8.08516C5.27682 0 3 2.27673 3 5.08507V40.9148C3 43.7232 5.27673 45.9999 8.08507 45.9999H24.8619C21.9376 41.822 19.4228 36.6293 17.6854 30.7866C13.9887 18.3547 14.8446 6.46282 19.2202 0Z" fill="#32323E"/>
<path d="M43.3935 38.9076V32.2437C43.3935 30.5115 41.9893 29.1073 40.2571 29.1073C39.2975 29.1073 20.6693 29.1073 19.0237 29.1073C15.3995 29.1073 14.229 30.5115 14.229 32.2437V38.9076C14.229 40.6398 15.3065 42.044 19.0237 42.044H40.2571C41.9893 42.044 43.3935 40.6398 43.3935 38.9076Z" fill="#FFC887"/>
<path d="M15.8871 38.9076V32.2437C15.8871 30.5115 17.2913 29.1073 19.0235 29.1073H12.5704C10.8382 29.1073 9.43408 30.5115 9.43408 32.2437V38.9076C9.43408 40.6398 10.8382 42.044 12.5704 42.044H19.0235C17.2913 42.044 15.8871 40.6398 15.8871 38.9076Z" fill="#D78E3A"/>
<path d="M43.3935 22.737V16.073C43.3935 14.3409 41.9893 12.9367 40.2571 12.9367C39.2975 12.9367 20.6693 12.9367 19.0237 12.9367C13.6338 12.9367 15.0942 14.3409 15.0942 16.073V22.737C15.0942 24.4692 15.0942 25.8734 19.0237 25.8734H40.2571C41.9893 25.8734 43.3935 24.4692 43.3935 22.737Z" fill="#7DC1FF"/>
<path d="M15.8871 22.737V16.073C15.8871 14.3409 17.2913 12.9367 19.0235 12.9367H12.5704C10.8382 12.9367 9.43408 14.3409 9.43408 16.073V22.737C9.43408 24.4692 10.8382 25.8734 12.5704 25.8734H19.0235C17.2913 25.8734 15.8871 24.4692 15.8871 22.737Z" fill="#00A3FF"/>
<path d="M36.5659 8.89426V12.1282C36.5659 10.3421 35.1181 8.89426 33.332 8.89426H30.8247C29.0832 8.89426 27.6717 7.48264 27.6717 5.74021V3.23393C27.6717 1.44783 26.2238 0 24.4377 0H27.6717C32.5644 0 36.5659 4.00155 36.5659 8.89426Z" fill="#32323E"/>
<path d="M20.8425 22.5509L19.9397 21.6481C20.3958 20.9941 20.6423 20.2187 20.6423 19.4054C20.6423 17.2374 18.8789 15.4736 16.7114 15.4736C14.5434 15.4736 12.7795 17.2374 12.7795 19.4054C12.7795 21.5729 14.5434 23.3364 16.7114 23.3364C17.5245 23.3364 18.2997 23.0899 18.954 22.6337L19.8567 23.5365C20.1288 23.8087 20.5702 23.8087 20.8424 23.5365C21.1147 23.2643 21.1147 22.823 20.8425 22.5509ZM16.7115 21.9424C15.3121 21.9424 14.1736 20.8043 14.1736 19.4054C14.1736 18.006 15.3121 16.8675 16.7115 16.8675C18.1103 16.8675 19.2484 18.006 19.2484 19.4054C19.2484 19.8438 19.1372 20.2651 18.9294 20.6378L18.0127 19.7211C17.7405 19.4489 17.2992 19.4489 17.027 19.7211C16.7548 19.9932 16.7548 20.4345 17.027 20.7067L17.9437 21.6234C17.5708 21.8313 17.1496 21.9424 16.7115 21.9424Z" fill="white"/>
<path d="M21.3775 38.4983L18.1435 32.0305C17.943 31.6296 17.5101 31.6423 17.5201 31.6452C17.2562 31.6452 17.0148 31.7943 16.8968 32.0304L13.6619 38.4983C13.4897 38.8426 13.6293 39.2613 13.9735 39.4334C14.3177 39.6055 14.7365 39.4661 14.9086 39.1217L15.5246 37.8901H19.5148L20.1307 39.1217C20.3023 39.465 20.7204 39.606 21.0658 39.4334C21.4101 39.2613 21.5496 38.8426 21.3775 38.4983ZM16.2217 36.4961L17.5199 33.9004L18.8178 36.4961H16.2217Z" fill="white"/>
<path d="M38.5414 22.5279H23.9878C23.6029 22.5279 23.2908 22.2158 23.2908 21.8309C23.2908 21.446 23.6028 21.1339 23.9878 21.1339H38.5414C38.9263 21.1339 39.2384 21.4459 39.2384 21.8309C39.2384 22.2158 38.9264 22.5279 38.5414 22.5279Z" fill="#00A3FF"/>
<path d="M32.0735 18.4845H23.9878C23.6029 18.4845 23.2908 18.1725 23.2908 17.7875C23.2908 17.4026 23.6028 17.0906 23.9878 17.0906H32.0735C32.4584 17.0906 32.7705 17.4026 32.7705 17.7875C32.7705 18.1725 32.4585 18.4845 32.0735 18.4845Z" fill="#00A3FF"/>
<path d="M38.5414 38.6985H23.9878C23.6029 38.6985 23.2908 38.3865 23.2908 38.0015C23.2908 37.6165 23.6028 37.3045 23.9878 37.3045H38.5414C38.9263 37.3045 39.2384 37.6165 39.2384 38.0015C39.2384 38.3866 38.9264 38.6985 38.5414 38.6985Z" fill="#D78E3A"/>
<path d="M32.0735 34.6561H23.9878C23.6029 34.6561 23.2908 34.344 23.2908 33.9591C23.2908 33.5741 23.6028 33.2621 23.9878 33.2621H32.0735C32.4584 33.2621 32.7705 33.5741 32.7705 33.9591C32.7705 34.3441 32.4585 34.6561 32.0735 34.6561Z" fill="#D78E3A"/>
</svg>
