<svg width="16" height="16" viewBox="0 0 16 16" fill="none" xmlns="http://www.w3.org/2000/svg">
<path d="M8 1.33337C5.23857 1.33337 3 3.57195 3 6.33337C3 7.87737 3.69982 9.25784 4.79956 10.175C5.46012 10.726 6 11.4732 6 12.3334H10C10 11.4732 10.5399 10.726 11.2005 10.175C12.3002 9.25784 13 7.87737 13 6.33337C13 3.57195 10.7614 1.33337 8 1.33337Z" stroke="#AAB0BE" stroke-width="1.5" stroke-linecap="round" stroke-linejoin="round"/>
<path d="M10 12.3334H6V13.6667C6 14.219 6.44771 14.6667 7 14.6667H9C9.55227 14.6667 10 14.219 10 13.6667V12.3334Z" stroke="#AAB0BE" stroke-width="1.5" stroke-linecap="round" stroke-linejoin="round"/>
<path d="M6.66675 5.33333C6.66675 4.65832 7.26368 4 8.00008 4C8.73648 4 9.33341 4.54721 9.33341 5.22222C9.33341 5.46554 9.25588 5.69225 9.12215 5.88271C8.72368 6.45035 8.00008 6.99167 8.00008 7.66667" stroke="#AAB0BE" stroke-width="1.5" stroke-linecap="round" stroke-linejoin="round"/>
<path d="M7.99463 9.33337H8.00063" stroke="#AAB0BE" stroke-width="1.5" stroke-linecap="round" stroke-linejoin="round"/>
</svg>
