<svg width="40" height="40" viewBox="0 0 40 40" fill="none" xmlns="http://www.w3.org/2000/svg">
<path d="M7.5 32.5V9.16667C7.5 5.945 10.1117 3.33334 13.3333 3.33334H30C33.2217 3.33334 35.8333 5.945 35.8333 9.16667V28.3333" stroke="#35AAAA" stroke-width="1.5" stroke-linecap="round" stroke-linejoin="round"/>
<path d="M33.8333 28.75L34.0152 29.4776L33.8333 28V28.75ZM35.8333 37.0833V37.8333C36.2281 37.8333 36.5553 37.5273 36.5817 37.1335C36.608 36.7396 36.3246 36.3927 35.9334 36.34L35.8333 37.0833ZM33.8333 28H11.6667V29.5H33.8333V28ZM11.6667 28C8.95127 28 6.75 30.2013 6.75 32.9167H8.25C8.25 31.0297 9.7797 29.5 11.6667 29.5V28ZM6.75 32.9167C6.75 35.632 8.95127 37.8333 11.6667 37.8333V36.3333C9.7797 36.3333 8.25 34.8036 8.25 32.9167H6.75ZM11.6667 37.8333H35.8333V36.3333H11.6667V37.8333ZM35.8333 37.0833C35.9334 36.34 35.9337 36.3401 35.9339 36.3401C35.934 36.3401 35.9342 36.3402 35.9344 36.3402C35.9346 36.3402 35.9348 36.3402 35.935 36.3403C35.9352 36.3403 35.9353 36.3403 35.935 36.3403C35.9346 36.3402 35.9331 36.34 35.9307 36.3396C35.9258 36.3389 35.9171 36.3376 35.9047 36.3356C35.88 36.3316 35.841 36.3249 35.7897 36.315C35.687 36.2951 35.5361 36.2624 35.3534 36.2126C34.985 36.1122 34.5023 35.9465 34.0271 35.6861C33.0807 35.1673 32.25 34.3339 32.25 32.9167H30.75C30.75 35.0828 32.086 36.3327 33.3062 37.0014C33.9143 37.3348 34.515 37.5388 34.9591 37.6598C35.1826 37.7207 35.3703 37.7616 35.5045 37.7876C35.5717 37.8006 35.6258 37.8099 35.6646 37.8162C35.684 37.8194 35.6996 37.8218 35.7111 37.8235C35.7169 37.8243 35.7216 37.825 35.7253 37.8255C35.7272 37.8258 35.7288 37.826 35.7301 37.8262C35.7308 37.8263 35.7314 37.8264 35.7319 37.8264C35.7322 37.8265 35.7325 37.8265 35.7326 37.8265C35.733 37.8266 35.7333 37.8266 35.8333 37.0833ZM32.25 32.9167C32.25 31.3051 32.7673 30.4573 33.2017 30.0152C33.427 29.7859 33.6488 29.6466 33.8073 29.5664C33.8865 29.5263 33.9491 29.5014 33.9869 29.4878C34.0058 29.481 34.0183 29.4771 34.0234 29.4756C34.026 29.4748 34.0267 29.4746 34.0254 29.475C34.0247 29.4752 34.0235 29.4755 34.0219 29.4759C34.021 29.4761 34.02 29.4764 34.0189 29.4767C34.0184 29.4768 34.0178 29.477 34.0172 29.4771C34.0169 29.4772 34.0164 29.4773 34.0162 29.4774C34.0157 29.4775 34.0152 29.4776 33.8333 28.75C33.6514 28.0224 33.6509 28.0225 33.6504 28.0227C33.6502 28.0227 33.6496 28.0228 33.6493 28.0229C33.6485 28.0231 33.6477 28.0233 33.6469 28.0235C33.6452 28.024 33.6434 28.0244 33.6414 28.025C33.6375 28.026 33.633 28.0272 33.6279 28.0286C33.6178 28.0314 33.6054 28.0349 33.5908 28.0393C33.5618 28.048 33.5242 28.0602 33.4792 28.0763C33.3895 28.1086 33.2697 28.1573 33.1302 28.2279C32.8512 28.3691 32.4897 28.5995 32.1317 28.964C31.3994 29.7093 30.75 30.9449 30.75 32.9167H32.25Z" fill="#35AAAA"/>
<path d="M36 37C33.6988 37 31.6665 34.8012 31.6665 32.5C31.6665 30.1988 33.532 28.3333 35.8332 28.3333" stroke="#35AAAA" stroke-width="1.5" stroke-linecap="round"/>
<path d="M23.6193 11.1193L21.6667 9.16666L19.714 11.1193H16.9527V13.8807L15 15.8333L16.9527 17.786V20.5473H19.714L21.6667 22.5L23.6193 20.5473H26.3807V17.786L28.3333 15.8333L26.3807 13.8807V11.1193H23.6193Z" stroke="#35AAAA" stroke-width="1.5" stroke-linecap="round" stroke-linejoin="round"/>
</svg>
