<svg width="16" height="16" viewBox="0 0 16 16" fill="none" xmlns="http://www.w3.org/2000/svg">
<path d="M8 4V13.3333" stroke="#AAB0BE" stroke-width="1.5" stroke-linecap="round" stroke-linejoin="round"/>
<path d="M3.98696 2.19029C6.21442 2.6144 7.54198 3.50154 7.99992 4.01085C8.45785 3.50154 9.78538 2.6144 12.0129 2.19029C13.1413 1.97543 13.7055 1.86801 14.1861 2.27976C14.6666 2.69151 14.6666 3.36015 14.6666 4.69741V9.50333C14.6666 10.7261 14.6666 11.3374 14.3582 11.7191C14.0498 12.1008 13.3709 12.2301 12.0129 12.4887C10.8024 12.7191 9.85765 13.0863 9.17379 13.4554C8.50099 13.8185 8.16458 14 7.99992 14C7.83525 14 7.49885 13.8185 6.82605 13.4554C6.14221 13.0863 5.19747 12.7191 3.98696 12.4887C2.62902 12.2301 1.95005 12.1008 1.64165 11.7191C1.33325 11.3374 1.33325 10.7261 1.33325 9.50333V4.69741C1.33325 3.36015 1.33325 2.69151 1.81377 2.27976C2.2943 1.86801 2.85852 1.97543 3.98696 2.19029Z" stroke="#AAB0BE" stroke-width="1.5" stroke-linecap="round" stroke-linejoin="round"/>
</svg>
