<svg width="20" height="20" viewBox="0 0 20 20" fill="none" xmlns="http://www.w3.org/2000/svg">
<path d="M3.33325 14.984V8.08957C3.33325 5.06176 3.33325 3.54786 4.30956 2.60724C5.28588 1.66663 6.85722 1.66663 9.99992 1.66663C13.1426 1.66663 14.714 1.66663 15.6903 2.60724C16.6666 3.54786 16.6666 5.06176 16.6666 8.08957V14.984C16.6666 16.9055 16.6666 17.8663 16.0226 18.2102C14.7753 18.8761 12.4359 16.6543 11.3249 15.9853C10.6806 15.5973 10.3584 15.4033 9.99992 15.4033C9.64142 15.4033 9.31925 15.5973 8.67492 15.9853C7.56392 16.6543 5.22448 18.8761 3.97729 18.2102C3.33325 17.8663 3.33325 16.9055 3.33325 14.984Z" fill="#2AB695"/>
<path d="M3.33325 5.83337H16.6666" stroke="white" stroke-width="1.5"/>
</svg>
