<svg width="20" height="20" viewBox="0 0 20 20" fill="none" xmlns="http://www.w3.org/2000/svg">
<path d="M15.0001 10.8333V17.4999M18.3334 14.1666H11.6667" stroke="#3A4254" stroke-width="1.5" stroke-linecap="round" stroke-linejoin="round"/>
<path d="M1.66675 5.83333C1.66675 4.66656 1.66675 4.08317 1.89381 3.63752C2.09356 3.24552 2.41226 2.92681 2.80426 2.72707C3.24991 2.5 3.83331 2.5 5.00008 2.5C6.16686 2.5 6.75025 2.5 7.1959 2.72707C7.5879 2.92681 7.90661 3.24552 8.10635 3.63752C8.33342 4.08317 8.33342 4.66656 8.33342 5.83333V14.1667C8.33342 15.3334 8.33342 15.9168 8.10635 16.3625C7.90661 16.7545 7.5879 17.0732 7.1959 17.2729C6.75025 17.5 6.16686 17.5 5.00008 17.5C3.83331 17.5 3.24991 17.5 2.80426 17.2729C2.41226 17.0732 2.09356 16.7545 1.89381 16.3625C1.66675 15.9168 1.66675 15.3334 1.66675 14.1667V5.83333Z" stroke="#3A4254" stroke-width="1.5" stroke-linecap="round" stroke-linejoin="round"/>
<path d="M5 14.1667H5.00748" stroke="#3A4254" stroke-width="1.5" stroke-linecap="round" stroke-linejoin="round"/>
<path d="M1.66675 5.83325H8.33342" stroke="#3A4254" stroke-width="1.5" stroke-linecap="round" stroke-linejoin="round"/>
<path d="M10.5967 10.8485L9.54057 6.89036C9.24482 5.78198 9.09699 5.2278 9.19882 4.74666C9.2884 4.32343 9.50907 3.93956 9.82932 3.65004C10.1933 3.3209 10.7452 3.17241 11.849 2.87542C12.9527 2.57843 13.5047 2.42994 13.9837 2.53221C14.4052 2.62217 14.7875 2.8438 15.0758 3.16534C15.4036 3.53088 15.5515 4.08507 15.8472 5.19344L16.3753 7.1725" stroke="#3A4254" stroke-width="1.5" stroke-linecap="round" stroke-linejoin="round"/>
<path d="M14.8176 13.9128L14.8249 13.9109" stroke="#3A4254" stroke-width="1.5" stroke-linecap="round" stroke-linejoin="round"/>
<path d="M10 6.66682L15.4167 5" stroke="#3A4254" stroke-width="1.5" stroke-linecap="round" stroke-linejoin="round"/>
</svg>
