<svg width="16" height="16" viewBox="0 0 16 16" fill="none" xmlns="http://www.w3.org/2000/svg">
<path d="M11.9999 8.66663V14M14.6666 11.3333H9.33325" stroke="white" stroke-linecap="round" stroke-linejoin="round"/>
<path d="M1.33325 4.66667C1.33325 3.73325 1.33325 3.26653 1.51491 2.91001C1.6747 2.59641 1.92967 2.34145 2.24327 2.18165C2.59979 2 3.0665 2 3.99992 2C4.93334 2 5.40005 2 5.75657 2.18165C6.07017 2.34145 6.32514 2.59641 6.48493 2.91001C6.66659 3.26653 6.66659 3.73325 6.66659 4.66667V11.3333C6.66659 12.2667 6.66659 12.7335 6.48493 13.09C6.32514 13.4036 6.07017 13.6585 5.75657 13.8183C5.40005 14 4.93334 14 3.99992 14C3.0665 14 2.59979 14 2.24327 13.8183C1.92967 13.6585 1.6747 13.4036 1.51491 13.09C1.33325 12.7335 1.33325 12.2667 1.33325 11.3333V4.66667Z" stroke="white" stroke-linecap="round" stroke-linejoin="round"/>
<path d="M4 11.3334H4.00599" stroke="white" stroke-linecap="round" stroke-linejoin="round"/>
<path d="M1.33325 4.66663H6.66659" stroke="white" stroke-linecap="round" stroke-linejoin="round"/>
<path d="M8.47724 8.67878L7.63231 5.51229C7.39571 4.62559 7.27744 4.18224 7.35891 3.79733C7.43058 3.45875 7.60711 3.15165 7.86331 2.92003C8.15451 2.65672 8.59604 2.53793 9.47904 2.30033C10.362 2.06275 10.8036 1.94395 11.1868 2.02577C11.524 2.09773 11.8298 2.27504 12.0605 2.53227C12.3227 2.82471 12.441 3.26806 12.6776 4.15475L13.1001 5.738" stroke="white" stroke-linecap="round" stroke-linejoin="round"/>
<path d="M11.8542 11.1302L11.86 11.1287" stroke="white" stroke-linecap="round" stroke-linejoin="round"/>
<path d="M8 5.33346L12.3334 4" stroke="white" stroke-linecap="round" stroke-linejoin="round"/>
</svg>
