<svg width="20" height="20" viewBox="0 0 20 20" fill="none" xmlns="http://www.w3.org/2000/svg">
<g clip-path="url(#clip0_49_195)">
<path d="M8.15723 9.30859C8.15723 9.32422 8.11133 9.35742 8.01953 9.4082C7.92773 9.45898 7.80762 9.5166 7.65918 9.58105C7.5127 9.64746 7.35254 9.71191 7.17871 9.77441C7.00488 9.83691 6.83496 9.88867 6.66895 9.92969C6.50293 9.97266 6.35742 9.99414 6.23242 9.99414C5.96094 9.99414 5.69238 9.96094 5.42676 9.89453C5.16309 9.82812 4.92285 9.72266 4.70605 9.57812C4.49121 9.43359 4.31934 9.24609 4.19043 9.01562C4.06348 8.78516 4 8.50586 4 8.17773C4 7.86328 4.05273 7.57715 4.1582 7.31934C4.26367 7.06152 4.39062 6.83496 4.53906 6.63965C4.68945 6.44434 4.8291 6.28613 4.95801 6.16504C4.87402 6.15332 4.77832 6.12305 4.6709 6.07422C4.56348 6.02539 4.46973 5.95996 4.38965 5.87793C4.31152 5.7959 4.27246 5.70117 4.27246 5.59375C4.27246 5.51367 4.29199 5.41504 4.33105 5.29785C4.37012 5.17871 4.41992 5.05566 4.48047 4.92871C4.54297 4.7998 4.60938 4.67773 4.67969 4.5625C4.75 4.44727 4.81543 4.35352 4.87598 4.28125C4.98926 4.14844 5.08984 4.06836 5.17773 4.04102C5.26758 4.01367 5.33691 4 5.38574 4C5.47754 4 5.57031 4.02734 5.66406 4.08203C5.75977 4.13477 5.84375 4.20117 5.91602 4.28125C5.99023 4.36133 6.04102 4.44238 6.06836 4.52441C6.07227 4.53418 6.06836 4.54883 6.05664 4.56836C6.04492 4.58594 6.0332 4.59473 6.02148 4.59473C6.00195 4.59473 5.95703 4.5957 5.88672 4.59766C5.81641 4.59961 5.73535 4.60352 5.64355 4.60938C5.55176 4.61523 5.46289 4.625 5.37695 4.63867C5.29102 4.65039 5.22168 4.66699 5.16895 4.68848C5.04199 4.73926 4.94434 4.7998 4.87598 4.87012C4.80957 4.93848 4.76367 5.00098 4.73828 5.05762C4.71289 5.11426 4.7002 5.15039 4.7002 5.16602C4.7002 5.2168 4.73633 5.26367 4.80859 5.30664C4.88281 5.34961 4.97266 5.38672 5.07812 5.41797C5.18359 5.44922 5.28711 5.47363 5.38867 5.49121C5.49219 5.50879 5.57227 5.51758 5.62891 5.51758C5.66406 5.51758 5.71875 5.50195 5.79297 5.4707C5.86914 5.43555 5.96777 5.38867 6.08887 5.33008C6.20996 5.27148 6.33203 5.21191 6.45508 5.15137C6.58008 5.09082 6.68555 5.04004 6.77148 4.99902C6.85742 4.95605 6.90234 4.93457 6.90625 4.93457C6.91016 4.93457 6.9209 4.9502 6.93848 4.98145C6.95801 5.01074 6.96777 5.03027 6.96777 5.04004C6.96777 5.0459 6.9502 5.0752 6.91504 5.12793C6.87988 5.18066 6.83594 5.24512 6.7832 5.32129C6.73047 5.39551 6.67676 5.46973 6.62207 5.54395C6.56934 5.61816 6.52344 5.68066 6.48438 5.73145C6.44531 5.78223 6.42285 5.80957 6.41699 5.81348C6.30371 5.87402 6.18262 5.93359 6.05371 5.99219C5.92676 6.05078 5.79785 6.11426 5.66699 6.18262C5.44629 6.29395 5.23535 6.42285 5.03418 6.56934C4.83496 6.71582 4.67285 6.8916 4.54785 7.09668C4.42285 7.30371 4.36035 7.55273 4.36035 7.84375C4.36035 8.17578 4.4668 8.44629 4.67969 8.65527C4.89453 8.86426 5.2041 9.01758 5.6084 9.11523C6.01465 9.21289 6.50293 9.26172 7.07324 9.26172C7.36035 9.26172 7.59863 9.24609 7.78809 9.21484C7.97754 9.18555 8.08691 9.1709 8.11621 9.1709C8.12598 9.1709 8.13477 9.19141 8.14258 9.23242C8.15234 9.27344 8.15723 9.29883 8.15723 9.30859Z" fill="#3A4254" stroke="#3A4254" stroke-width="0.4"/>
<path d="M5.85176 14.1481C5.89712 15.5815 6.05315 16.4608 6.5898 17.1147C6.72832 17.2834 6.88308 17.4382 7.05186 17.5767C7.97382 18.3333 9.34359 18.3333 12.0832 18.3333C14.8228 18.3333 16.1925 18.3333 17.1145 17.5767C17.2833 17.4382 17.438 17.2834 17.5765 17.1147C18.3332 16.1927 18.3332 14.8229 18.3332 12.0833C18.3332 9.34375 18.3332 7.97399 17.5765 7.05203C17.438 6.88325 17.2833 6.72849 17.1145 6.58997C16.4634 6.05564 15.589 5.89865 14.1665 5.85253M5.85176 14.1481C4.41831 14.1028 3.53911 13.9467 2.8852 13.41C2.71641 13.2715 2.56165 13.1168 2.42314 12.948C1.6665 12.026 1.6665 10.6563 1.6665 7.91667C1.6665 5.1771 1.6665 3.80732 2.42314 2.88536C2.56165 2.71658 2.71641 2.56182 2.8852 2.42331C3.80715 1.66667 5.17694 1.66667 7.9165 1.66667C10.6561 1.66667 12.0258 1.66667 12.9478 2.42331C13.1166 2.56182 13.2713 2.71658 13.4098 2.88536C13.9465 3.53928 14.1026 4.41848 14.1479 5.85193C14.1479 5.85193 14.1479 5.85193 14.1665 5.85253M5.85176 14.1481L14.1665 5.85253" stroke="#3A4254" stroke-width="1.5"/>
<path d="M10.8335 15.8333L11.5279 14.1667M11.5279 14.1667L12.9168 10.8333L14.3057 14.1667M11.5279 14.1667H14.3057M15.0002 15.8333L14.3057 14.1667" stroke="#3A4254" stroke-width="1.5" stroke-linecap="round" stroke-linejoin="round"/>
</g>
<defs>
<clipPath id="clip0_49_195">
<rect width="20" height="20" fill="white"/>
</clipPath>
</defs>
</svg>
