<svg width="16" height="16" viewBox="0 0 16 16" fill="none" xmlns="http://www.w3.org/2000/svg">
<g clip-path="url(#clip0_1342_1330)">
<path d="M7.99992 14.6667C11.6818 14.6667 14.6666 11.6819 14.6666 8.00004C14.6666 4.31814 11.6818 1.33337 7.99992 1.33337C4.31802 1.33337 1.33325 4.31814 1.33325 8.00004C1.33325 11.6819 4.31802 14.6667 7.99992 14.6667Z" stroke="#AAB0BE" stroke-width="1.5" stroke-linecap="round" stroke-linejoin="round"/>
<path d="M6.33325 7.46649V8.53343C6.33325 9.54629 6.33325 10.0527 6.63709 10.2574C6.94092 10.4621 7.35645 10.2356 8.18759 9.78269L9.16639 9.24916C10.1665 8.70409 10.6666 8.43156 10.6666 7.99996C10.6666 7.56836 10.1665 7.29583 9.16639 6.75076L8.18759 6.21725C7.35645 5.76429 6.94092 5.53781 6.63709 5.74251C6.33325 5.9472 6.33325 6.45363 6.33325 7.46649Z" fill="#AAB0BE"/>
</g>
<defs>
<clipPath id="clip0_1342_1330">
<rect width="16" height="16" fill="white"/>
</clipPath>
</defs>
</svg>
